<svg xmlns="http://www.w3.org/2000/svg" xmlns:xlink="http://www.w3.org/1999/xlink" width="1920" zoomAndPan="magnify" viewBox="115 295 606 248" height="1080" preserveAspectRatio="xMidYMid meet" version="1.0"><defs><clipPath id="a55517dc17"><path d="M 131 311 L 276 311 L 276 528.660156 L 131 528.660156 Z M 131 311 " clip-rule="nonzero"/></clipPath></defs><path fill="#000000" d="M 582.484375 391.253906 C 583.773438 390.832031 584.921875 390.480469 586.054688 390.09375 C 593.820312 387.4375 601.632812 384.945312 609.605469 382.960938 C 618.101562 380.851562 626.710938 380 635.4375 380.492188 C 647.703125 381.1875 659.082031 384.695312 669.417969 391.4375 C 675.226562 395.226562 680.613281 399.535156 685.617188 404.34375 C 694.363281 412.746094 699.886719 422.976562 702.820312 434.644531 C 706.421875 448.960938 705.0625 462.8125 698.652344 476.152344 C 692.410156 489.144531 683.15625 499.40625 670.832031 506.875 C 661.21875 512.703125 650.804688 516.421875 639.742188 518.261719 C 632.238281 519.511719 624.675781 519.546875 617.113281 518.757812 C 616.746094 518.71875 616.378906 518.691406 615.816406 518.640625 C 615.410156 519.425781 615.019531 520.25 614.570312 521.039062 C 613.539062 522.859375 612.054688 524.019531 609.894531 524.164062 C 606.449219 524.394531 603.738281 521.8125 603.824219 518.347656 C 603.839844 517.792969 603.984375 517.246094 604.085938 516.578125 C 603.230469 515.976562 602.210938 515.855469 601.257812 515.59375 C 595.398438 513.992188 589.664062 512.050781 584.191406 509.386719 C 577.402344 506.085938 571.367188 501.738281 566.148438 496.273438 C 563.414062 493.417969 561.097656 490.269531 559.488281 486.632812 C 558.105469 483.515625 557.3125 480.273438 557.578125 476.832031 C 557.859375 473.238281 559.183594 470.101562 561.898438 467.6875 C 564.875 465.039062 568.347656 464.0625 572.296875 464.886719 C 574.332031 465.3125 576.222656 466.066406 577.992188 467.140625 C 578.707031 467.570312 579.417969 468.007812 580.289062 468.535156 C 580.765625 467.660156 581.203125 466.871094 581.628906 466.074219 C 584.691406 460.328125 588.972656 455.753906 594.644531 452.507812 C 598.363281 450.375 602.386719 449.148438 606.628906 449.023438 C 612.5 448.851562 617.664062 450.757812 621.683594 455.199219 C 626.042969 460.019531 628.40625 465.707031 628.765625 472.195312 C 629.074219 477.847656 628.171875 483.367188 626.792969 488.832031 C 625.421875 494.28125 623.371094 499.496094 621.335938 504.71875 C 621.003906 505.574219 620.699219 506.441406 620.445312 507.128906 C 620.667969 507.828125 621.097656 507.75 621.4375 507.769531 C 637.609375 508.855469 652.574219 505.054688 666.273438 496.445312 C 677.300781 489.511719 685.144531 479.847656 690.007812 467.773438 C 694.496094 456.648438 694.476562 445.375 690.945312 434.015625 C 688.132812 424.972656 683.234375 417.265625 676.199219 410.902344 C 671.613281 406.753906 666.789062 402.929688 661.476562 399.753906 C 654.066406 395.328125 646.082031 392.761719 637.453125 391.984375 C 632.019531 391.496094 626.625 391.554688 621.234375 392.195312 C 616.503906 392.753906 611.855469 393.824219 607.300781 395.199219 C 601.410156 396.976562 595.566406 398.917969 589.691406 400.746094 C 587.46875 401.4375 585.238281 402.183594 582.953125 402.589844 C 577.09375 403.632812 572.84375 400.492188 571.515625 395.601562 C 571.367188 395.0625 571.1875 394.523438 571.097656 393.972656 C 570.636719 391.195312 570.453125 388.402344 570.820312 385.59375 C 571.476562 380.59375 572.027344 375.574219 572.84375 370.601562 C 574.296875 361.75 576.179688 352.976562 578.960938 344.433594 C 580.085938 340.976562 581.457031 337.597656 582.785156 334.207031 C 583.257812 332.996094 583.90625 331.847656 584.523438 330.695312 C 587.386719 325.335938 591.757812 321.753906 597.453125 319.722656 C 600.367188 318.679688 603.363281 318.011719 606.410156 317.542969 C 615.015625 316.21875 623.695312 315.917969 632.378906 315.628906 C 639.753906 315.382812 647.132812 315.117188 654.5 314.675781 C 658.597656 314.429688 662.664062 313.753906 666.75 313.371094 C 668.886719 313.171875 671.035156 313.105469 673.179688 313.125 C 674.089844 313.132812 675.039062 313.402344 675.894531 313.738281 C 678.449219 314.757812 679.816406 317.421875 679.265625 320.125 C 678.78125 322.511719 676.625 324.457031 674.03125 324.339844 C 668.566406 324.085938 663.257812 325.316406 657.871094 325.738281 C 654.707031 325.984375 651.539062 326.273438 648.367188 326.390625 C 641.082031 326.660156 633.792969 326.75 626.511719 327.078125 C 619.328125 327.402344 612.144531 327.773438 605.074219 329.242188 C 604.800781 329.300781 604.519531 329.320312 604.246094 329.378906 C 599.046875 330.476562 595.347656 333.300781 593.226562 338.320312 C 591.109375 343.328125 589.382812 348.449219 587.976562 353.683594 C 585.625 362.445312 583.96875 371.351562 582.765625 380.339844 C 582.429688 382.839844 582.238281 385.355469 582.011719 387.867188 C 581.914062 388.882812 581.828125 389.910156 582.484375 391.253906 Z M 569.761719 475.996094 C 568.996094 476.5 568.722656 477.214844 568.832031 477.980469 C 569 479.171875 569.175781 480.394531 569.589844 481.515625 C 570.402344 483.726562 571.742188 485.644531 573.308594 487.40625 C 577.78125 492.425781 583.089844 496.335938 589.117188 499.277344 C 594.847656 502.074219 600.902344 503.933594 607.070312 505.460938 C 607.582031 505.585938 608.152344 505.476562 608.855469 505.476562 C 609.792969 503.132812 610.734375 500.804688 611.664062 498.46875 C 613.457031 493.957031 615.136719 489.402344 616.210938 484.648438 C 617.035156 480.996094 617.644531 477.308594 617.554688 473.546875 C 617.472656 469.992188 616.378906 466.769531 614.292969 463.875 C 612.511719 461.398438 610.128906 460.226562 607.082031 460.355469 C 605.003906 460.441406 602.980469 460.808594 601.148438 461.800781 C 594.472656 465.429688 590.421875 470.914062 589.445312 478.542969 C 589.339844 479.375 589.234375 480.207031 589.089844 481.035156 C 588.675781 483.359375 587.359375 485.019531 585.117188 485.667969 C 582.679688 486.378906 580.488281 485.722656 578.800781 483.746094 C 578.136719 482.96875 577.554688 482.117188 576.9375 481.296875 C 575.804688 479.796875 574.554688 478.414062 573.007812 477.324219 C 572.007812 476.621094 570.992188 475.980469 569.761719 475.996094 Z M 569.761719 475.996094 " fill-opacity="1" fill-rule="nonzero"/><path fill="#000000" d="M 328.945312 346.839844 C 330.269531 346.234375 331.003906 345.238281 331.839844 344.382812 C 335.4375 340.703125 339.171875 337.171875 343.320312 334.105469 C 351.429688 328.121094 360.1875 323.4375 369.917969 320.652344 C 374.648438 319.300781 379.476562 318.804688 384.339844 319.304688 C 393.777344 320.273438 401.425781 324.375 406.59375 332.59375 C 408.746094 336.019531 410.433594 339.65625 411.585938 343.523438 C 413.957031 351.484375 414.753906 359.617188 414.230469 367.917969 C 413.351562 382.015625 409.445312 395.300781 403.59375 408.054688 C 391.296875 434.851562 374.800781 458.695312 353.410156 479.074219 C 347.046875 485.132812 340.6875 491.203125 334.316406 497.25 C 333.292969 498.222656 332.347656 499.15625 331.992188 500.644531 C 331.679688 501.949219 330.726562 503.035156 329.449219 503.46875 C 327.613281 504.097656 325.707031 504.625 323.789062 504.898438 C 321.785156 505.183594 320.082031 504.257812 319.027344 502.546875 C 318.3125 501.390625 317.363281 500.566406 316.339844 499.75 C 314.050781 497.933594 312.121094 495.753906 310.46875 493.371094 C 308.398438 490.375 306.386719 487.328125 304.546875 484.1875 C 292.742188 464.039062 284.394531 442.53125 279.320312 419.730469 C 277.617188 412.066406 276.085938 404.371094 275.085938 396.582031 C 274.097656 388.875 273.523438 381.132812 273.863281 373.359375 C 274.277344 363.855469 276.015625 354.621094 279.910156 345.871094 C 281.4375 342.445312 283.214844 339.164062 285.546875 336.210938 C 286.355469 335.1875 287.210938 334.179688 288.148438 333.28125 C 293.980469 327.703125 301.570312 325.984375 309.613281 329.644531 C 312.972656 331.171875 315.855469 333.394531 318.441406 335.996094 C 321.140625 338.714844 323.746094 341.53125 326.402344 344.292969 C 327.234375 345.160156 328.097656 345.996094 328.945312 346.839844 Z M 323.996094 491.316406 C 324.398438 490.996094 324.785156 490.734375 325.121094 490.414062 C 333.554688 482.332031 342.109375 474.363281 350.394531 466.125 C 368.84375 447.789062 382.824219 426.347656 393.605469 402.773438 C 399.050781 390.863281 402.628906 378.4375 403.03125 365.238281 C 403.210938 359.21875 402.679688 353.28125 401.007812 347.484375 C 399.9375 343.78125 398.367188 340.304688 396.0625 337.175781 C 394.171875 334.613281 391.738281 332.785156 388.753906 331.738281 C 386.367188 330.90625 383.902344 330.433594 381.347656 330.390625 C 378.039062 330.332031 374.832031 330.859375 371.703125 331.855469 C 360.550781 335.417969 350.902344 341.472656 342.527344 349.601562 C 341.050781 351.035156 339.664062 352.5625 338.152344 353.953125 C 336.917969 355.085938 335.652344 356.242188 334.234375 357.109375 C 330.625 359.308594 326.960938 359.242188 323.457031 356.8125 C 322.3125 356.019531 321.234375 355.089844 320.257812 354.097656 C 317.898438 351.699219 315.652344 349.1875 313.289062 346.792969 C 311.582031 345.066406 309.824219 343.386719 307.972656 341.816406 C 306.992188 340.984375 305.820312 340.324219 304.636719 339.789062 C 301.511719 338.378906 298.605469 338.820312 296.136719 341.253906 C 295.148438 342.234375 294.257812 343.339844 293.460938 344.484375 C 291.480469 347.339844 290.0625 350.492188 288.878906 353.753906 C 285.835938 362.132812 284.894531 370.832031 285.082031 379.675781 C 285.21875 386.132812 285.828125 392.558594 286.796875 398.9375 C 288.136719 407.808594 290.027344 416.574219 292.265625 425.265625 C 297.285156 444.761719 305.078125 463.097656 315.363281 480.382812 C 316.839844 482.867188 318.523438 485.238281 320.21875 487.582031 C 321.253906 489.007812 322.414062 490.359375 323.996094 491.316406 Z M 323.996094 491.316406 " fill-opacity="1" fill-rule="nonzero"/><g clip-path="url(#a55517dc17)"><path fill="#000000" d="M 205.597656 465.476562 C 206.398438 464.261719 207.035156 463.34375 207.628906 462.402344 C 214.523438 451.464844 219.183594 439.601562 222.179688 427.058594 C 225.089844 414.882812 226.3125 402.527344 225.476562 390.046875 C 224.164062 370.410156 217.496094 352.882812 204.113281 338.199219 C 198.558594 332.109375 192.054688 327.34375 184.210938 324.535156 C 179.570312 322.871094 174.847656 322.03125 169.914062 322.519531 C 167.359375 322.773438 164.992188 323.597656 162.828125 324.949219 C 160.730469 326.257812 160.515625 327.097656 161.375 329.378906 C 161.703125 330.242188 162.058594 331.140625 162.132812 332.046875 C 162.335938 334.429688 161.25 336.203125 159.164062 337.324219 C 157.222656 338.367188 154.5625 337.988281 152.894531 336.472656 C 152.484375 336.101562 152.097656 335.671875 151.804688 335.199219 C 148.816406 330.371094 148.367188 324.371094 152.273438 319.488281 C 153.363281 318.125 154.730469 316.902344 156.164062 315.898438 C 159.902344 313.285156 164.125 311.898438 168.652344 311.328125 C 175.804688 310.429688 182.589844 311.894531 189.210938 314.402344 C 196.839844 317.289062 203.445312 321.773438 209.304688 327.410156 C 218.132812 335.902344 224.652344 345.949219 229.339844 357.214844 C 232.949219 365.890625 235.304688 374.898438 236.292969 384.261719 C 237.230469 393.128906 237.136719 401.988281 236.277344 410.855469 C 234.945312 424.628906 231.625 437.898438 226.351562 450.683594 C 223.492188 457.613281 219.941406 464.183594 215.851562 470.460938 C 215.351562 471.234375 214.855469 472.007812 214.3125 472.855469 C 214.707031 473.265625 215 473.617188 215.339844 473.917969 C 226.410156 483.695312 237.34375 493.632812 248.929688 502.808594 C 253.546875 506.464844 258.238281 510.023438 262.933594 513.574219 C 264.417969 514.695312 266.03125 515.652344 267.589844 516.683594 C 268.394531 516.53125 269.113281 516.324219 269.84375 516.269531 C 272.21875 516.097656 274.058594 517.0625 275.195312 519.140625 C 276.339844 521.246094 276.089844 523.347656 274.613281 525.179688 C 272.648438 527.625 270.039062 528.636719 266.910156 528.167969 C 264.550781 527.816406 262.4375 526.789062 260.503906 525.476562 C 257.105469 523.164062 253.722656 520.820312 250.457031 518.324219 C 238.792969 509.402344 227.59375 499.921875 216.664062 490.121094 C 214.363281 488.058594 212.054688 486.015625 209.742188 483.972656 C 208.972656 483.296875 208.175781 482.652344 207.28125 481.902344 C 206.515625 482.730469 205.820312 483.472656 205.132812 484.226562 C 199.621094 490.257812 193.523438 495.617188 186.746094 500.175781 C 181.367188 503.789062 175.671875 506.757812 169.402344 508.523438 C 166.066406 509.464844 162.675781 510.042969 159.183594 509.980469 C 149.441406 509.800781 141.992188 505.582031 136.820312 497.339844 C 134.351562 493.40625 132.871094 489.070312 132.058594 484.539062 C 130.417969 475.410156 131.15625 466.476562 134.679688 457.839844 C 136.25 454 138.34375 450.46875 141.226562 447.464844 C 147.085938 441.367188 154.1875 438.953125 162.585938 440.25 C 167.824219 441.058594 172.671875 442.90625 177.316406 445.363281 C 183.285156 448.515625 188.777344 452.40625 194.140625 456.472656 C 197.417969 458.953125 200.582031 461.585938 203.804688 464.140625 C 204.304688 464.542969 204.832031 464.910156 205.597656 465.476562 Z M 198.492188 474.601562 C 198.199219 474.246094 198.097656 474.082031 197.960938 473.960938 C 191.40625 468.382812 184.644531 463.078125 177.378906 458.457031 C 174.863281 456.859375 172.230469 455.417969 169.5625 454.085938 C 166.800781 452.710938 163.855469 451.828125 160.78125 451.351562 C 155.90625 450.59375 151.945312 452.121094 148.816406 455.859375 C 147 458.027344 145.679688 460.492188 144.707031 463.148438 C 142.328125 469.636719 141.914062 476.28125 143.253906 483.019531 C 143.992188 486.710938 145.25 490.230469 147.652344 493.222656 C 149.828125 495.933594 152.550781 497.695312 156.039062 498.386719 C 159.257812 499.023438 162.363281 498.699219 165.464844 497.9375 C 170.226562 496.761719 174.566406 494.601562 178.6875 492 C 185.765625 487.523438 191.992188 482.042969 197.574219 475.8125 C 197.875 475.472656 198.125 475.082031 198.492188 474.601562 Z M 198.492188 474.601562 " fill-opacity="1" fill-rule="nonzero"/></g><path fill="#000000" d="M 491.957031 475.570312 C 492.421875 475.894531 492.753906 476.210938 493.148438 476.394531 C 495.601562 477.53125 498.054688 478.675781 500.539062 479.746094 C 509.207031 483.46875 517.703125 487.542969 526.050781 491.929688 C 528.777344 493.359375 531.585938 494.625 534.359375 495.964844 C 535.847656 496.683594 537.316406 496.9375 538.933594 496.203125 C 539.65625 495.875 540.585938 495.867188 541.40625 495.925781 C 545.019531 496.183594 547.296875 499.929688 545.949219 503.304688 C 545.480469 504.476562 544.710938 505.402344 543.65625 506.0625 C 540.957031 507.753906 538.109375 508.601562 534.863281 507.882812 C 532.746094 507.414062 530.734375 506.710938 528.789062 505.804688 C 526 504.503906 523.246094 503.125 520.511719 501.710938 C 512.796875 497.71875 504.992188 493.933594 497.023438 490.476562 C 492.402344 488.46875 487.855469 486.289062 483.273438 484.1875 C 482.519531 483.84375 481.753906 483.519531 480.964844 483.171875 C 479.957031 483.753906 478.988281 484.3125 478.019531 484.871094 C 470.472656 489.234375 462.605469 492.832031 454.136719 495.023438 C 449.324219 496.265625 444.457031 497.183594 439.476562 496.992188 C 431.203125 496.671875 423.738281 494.089844 417.371094 488.664062 C 414.261719 486.015625 411.824219 482.847656 410.222656 479.085938 C 405.453125 467.890625 411.617188 455.652344 423.449219 452.792969 C 427.417969 451.832031 431.429688 451.914062 435.421875 452.496094 C 441.273438 453.347656 446.8125 455.328125 452.285156 457.488281 C 460.796875 460.847656 469.0625 464.761719 477.277344 468.78125 C 478.191406 469.226562 479.121094 469.652344 480.109375 470.121094 C 480.757812 469.691406 481.390625 469.3125 481.984375 468.875 C 497.3125 457.667969 509.699219 443.886719 518.574219 427.03125 C 524.105469 416.523438 527.757812 405.378906 529.4375 393.625 C 530.597656 385.539062 530.742188 377.398438 529.523438 369.308594 C 527.304688 354.613281 520.511719 342.515625 508.644531 333.429688 C 502.886719 329.019531 496.324219 326.40625 489.15625 325.5 C 485.253906 325.007812 481.339844 325.332031 477.484375 326.308594 C 473.019531 327.441406 468.78125 329.085938 464.753906 331.304688 C 463.753906 331.855469 463.042969 332.539062 462.566406 333.6875 C 461.191406 337.003906 458.359375 337.695312 455.699219 336.984375 C 453.15625 336.304688 451.492188 333.445312 451.816406 330.558594 C 452.050781 328.453125 452.808594 326.527344 454.394531 325.101562 C 455.707031 323.921875 457.105469 322.789062 458.621094 321.898438 C 465.375 317.929688 472.644531 315.273438 480.421875 314.34375 C 487.957031 313.445312 495.296875 314.59375 502.414062 317.289062 C 510.253906 320.261719 516.941406 324.914062 522.746094 330.886719 C 531.917969 340.328125 537.652344 351.597656 540.144531 364.496094 C 541.949219 373.839844 542.050781 383.25 540.898438 392.6875 C 537.929688 417.011719 527.78125 438.078125 511.957031 456.566406 C 506.410156 463.046875 500.242188 468.894531 493.570312 474.207031 C 493.0625 474.605469 492.582031 475.042969 491.957031 475.570312 Z M 468.558594 477.152344 C 467.5625 476.625 466.921875 476.25 466.25 475.9375 C 462.957031 474.40625 459.683594 472.828125 456.351562 471.382812 C 450.714844 468.933594 445.058594 466.53125 439.136719 464.824219 C 435.621094 463.8125 432.066406 463.171875 428.386719 463.371094 C 426.871094 463.453125 425.433594 463.804688 424.101562 464.496094 C 421.480469 465.851562 420.078125 468.027344 419.957031 470.988281 C 419.886719 472.605469 420.261719 474.125 421.019531 475.566406 C 422.261719 477.929688 424.066406 479.800781 426.226562 481.320312 C 431.160156 484.789062 436.6875 486.078125 442.644531 485.632812 C 448.363281 485.203125 453.816406 483.683594 459.128906 481.585938 C 462.242188 480.355469 465.320312 479.054688 468.558594 477.152344 Z M 468.558594 477.152344 " fill-opacity="1" fill-rule="nonzero"/></svg>