<svg xmlns="http://www.w3.org/2000/svg" xmlns:xlink="http://www.w3.org/1999/xlink" width="1920" zoomAndPan="magnify" viewBox="406 229 579 218" height="1080" preserveAspectRatio="xMidYMid meet" version="1.0"><path fill="#000000" d="M 478.007812 394.941406 C 493.671875 390.375 509.933594 390.847656 532.375 398.957031 C 546.351562 404 562.589844 412.070312 562.957031 412.371094 C 564.003906 413.230469 565.230469 413.910156 566.082031 414.953125 C 566.480469 415.433594 568.734375 418.1875 568.347656 422.355469 C 567.945312 426.652344 565.09375 428.988281 564.597656 429.390625 C 561.371094 432.042969 557.820312 431.710938 557.207031 431.652344 C 554.457031 431.394531 554.503906 431.132812 552.058594 429.839844 C 544.886719 426.042969 520.601562 411.058594 499.53125 409.265625 C 485.191406 408.042969 472.207031 412.484375 451.34375 423.898438 C 451.1875 423.984375 449.820312 424.734375 449.328125 424.914062 C 448.800781 425.109375 445.546875 426.300781 442.328125 423.855469 C 441.882812 423.511719 439.125 421.40625 439.46875 417.390625 C 439.675781 414.953125 441.171875 413.269531 441.429688 412.980469 C 443.707031 410.4375 466.042969 388.355469 480.3125 372.933594 C 496.3125 355.644531 526.023438 322.066406 519.957031 301.339844 C 519.292969 299.078125 516.988281 291.234375 502.6875 284.425781 C 476.460938 271.9375 448.375 290.96875 457.105469 315.035156 C 457.925781 317.277344 458.894531 319.070312 459.023438 319.316406 C 460.914062 322.949219 459.679688 326.546875 459.46875 327.140625 C 459.042969 328.382812 458.382812 329.570312 457.511719 330.554688 C 457.09375 331.035156 454.671875 333.792969 450.355469 334.050781 C 449.742188 334.085938 446.179688 334.300781 443.042969 331.535156 C 441.074219 329.808594 441.164062 329.699219 440.113281 327.300781 C 420.539062 282.585938 472.394531 244.390625 516.472656 274.445312 C 545.5 294.234375 533.167969 321.722656 527.46875 332.65625 C 517.78125 351.210938 499.363281 371.816406 478.007812 394.941406 Z M 478.007812 394.941406 " fill-opacity="1" fill-rule="evenodd"/><path fill="#000000" d="M 748.960938 394.941406 C 764.628906 390.375 780.886719 390.847656 803.332031 398.957031 C 817.304688 404 833.546875 412.070312 833.914062 412.371094 C 834.960938 413.230469 836.1875 413.910156 837.039062 414.953125 C 837.4375 415.433594 839.691406 418.1875 839.304688 422.355469 C 838.898438 426.652344 836.050781 428.988281 835.554688 429.390625 C 832.328125 432.042969 828.777344 431.710938 828.164062 431.652344 C 825.410156 431.394531 825.460938 431.132812 823.015625 429.839844 C 815.839844 426.042969 791.554688 411.058594 770.488281 409.265625 C 756.148438 408.042969 743.164062 412.484375 722.300781 423.898438 C 722.144531 423.984375 720.777344 424.734375 720.28125 424.914062 C 719.757812 425.109375 716.503906 426.300781 713.285156 423.855469 C 712.839844 423.511719 710.078125 421.40625 710.425781 417.390625 C 710.632812 414.953125 712.128906 413.269531 712.386719 412.980469 C 714.660156 410.4375 736.996094 388.355469 751.269531 372.933594 C 767.269531 355.644531 796.980469 322.066406 790.914062 301.339844 C 790.25 299.078125 787.945312 291.234375 773.644531 284.425781 C 747.417969 271.9375 719.332031 290.96875 728.0625 315.035156 C 728.882812 317.277344 729.851562 319.070312 729.980469 319.316406 C 731.871094 322.949219 730.632812 326.546875 730.425781 327.140625 C 730 328.382812 729.339844 329.570312 728.46875 330.554688 C 728.050781 331.035156 725.628906 333.792969 721.3125 334.050781 C 717.136719 334.300781 714.464844 331.945312 714 331.535156 C 712.03125 329.808594 712.117188 329.699219 711.070312 327.300781 C 691.496094 282.585938 743.351562 244.390625 787.429688 274.445312 C 816.457031 294.234375 804.125 321.722656 798.425781 332.65625 C 788.734375 351.210938 770.320312 371.816406 748.960938 394.941406 Z M 748.960938 394.941406 " fill-opacity="1" fill-rule="evenodd"/><path fill="#000000" d="M 629.804688 413.019531 C 629.648438 413.566406 629.050781 419.039062 623.847656 420.246094 C 621.222656 420.855469 614.824219 421.339844 599.589844 403.054688 C 581.535156 381.371094 554.714844 335.316406 565.988281 299.203125 C 569.757812 287.128906 583.488281 270.601562 600.617188 275.359375 C 606.757812 277.0625 611.300781 281.039062 614.335938 284.375 C 618.175781 277.078125 623.976562 269.773438 632.710938 265.28125 C 656.566406 253.019531 686.238281 270.761719 685.082031 308.320312 C 684.175781 338 662.496094 363.152344 646.496094 385.226562 C 633.675781 402.917969 631.015625 410.105469 629.804688 413.019531 Z M 627.195312 310.863281 C 626.910156 311.757812 626.753906 312.695312 626.40625 313.566406 C 625.902344 314.855469 624.625 316.117188 624.433594 316.308594 C 623.882812 316.859375 620.503906 320.21875 615.070312 319.070312 C 609.65625 317.925781 607.921875 313.488281 607.636719 312.761719 C 606.140625 308.960938 602.140625 297.832031 596.515625 294.082031 C 595.695312 293.535156 593.394531 291.757812 588.683594 295.839844 C 583.914062 299.988281 582.269531 304.960938 581.964844 305.878906 C 571.667969 337.179688 600.019531 386.378906 618.007812 403.480469 C 618.449219 403.902344 618.863281 404.28125 619.25 404.621094 C 619.828125 403.378906 620.550781 401.914062 621.441406 400.1875 C 638.15625 367.992188 676.398438 334.789062 668.425781 298.433594 C 663.21875 274.703125 637.183594 270.464844 629.125 300.445312 C 627.957031 304.785156 627.472656 309.488281 627.378906 310.335938 C 627.378906 310.339844 627.378906 310.347656 627.378906 310.351562 C 627.351562 310.59375 627.316406 310.761719 627.195312 310.863281 Z M 627.195312 310.863281 " fill-opacity="1" fill-rule="evenodd"/><path fill="#000000" d="M 874.433594 375.085938 C 878.722656 365.941406 885.230469 356.515625 894.519531 348.511719 C 912.386719 333.105469 933.789062 329.144531 948.855469 341.441406 C 970.019531 358.707031 958.710938 395.820312 933.960938 414.410156 C 913.21875 430.003906 885.683594 429.527344 870.820312 410.3125 C 848.960938 382.046875 858 320.066406 911.703125 260.710938 C 912.070312 260.300781 913.394531 258.84375 913.414062 258.839844 C 914.53125 258.074219 915.515625 257.082031 916.761719 256.550781 C 917.328125 256.304688 920.601562 254.898438 924.5 256.433594 C 928.507812 258.019531 929.957031 261.390625 930.210938 261.976562 C 931.84375 265.8125 930.546875 269.136719 930.316406 269.710938 C 929.363281 272.179688 929.1875 272.109375 927.296875 273.964844 C 889.996094 310.625 874.617188 348.328125 874.433594 375.085938 Z M 886.859375 407.367188 C 889.410156 409.304688 892.324219 410.699219 895.542969 411.484375 C 903.707031 413.480469 916.339844 412.742188 928.785156 401.613281 C 945.332031 386.816406 952.25 360.167969 937.40625 352.203125 C 935.78125 351.328125 928.605469 347.292969 916.386719 354.019531 C 903.171875 361.289062 888.621094 379.789062 888.183594 400.546875 C 888.183594 400.710938 888.132812 402.519531 888.132812 402.574219 C 887.847656 403.898438 887.796875 405.296875 887.273438 406.542969 C 887.203125 406.675781 887.082031 406.976562 886.859375 407.367188 Z M 886.859375 407.367188 " fill-opacity="1" fill-rule="evenodd"/></svg>