<svg xmlns="http://www.w3.org/2000/svg" xmlns:xlink="http://www.w3.org/1999/xlink" width="1920" zoomAndPan="magnify" viewBox="0 0 1440 809.999993" height="1080" preserveAspectRatio="xMidYMid meet" version="1.0"><defs><clipPath id="5952dd3c4a"><path d="M 212 217.914062 L 222 217.914062 L 222 243 L 212 243 Z M 212 217.914062 " clip-rule="nonzero"/></clipPath><clipPath id="79d69053cc"><path d="M 212 217.914062 L 222 217.914062 L 222 242 L 212 242 Z M 212 217.914062 " clip-rule="nonzero"/></clipPath><clipPath id="d1d09c1c9d"><path d="M 212 217.914062 L 221 217.914062 L 221 242 L 212 242 Z M 212 217.914062 " clip-rule="nonzero"/></clipPath></defs><path fill="#2d7904" d="M 234.160156 521.574219 C 234.160156 521.574219 217.640625 237.277344 217.402344 235.40625 C 217.019531 232.453125 207.453125 234.046875 207.917969 237.277344 C 208.699219 242.714844 222.519531 521.574219 222.519531 521.574219 Z M 234.160156 521.574219 " fill-opacity="1" fill-rule="evenodd"/><path fill="#20a600" d="M 221.925781 509.027344 C 222.925781 509.148438 225.675781 509.460938 228.132812 509.195312 C 231.03125 508.878906 233.359375 508.242188 233.574219 508.214844 C 233.707031 508.203125 233.839844 508.960938 233.625 509.035156 C 232.894531 509.277344 230.921875 509.734375 228.734375 509.980469 C 225.75 510.316406 222.785156 509.957031 221.925781 509.8125 C 221.734375 509.78125 221.726562 509.003906 221.925781 509.027344 Z M 221.925781 509.027344 " fill-opacity="1" fill-rule="evenodd"/><path fill="#2d7904" d="M 246.679688 523.808594 C 246.679688 523.808594 257.148438 416.585938 284.828125 346.515625 C 307.597656 288.859375 346.527344 241.511719 347.816406 240.136719 C 349.816406 238.015625 357.019531 242.574219 354.496094 246.25 C 351.390625 250.777344 310.820312 305.617188 292.363281 356.183594 C 264.316406 433 258.363281 523.890625 258.363281 523.890625 Z M 246.679688 523.808594 " fill-opacity="1" fill-rule="evenodd"/><path fill="#1c9500" d="M 318.523438 319.117188 C 318.523438 319.117188 331.59375 320.367188 335.757812 327.769531 C 337.605469 331.058594 338.386719 334.050781 338.183594 333.785156 C 337.605469 333.007812 338.292969 328.0625 318.523438 319.117188 Z M 318.523438 319.117188 " fill-opacity="1" fill-rule="evenodd"/><path fill="#20a600" d="M 318.523438 319.117188 C 318.523438 319.117188 331.789062 320.636719 335.804688 328.121094 C 337.304688 330.917969 338.183594 333.785156 338.183594 333.785156 C 338.183594 333.785156 336.429688 322.234375 318.523438 319.117188 Z M 318.523438 319.117188 " fill-opacity="1" fill-rule="evenodd"/><path fill="#20a600" d="M 318.523438 319.117188 C 318.523438 319.117188 324.289062 320.199219 331.324219 324.855469 C 333.167969 326.074219 335.273438 328.222656 336.574219 330.246094 C 337.726562 332.035156 338.183594 333.785156 338.183594 333.785156 C 338.183594 333.785156 337.871094 329.714844 331.210938 325.070312 C 328.335938 323.070312 324.144531 321.222656 318.523438 319.117188 Z M 318.523438 319.117188 " fill-opacity="1" fill-rule="evenodd"/><path fill="#1c9500" d="M 319.027344 318.980469 C 319.027344 318.980469 330.359375 316.503906 335.859375 321.605469 C 338.304688 323.875 339.765625 326.179688 339.527344 326.011719 C 338.828125 325.515625 338.070312 321.167969 319.027344 318.980469 Z M 319.027344 318.980469 " fill-opacity="1" fill-rule="evenodd"/><path fill="#20a600" d="M 319.027344 318.980469 C 319.027344 318.980469 330.597656 316.675781 335.996094 321.890625 C 338.011719 323.839844 339.527344 326.011719 339.527344 326.011719 C 339.527344 326.011719 334.929688 316.769531 319.027344 318.980469 Z M 319.027344 318.980469 " fill-opacity="1" fill-rule="evenodd"/><path fill="#20a600" d="M 319.027344 318.980469 C 319.027344 318.980469 324.171875 318.332031 331.347656 320.351562 C 333.226562 320.878906 335.574219 322.121094 337.214844 323.46875 C 338.667969 324.664062 339.527344 326.011719 339.527344 326.011719 C 339.527344 326.011719 338.164062 322.671875 331.308594 320.566406 C 328.351562 319.65625 324.328125 319.234375 319.027344 318.980469 Z M 319.027344 318.980469 " fill-opacity="1" fill-rule="evenodd"/><path fill="#1c9500" d="M 328.617188 301.050781 C 328.617188 301.050781 328.914062 311.691406 323.375 315.78125 C 320.914062 317.597656 318.585938 318.519531 318.78125 318.332031 C 319.347656 317.789062 323.394531 317.847656 328.617188 301.050781 Z M 328.617188 301.050781 " fill-opacity="1" fill-rule="evenodd"/><path fill="#20a600" d="M 328.617188 301.050781 C 328.617188 301.050781 328.71875 311.878906 323.097656 315.855469 C 320.996094 317.339844 318.78125 318.332031 318.78125 318.332031 C 318.78125 318.332031 327.894531 315.769531 328.617188 301.050781 Z M 328.617188 301.050781 " fill-opacity="1" fill-rule="evenodd"/><path fill="#20a600" d="M 328.617188 301.050781 C 328.617188 301.050781 328.320312 305.800781 325.277344 311.925781 C 324.480469 313.527344 322.960938 315.4375 321.46875 316.683594 C 320.144531 317.789062 318.78125 318.332031 318.78125 318.332031 C 318.78125 318.332031 322.023438 317.675781 325.089844 311.851562 C 326.414062 309.34375 327.484375 305.785156 328.617188 301.050781 Z M 328.617188 301.050781 " fill-opacity="1" fill-rule="evenodd"/><path fill="#1c9500" d="M 320.902344 297.6875 C 320.902344 297.6875 325.644531 307.945312 321.953125 314.25 C 320.3125 317.050781 318.425781 318.925781 318.539062 318.664062 C 318.863281 317.898438 322.835938 316.261719 320.902344 297.6875 Z M 320.902344 297.6875 " fill-opacity="1" fill-rule="evenodd"/><path fill="#20a600" d="M 320.902344 297.6875 C 320.902344 297.6875 325.53125 308.207031 321.710938 314.4375 C 320.285156 316.765625 318.539062 318.664062 318.539062 318.664062 C 318.539062 318.664062 326.355469 312.347656 320.902344 297.6875 Z M 320.902344 297.6875 " fill-opacity="1" fill-rule="evenodd"/><path fill="#20a600" d="M 320.902344 297.6875 C 320.902344 297.6875 322.601562 302.445312 322.195312 309.691406 C 322.089844 311.589844 321.40625 314.085938 320.46875 315.929688 C 319.640625 317.5625 318.539062 318.664062 318.539062 318.664062 C 318.539062 318.664062 321.425781 316.664062 321.984375 309.699219 C 322.222656 306.699219 321.777344 302.78125 320.902344 297.6875 Z M 320.902344 297.6875 " fill-opacity="1" fill-rule="evenodd"/><path fill="#20a600" d="M 332.429688 313.777344 C 332.429688 313.777344 324.015625 316.5625 317.601562 320.355469 C 306.800781 326.738281 301.378906 335.203125 300.972656 335.546875 C 300.71875 335.757812 307.960938 324.683594 317.464844 319.492188 C 322.550781 316.703125 332.429688 313.777344 332.429688 313.777344 Z M 332.429688 313.777344 " fill-opacity="1" fill-rule="evenodd"/><path fill="#1c9500" d="M 220.164062 242.890625 C 220.164062 242.890625 232.664062 231.894531 243.121094 234.472656 C 247.765625 235.617188 251.203125 237.492188 250.785156 237.445312 C 249.566406 237.308594 245.589844 232.382812 220.164062 242.890625 Z M 220.164062 242.890625 " fill-opacity="1" fill-rule="evenodd"/><path fill="#20a600" d="M 220.164062 242.890625 C 220.164062 242.890625 233.085938 231.945312 243.488281 234.730469 C 247.375 235.773438 250.785156 237.445312 250.785156 237.445312 C 250.785156 237.445312 238.585938 229.042969 220.164062 242.890625 Z M 220.164062 242.890625 " fill-opacity="1" fill-rule="evenodd"/><path fill="#20a600" d="M 220.164062 242.890625 C 220.164062 242.890625 226.171875 238.5 236.582031 236.035156 C 239.304688 235.390625 243.121094 235.3125 246.117188 235.863281 C 248.769531 236.351562 250.785156 237.445312 250.785156 237.445312 C 250.785156 237.445312 246.753906 234.203125 236.679688 236.332031 C 232.339844 237.25 226.992188 239.523438 220.164062 242.890625 Z M 220.164062 242.890625 " fill-opacity="1" fill-rule="evenodd"/><path fill="#1c9500" d="M 220.5 242.332031 C 220.5 242.332031 228.050781 229.703125 237.539062 229.050781 C 241.757812 228.761719 245.15625 229.410156 244.789062 229.484375 C 243.726562 229.699219 239.054688 226.628906 220.5 242.332031 Z M 220.5 242.332031 " fill-opacity="1" fill-rule="evenodd"/><path fill="#20a600" d="M 220.5 242.332031 C 220.5 242.332031 228.417969 229.636719 237.917969 229.171875 C 241.46875 229 244.789062 229.484375 244.789062 229.484375 C 244.789062 229.484375 232.261719 225.710938 220.5 242.332031 Z M 220.5 242.332031 " fill-opacity="1" fill-rule="evenodd"/><path fill="#20a600" d="M 220.5 242.332031 C 220.5 242.332031 224.371094 237.015625 232.460938 232.132812 C 234.578125 230.855469 237.765625 229.757812 240.433594 229.414062 C 242.800781 229.109375 244.789062 229.484375 244.789062 229.484375 C 244.789062 229.484375 240.523438 227.847656 232.625 232.355469 C 229.21875 234.300781 225.335938 237.652344 220.5 242.332031 Z M 220.5 242.332031 " fill-opacity="1" fill-rule="evenodd"/><g clip-path="url(#5952dd3c4a)"><path fill="#1c9500" d="M 212.242188 217.902344 C 212.242188 217.902344 222.332031 226.863281 221.300781 235.53125 C 220.84375 239.382812 219.675781 242.335938 219.671875 241.992188 C 219.660156 241 223.226562 237.308594 212.242188 217.902344 Z M 212.242188 217.902344 " fill-opacity="1" fill-rule="evenodd"/></g><g clip-path="url(#79d69053cc)"><path fill="#20a600" d="M 212.242188 217.902344 C 212.242188 217.902344 222.332031 227.207031 221.128906 235.851562 C 220.675781 239.082031 219.671875 241.992188 219.671875 241.992188 C 219.671875 241.992188 225.214844 231.34375 212.242188 217.902344 Z M 212.242188 217.902344 " fill-opacity="1" fill-rule="evenodd"/></g><g clip-path="url(#d1d09c1c9d)"><path fill="#20a600" d="M 212.242188 217.902344 C 212.242188 217.902344 216.375 222.296875 219.390625 230.425781 C 220.179688 232.554688 220.625 235.613281 220.480469 238.078125 C 220.351562 240.261719 219.671875 241.992188 219.671875 241.992188 C 219.671875 241.992188 221.878906 238.425781 219.164062 230.535156 C 217.992188 227.132812 215.632812 223.058594 212.242188 217.902344 Z M 212.242188 217.902344 " fill-opacity="1" fill-rule="evenodd"/></g><path fill="#1c9500" d="M 202.464844 222.109375 C 202.464844 222.109375 216.058594 226.625 218.675781 235.511719 C 219.84375 239.460938 219.941406 242.832031 219.792969 242.5 C 219.367188 241.53125 221.300781 236.441406 202.464844 222.109375 Z M 202.464844 222.109375 " fill-opacity="1" fill-rule="evenodd"/><path fill="#20a600" d="M 202.464844 222.109375 C 202.464844 222.109375 216.199219 226.960938 218.644531 235.898438 C 219.554688 239.238281 219.792969 242.5 219.792969 242.5 C 219.792969 242.5 220.742188 229.789062 202.464844 222.109375 Z M 202.464844 222.109375 " fill-opacity="1" fill-rule="evenodd"/><path fill="#20a600" d="M 202.464844 222.109375 C 202.464844 222.109375 208.335938 224.667969 214.679688 231.332031 C 216.339844 233.078125 218.050781 235.875 218.941406 238.34375 C 219.730469 240.527344 219.792969 242.5 219.792969 242.5 C 219.792969 242.5 220.453125 238.097656 214.5 231.535156 C 211.9375 228.707031 207.929688 225.722656 202.464844 222.109375 Z M 202.464844 222.109375 " fill-opacity="1" fill-rule="evenodd"/><path fill="#20a600" d="M 226.859375 225.300781 C 226.859375 225.300781 222.132812 235.5 220.070312 244.71875 C 216.589844 260.246094 219.707031 272.601562 219.671875 273.273438 C 219.644531 273.691406 215.699219 257.386719 219.148438 244.097656 C 220.988281 236.972656 226.859375 225.300781 226.859375 225.300781 Z M 226.859375 225.300781 " fill-opacity="1" fill-rule="evenodd"/><path fill="#1c9500" d="M 277.085938 357.691406 C 277.085938 357.691406 271.472656 351.632812 266.183594 352.375 C 263.832031 352.707031 262.042969 353.460938 262.25 353.457031 C 262.859375 353.453125 265.070312 351.222656 277.085938 357.691406 Z M 277.085938 357.691406 " fill-opacity="1" fill-rule="evenodd"/><path fill="#20a600" d="M 277.085938 357.691406 C 277.085938 357.691406 271.261719 351.636719 265.988281 352.488281 C 264.019531 352.804688 262.25 353.457031 262.25 353.457031 C 262.25 353.457031 268.695312 349.929688 277.085938 357.691406 Z M 277.085938 357.691406 " fill-opacity="1" fill-rule="evenodd"/><path fill="#20a600" d="M 277.085938 357.691406 C 277.085938 357.691406 274.34375 355.21875 269.332031 353.480469 C 268.019531 353.023438 266.140625 352.792969 264.636719 352.914062 C 263.300781 353.019531 262.25 353.457031 262.25 353.457031 C 262.25 353.457031 264.40625 352.0625 269.265625 353.621094 C 271.363281 354.292969 273.886719 355.683594 277.085938 357.691406 Z M 277.085938 357.691406 " fill-opacity="1" fill-rule="evenodd"/><path fill="#1c9500" d="M 276.953125 357.410156 C 276.953125 357.410156 273.867188 350.796875 269.21875 349.996094 C 267.152344 349.640625 265.441406 349.789062 265.617188 349.84375 C 266.132812 350.003906 268.59375 348.722656 276.953125 357.410156 Z M 276.953125 357.410156 " fill-opacity="1" fill-rule="evenodd"/><path fill="#20a600" d="M 276.953125 357.410156 C 276.953125 357.410156 273.6875 350.746094 269.023438 350.035156 C 267.28125 349.773438 265.617188 349.84375 265.617188 349.84375 C 265.617188 349.84375 271.988281 348.613281 276.953125 357.410156 Z M 276.953125 357.410156 " fill-opacity="1" fill-rule="evenodd"/><path fill="#20a600" d="M 276.953125 357.410156 C 276.953125 357.410156 275.3125 354.589844 271.566406 351.773438 C 270.585938 351.035156 269.070312 350.335938 267.769531 350.027344 C 266.617188 349.757812 265.617188 349.84375 265.617188 349.84375 C 265.617188 349.84375 267.804688 349.25 271.476562 351.875 C 273.058594 353.007812 274.804688 354.855469 276.953125 357.410156 Z M 276.953125 357.410156 " fill-opacity="1" fill-rule="evenodd"/><path fill="#1c9500" d="M 282.226562 345.746094 C 282.226562 345.746094 276.796875 349.660156 276.867188 353.988281 C 276.898438 355.910156 277.324219 357.429688 277.34375 357.257812 C 277.398438 356.769531 275.824219 354.769531 282.226562 345.746094 Z M 282.226562 345.746094 " fill-opacity="1" fill-rule="evenodd"/><path fill="#20a600" d="M 282.226562 345.746094 C 282.226562 345.746094 276.777344 349.828125 276.933594 354.15625 C 276.996094 355.773438 277.34375 357.257812 277.34375 357.257812 C 277.34375 357.257812 275.148438 351.722656 282.226562 345.746094 Z M 282.226562 345.746094 " fill-opacity="1" fill-rule="evenodd"/><path fill="#20a600" d="M 282.226562 345.746094 C 282.226562 345.746094 279.964844 347.707031 278.066406 351.566406 C 277.570312 352.574219 277.195312 354.0625 277.144531 355.289062 C 277.097656 356.371094 277.34375 357.257812 277.34375 357.257812 C 277.34375 357.257812 276.433594 355.386719 278.171875 351.632812 C 278.921875 350.011719 280.292969 348.121094 282.226562 345.746094 Z M 282.226562 345.746094 " fill-opacity="1" fill-rule="evenodd"/><path fill="#1c9500" d="M 286.871094 348.324219 C 286.871094 348.324219 279.9375 349.867188 278.195312 354.117188 C 277.417969 356.007812 277.203125 357.664062 277.292969 357.511719 C 277.550781 357.054688 276.851562 354.445312 286.871094 348.324219 Z M 286.871094 348.324219 " fill-opacity="1" fill-rule="evenodd"/><path fill="#20a600" d="M 286.871094 348.324219 C 286.871094 348.324219 279.847656 350.023438 278.191406 354.3125 C 277.574219 355.914062 277.292969 357.511719 277.292969 357.511719 C 277.292969 357.511719 277.464844 351.191406 286.871094 348.324219 Z M 286.871094 348.324219 " fill-opacity="1" fill-rule="evenodd"/><path fill="#20a600" d="M 286.871094 348.324219 C 286.871094 348.324219 283.84375 349.289062 280.378906 352.257812 C 279.46875 353.035156 278.484375 354.328125 277.921875 355.5 C 277.421875 356.539062 277.292969 357.511719 277.292969 357.511719 C 277.292969 357.511719 277.1875 355.304688 280.457031 352.367188 C 281.863281 351.101562 283.992188 349.828125 286.871094 348.324219 Z M 286.871094 348.324219 " fill-opacity="1" fill-rule="evenodd"/><path fill="#20a600" d="M 274.667969 348.640625 C 274.667969 348.640625 276.484375 353.914062 277.035156 358.566406 C 277.96875 366.402344 275.808594 372.34375 275.792969 372.679688 C 275.785156 372.886719 278.554688 365.039062 277.523438 358.304688 C 276.972656 354.699219 274.667969 348.640625 274.667969 348.640625 Z M 274.667969 348.640625 " fill-opacity="1" fill-rule="evenodd"/><path fill="#1c9500" d="M 255.480469 284.140625 C 255.480469 284.140625 245.089844 276.109375 236.988281 278.664062 C 233.390625 279.800781 230.777344 281.449219 231.105469 281.390625 C 232.058594 281.222656 234.941406 277.144531 255.480469 284.140625 Z M 255.480469 284.140625 " fill-opacity="1" fill-rule="evenodd"/><path fill="#20a600" d="M 255.480469 284.140625 C 255.480469 284.140625 244.761719 276.171875 236.714844 278.890625 C 233.707031 279.90625 231.105469 281.390625 231.105469 281.390625 C 231.105469 281.390625 240.285156 274.164062 255.480469 284.140625 Z M 255.480469 284.140625 " fill-opacity="1" fill-rule="evenodd"/><path fill="#20a600" d="M 255.480469 284.140625 C 255.480469 284.140625 250.53125 280.984375 242.214844 279.570312 C 240.039062 279.199219 237.03125 279.328125 234.703125 279.910156 C 232.636719 280.429688 231.105469 281.390625 231.105469 281.390625 C 231.105469 281.390625 234.117188 278.636719 242.152344 279.808594 C 245.617188 280.3125 249.9375 281.832031 255.480469 284.140625 Z M 255.480469 284.140625 " fill-opacity="1" fill-rule="evenodd"/><path fill="#1c9500" d="M 268.179688 327.390625 C 268.179688 327.390625 277.839844 326.535156 281.859375 331.351562 C 283.644531 333.488281 284.613281 335.554688 284.429688 335.390625 C 283.90625 334.90625 283.738281 331.222656 268.179688 327.390625 Z M 268.179688 327.390625 " fill-opacity="1" fill-rule="evenodd"/><path fill="#20a600" d="M 268.179688 327.390625 C 268.179688 327.390625 278.019531 326.707031 281.941406 331.597656 C 283.40625 333.429688 284.429688 335.390625 284.429688 335.390625 C 284.429688 335.390625 281.601562 327.238281 268.179688 327.390625 Z M 268.179688 327.390625 " fill-opacity="1" fill-rule="evenodd"/><path fill="#20a600" d="M 268.179688 327.390625 C 268.179688 327.390625 272.515625 327.398438 278.25 329.832031 C 279.75 330.46875 281.566406 331.746094 282.785156 333.035156 C 283.863281 334.179688 284.429688 335.390625 284.429688 335.390625 C 284.429688 335.390625 283.65625 332.476562 278.195312 330.003906 C 275.839844 328.9375 272.546875 328.160156 268.179688 327.390625 Z M 268.179688 327.390625 " fill-opacity="1" fill-rule="evenodd"/><path fill="#1c9500" d="M 255.179688 283.691406 C 255.179688 283.691406 248.605469 274.128906 241.101562 274.09375 C 237.769531 274.074219 235.125 274.757812 235.417969 274.796875 C 236.265625 274.914062 239.789062 272.261719 255.179688 283.691406 Z M 255.179688 283.691406 " fill-opacity="1" fill-rule="evenodd"/><path fill="#20a600" d="M 255.179688 283.691406 C 255.179688 283.691406 248.3125 274.09375 240.808594 274.207031 C 238.007812 274.25 235.417969 274.796875 235.417969 274.796875 C 235.417969 274.796875 245.089844 271.199219 255.179688 283.691406 Z M 255.179688 283.691406 " fill-opacity="1" fill-rule="evenodd"/><path fill="#20a600" d="M 255.179688 283.691406 C 255.179688 283.691406 251.867188 279.699219 245.253906 276.261719 C 243.523438 275.363281 240.960938 274.660156 238.839844 274.523438 C 236.964844 274.402344 235.417969 274.796875 235.417969 274.796875 C 235.417969 274.796875 238.691406 273.292969 245.136719 276.445312 C 247.914062 277.804688 251.140625 280.25 255.179688 283.691406 Z M 255.179688 283.691406 " fill-opacity="1" fill-rule="evenodd"/><path fill="#1c9500" d="M 268.527344 327.261719 C 268.527344 327.261719 276.421875 323.9375 281.101562 326.902344 C 283.179688 328.21875 284.550781 329.695312 284.355469 329.605469 C 283.78125 329.339844 282.648438 326.285156 268.527344 327.261719 Z M 268.527344 327.261719 " fill-opacity="1" fill-rule="evenodd"/><path fill="#20a600" d="M 268.527344 327.261719 C 268.527344 327.261719 276.617188 324.03125 281.238281 327.089844 C 282.964844 328.234375 284.355469 329.605469 284.355469 329.605469 C 284.355469 329.605469 279.773438 323.515625 268.527344 327.261719 Z M 268.527344 327.261719 " fill-opacity="1" fill-rule="evenodd"/><path fill="#20a600" d="M 268.527344 327.261719 C 268.527344 327.261719 272.175781 326.101562 277.65625 326.597656 C 279.089844 326.726562 280.964844 327.3125 282.335938 328.070312 C 283.550781 328.742188 284.355469 329.605469 284.355469 329.605469 C 284.355469 329.605469 282.917969 327.367188 277.65625 326.757812 C 275.386719 326.496094 272.40625 326.734375 268.527344 327.261719 Z M 268.527344 327.261719 " fill-opacity="1" fill-rule="evenodd"/><path fill="#1c9500" d="M 260.4375 264.050781 C 260.4375 264.050781 252.945312 271.609375 254.191406 278.382812 C 254.742188 281.390625 255.808594 283.65625 255.796875 283.386719 C 255.757812 282.605469 252.761719 279.878906 260.4375 264.050781 Z M 260.4375 264.050781 " fill-opacity="1" fill-rule="evenodd"/><path fill="#20a600" d="M 260.4375 264.050781 C 260.4375 264.050781 252.960938 271.882812 254.34375 278.625 C 254.859375 281.148438 255.796875 283.386719 255.796875 283.386719 C 255.796875 283.386719 250.902344 275.28125 260.4375 264.050781 Z M 260.4375 264.050781 " fill-opacity="1" fill-rule="evenodd"/><path fill="#20a600" d="M 260.4375 264.050781 C 260.4375 264.050781 257.40625 267.71875 255.4375 274.265625 C 254.921875 275.984375 254.726562 278.414062 254.964844 280.347656 C 255.175781 282.058594 255.796875 283.386719 255.796875 283.386719 C 255.796875 283.386719 253.882812 280.691406 255.625 274.34375 C 256.375 271.605469 258.027344 268.28125 260.4375 264.050781 Z M 260.4375 264.050781 " fill-opacity="1" fill-rule="evenodd"/><path fill="#1c9500" d="M 273.089844 312.949219 C 273.089844 312.949219 274.738281 320.632812 271.269531 324.347656 C 269.726562 326 268.160156 326.984375 268.277344 326.820312 C 268.613281 326.347656 271.558594 325.847656 273.089844 312.949219 Z M 273.089844 312.949219 " fill-opacity="1" fill-rule="evenodd"/><path fill="#20a600" d="M 273.089844 312.949219 C 273.089844 312.949219 274.621094 320.796875 271.078125 324.4375 C 269.75 325.800781 268.277344 326.820312 268.277344 326.820312 C 268.277344 326.820312 274.546875 323.730469 273.089844 312.949219 Z M 273.089844 312.949219 " fill-opacity="1" fill-rule="evenodd"/><path fill="#20a600" d="M 273.089844 312.949219 C 273.089844 312.949219 273.515625 316.4375 272.132812 321.292969 C 271.769531 322.5625 270.921875 324.152344 270.003906 325.261719 C 269.191406 326.242188 268.277344 326.820312 268.277344 326.820312 C 268.277344 326.820312 270.542969 325.90625 271.984375 321.265625 C 272.609375 319.265625 272.90625 316.539062 273.089844 312.949219 Z M 273.089844 312.949219 " fill-opacity="1" fill-rule="evenodd"/><path fill="#1c9500" d="M 268.390625 266.882812 C 268.390625 266.882812 257.921875 271.121094 256.304688 278.246094 C 255.585938 281.414062 255.675781 284.070312 255.777344 283.804688 C 256.0625 283.019531 254.285156 279.109375 268.390625 266.882812 Z M 268.390625 266.882812 " fill-opacity="1" fill-rule="evenodd"/><path fill="#20a600" d="M 268.390625 266.882812 C 268.390625 266.882812 257.824219 271.390625 256.351562 278.550781 C 255.800781 281.222656 255.777344 283.804688 255.777344 283.804688 C 255.777344 283.804688 254.390625 273.847656 268.390625 266.882812 Z M 268.390625 266.882812 " fill-opacity="1" fill-rule="evenodd"/><path fill="#20a600" d="M 268.390625 266.882812 C 268.390625 266.882812 263.902344 269.191406 259.242188 274.757812 C 258.019531 276.214844 256.8125 278.503906 256.238281 280.488281 C 255.726562 282.246094 255.777344 283.804688 255.777344 283.804688 C 255.777344 283.804688 255.035156 280.371094 259.390625 274.90625 C 261.269531 272.550781 264.269531 270 268.390625 266.882812 Z M 268.390625 266.882812 " fill-opacity="1" fill-rule="evenodd"/><path fill="#1c9500" d="M 267.046875 311.542969 C 267.046875 311.542969 271.871094 318.351562 270.039062 323.425781 C 269.222656 325.683594 268.109375 327.296875 268.15625 327.089844 C 268.285156 326.488281 270.949219 324.765625 267.046875 311.542969 Z M 267.046875 311.542969 " fill-opacity="1" fill-rule="evenodd"/><path fill="#20a600" d="M 267.046875 311.542969 C 267.046875 311.542969 271.820312 318.558594 269.890625 323.59375 C 269.167969 325.476562 268.15625 327.089844 268.15625 327.089844 C 268.15625 327.089844 272.980469 321.449219 267.046875 311.542969 Z M 267.046875 311.542969 " fill-opacity="1" fill-rule="evenodd"/><path fill="#20a600" d="M 267.046875 311.542969 C 267.046875 311.542969 268.917969 314.769531 269.601562 320.085938 C 269.78125 321.476562 269.621094 323.382812 269.1875 324.847656 C 268.804688 326.144531 268.15625 327.089844 268.15625 327.089844 C 268.15625 327.089844 269.980469 325.25 269.449219 320.121094 C 269.21875 317.90625 268.367188 315.125 267.046875 311.542969 Z M 267.046875 311.542969 " fill-opacity="1" fill-rule="evenodd"/><path fill="#20a600" d="M 329.183594 264.976562 C 329.816406 265.597656 331.570312 267.289062 333.429688 268.421875 C 335.621094 269.757812 337.589844 270.558594 337.75 270.65625 C 337.851562 270.71875 337.539062 271.320312 337.347656 271.257812 C 336.707031 271.035156 335.085938 270.296875 333.425781 269.296875 C 331.160156 267.929688 329.285156 266.085938 328.761719 265.527344 C 328.644531 265.398438 329.054688 264.855469 329.183594 264.976562 Z M 329.183594 264.976562 " fill-opacity="1" fill-rule="evenodd"/><path fill="#20a600" d="M 309.125 296.9375 C 309.78125 297.578125 311.59375 299.332031 313.519531 300.503906 C 315.789062 301.882812 317.824219 302.714844 317.996094 302.816406 C 318.097656 302.878906 317.773438 303.503906 317.578125 303.4375 C 316.914062 303.207031 315.234375 302.441406 313.515625 301.40625 C 311.171875 299.992188 309.230469 298.082031 308.6875 297.503906 C 308.566406 297.371094 308.992188 296.808594 309.125 296.9375 Z M 309.125 296.9375 " fill-opacity="1" fill-rule="evenodd"/><path fill="#20a600" d="M 290.46875 333.132812 C 291.210938 333.65625 293.265625 335.082031 295.332031 335.921875 C 297.769531 336.910156 299.894531 337.398438 300.074219 337.472656 C 300.1875 337.519531 299.96875 338.179688 299.765625 338.144531 C 299.082031 338.027344 297.316406 337.546875 295.472656 336.804688 C 292.957031 335.792969 290.753906 334.238281 290.132812 333.757812 C 289.992188 333.648438 290.320312 333.027344 290.46875 333.132812 Z M 290.46875 333.132812 " fill-opacity="1" fill-rule="evenodd"/><path fill="#20a600" d="M 249.292969 270.589844 C 249.292969 270.589844 253.523438 278.378906 255.613281 285.535156 C 259.128906 297.582031 257.292969 307.464844 257.355469 307.992188 C 257.398438 308.320312 259.6875 295.285156 256.304688 285 C 254.5 279.484375 249.292969 270.589844 249.292969 270.589844 Z M 249.292969 270.589844 " fill-opacity="1" fill-rule="evenodd"/><path fill="#20a600" d="M 277.433594 321.441406 C 277.433594 321.441406 271.699219 324.597656 267.550781 328.214844 C 260.570312 334.304688 257.773438 341.183594 257.527344 341.484375 C 257.371094 341.671875 261.136719 332.65625 267.335938 327.605469 C 270.652344 324.898438 277.433594 321.441406 277.433594 321.441406 Z M 277.433594 321.441406 " fill-opacity="1" fill-rule="evenodd"/><path fill="#20a600" d="M 276.015625 371.996094 C 276.832031 372.398438 279.09375 373.476562 281.277344 373.976562 C 283.851562 374.5625 286.035156 374.703125 286.226562 374.746094 C 286.34375 374.773438 286.230469 375.464844 286.027344 375.464844 C 285.328125 375.457031 283.503906 375.265625 281.5625 374.828125 C 278.90625 374.230469 276.472656 373.046875 275.78125 372.671875 C 275.628906 372.585938 275.847656 371.917969 276.015625 371.996094 Z M 276.015625 371.996094 " fill-opacity="1" fill-rule="evenodd"/><path fill="#20a600" d="M 265.261719 411.941406 C 266.085938 412.277344 268.363281 413.183594 270.527344 413.53125 C 273.078125 413.9375 275.214844 413.933594 275.40625 413.964844 C 275.523438 413.980469 275.457031 414.664062 275.257812 414.675781 C 274.578125 414.714844 272.785156 414.644531 270.859375 414.34375 C 268.226562 413.933594 265.777344 412.933594 265.078125 412.613281 C 264.921875 412.539062 265.097656 411.875 265.261719 411.941406 Z M 265.261719 411.941406 " fill-opacity="1" fill-rule="evenodd"/><path fill="#20a600" d="M 257.144531 451.628906 C 257.996094 451.914062 260.347656 452.675781 262.546875 452.878906 C 265.136719 453.117188 267.289062 452.972656 267.480469 452.988281 C 267.597656 453 267.582031 453.6875 267.378906 453.714844 C 266.695312 453.796875 264.890625 453.847656 262.933594 453.675781 C 260.261719 453.4375 257.730469 452.59375 257.003906 452.316406 C 256.84375 452.253906 256.972656 451.574219 257.144531 451.628906 Z M 257.144531 451.628906 " fill-opacity="1" fill-rule="evenodd"/><path fill="#20a600" d="M 249.804688 494.097656 C 250.742188 494.433594 253.332031 495.339844 255.769531 495.621094 C 258.644531 495.953125 261.046875 495.84375 261.257812 495.867188 C 261.390625 495.882812 261.34375 496.648438 261.117188 496.675781 C 260.355469 496.75 258.34375 496.757812 256.171875 496.515625 C 253.207031 496.183594 250.417969 495.183594 249.625 494.855469 C 249.445312 494.78125 249.617188 494.03125 249.804688 494.097656 Z M 249.804688 494.097656 " fill-opacity="1" fill-rule="evenodd"/><path fill="#2d7904" d="M 206.539062 521.492188 C 206.539062 521.492188 209.234375 445.335938 192.699219 354.984375 C 181.542969 294.007812 164.25 256.632812 163.640625 254.851562 C 162.476562 251.476562 152.46875 255.207031 154.992188 258.886719 C 158.101562 263.414062 173.824219 303.714844 184.300781 364.378906 C 199.09375 450.058594 194.851562 521.574219 194.851562 521.574219 Z M 206.539062 521.492188 " fill-opacity="1" fill-rule="evenodd"/><path fill="#20a600" d="M 195.421875 491.351562 C 196.382812 491.507812 199.03125 491.90625 201.417969 491.738281 C 204.234375 491.539062 206.507812 491.003906 206.71875 490.988281 C 206.847656 490.980469 206.949219 491.71875 206.734375 491.785156 C 206.023438 491.992188 204.097656 492.363281 201.972656 492.523438 C 199.070312 492.738281 196.214844 492.28125 195.394531 492.113281 C 195.207031 492.074219 195.226562 491.324219 195.421875 491.351562 Z M 195.421875 491.351562 " fill-opacity="1" fill-rule="evenodd"/><path fill="#20a600" d="M 193.976562 449.539062 C 194.949219 449.59375 197.625 449.71875 199.984375 449.304688 C 202.761719 448.816406 204.96875 448.046875 205.175781 448.011719 C 205.304688 447.988281 205.480469 448.714844 205.277344 448.800781 C 204.585938 449.082031 202.710938 449.648438 200.613281 450.027344 C 197.75 450.542969 194.863281 450.382812 194.027344 450.300781 C 193.839844 450.277344 193.78125 449.53125 193.976562 449.539062 Z M 193.976562 449.539062 " fill-opacity="1" fill-rule="evenodd"/><path fill="#20a600" d="M 190.976562 412.679688 C 191.949219 412.691406 194.628906 412.695312 196.964844 412.175781 C 199.71875 411.5625 201.890625 410.695312 202.09375 410.648438 C 202.222656 410.621094 202.429688 411.335938 202.230469 411.433594 C 201.554688 411.742188 199.707031 412.394531 197.628906 412.867188 C 194.792969 413.511719 191.902344 413.480469 191.0625 413.4375 C 190.871094 413.425781 190.78125 412.679688 190.976562 412.679688 Z M 190.976562 412.679688 " fill-opacity="1" fill-rule="evenodd"/><path fill="#20a600" d="M 185.378906 379.136719 C 186.351562 379.183594 189.027344 379.285156 191.382812 378.855469 C 194.15625 378.34375 196.359375 377.558594 196.5625 377.519531 C 196.691406 377.496094 196.875 378.21875 196.671875 378.304688 C 195.984375 378.59375 194.113281 379.175781 192.019531 379.570312 C 189.160156 380.109375 186.273438 379.972656 185.4375 379.898438 C 185.246094 379.878906 185.183594 379.128906 185.378906 379.136719 Z M 185.378906 379.136719 " fill-opacity="1" fill-rule="evenodd"/><path fill="#20a600" d="M 180.839844 345.898438 C 181.699219 345.925781 184.070312 345.980469 186.148438 345.5625 C 188.597656 345.070312 190.535156 344.34375 190.714844 344.308594 C 190.828125 344.285156 191 344.921875 190.820312 345.003906 C 190.21875 345.265625 188.570312 345.808594 186.722656 346.1875 C 184.199219 346.707031 181.640625 346.625 180.898438 346.570312 C 180.730469 346.558594 180.664062 345.894531 180.839844 345.898438 Z M 180.839844 345.898438 " fill-opacity="1" fill-rule="evenodd"/><path fill="#20a600" d="M 173.203125 312.957031 C 174.050781 312.894531 176.371094 312.707031 178.355469 312.089844 C 180.699219 311.359375 182.515625 310.453125 182.691406 310.398438 C 182.796875 310.363281 183.03125 310.972656 182.863281 311.066406 C 182.300781 311.386719 180.746094 312.082031 178.980469 312.640625 C 176.570312 313.402344 174.0625 313.585938 173.332031 313.605469 C 173.167969 313.609375 173.035156 312.96875 173.203125 312.957031 Z M 173.203125 312.957031 " fill-opacity="1" fill-rule="evenodd"/><path fill="#20a600" d="M 163.996094 281.679688 C 164.800781 281.539062 167.007812 281.125 168.851562 280.335938 C 171.023438 279.402344 172.679688 278.351562 172.839844 278.28125 C 172.9375 278.238281 173.222656 278.796875 173.074219 278.90625 C 172.566406 279.265625 171.144531 280.089844 169.503906 280.800781 C 167.269531 281.773438 164.882812 282.199219 164.183594 282.289062 C 164.027344 282.308594 163.835938 281.710938 163.996094 281.679688 Z M 163.996094 281.679688 " fill-opacity="1" fill-rule="evenodd"/><path fill="#1c9500" d="M 231.984375 521.492188 C 231.984375 521.492188 229.285156 445.335938 245.824219 354.984375 C 256.980469 294.007812 274.269531 256.632812 274.882812 254.851562 C 276.042969 251.476562 286.050781 255.207031 283.527344 258.886719 C 280.417969 263.414062 264.699219 303.714844 254.21875 364.378906 C 239.425781 450.058594 243.667969 521.574219 243.667969 521.574219 Z M 231.984375 521.492188 " fill-opacity="1" fill-rule="evenodd"/><path fill="#1c9500" d="M 219.347656 521.609375 C 219.347656 521.609375 219.25 484.621094 201.105469 404.765625 C 186.878906 342.175781 146.726562 302.074219 145.507812 300.917969 C 143.050781 298.59375 138.019531 304.113281 140.269531 307.390625 C 143.039062 311.429688 180.972656 355.394531 192.160156 409.132812 C 205.984375 475.53125 208.402344 521.609375 208.402344 521.609375 Z M 219.347656 521.609375 " fill-opacity="1" fill-rule="evenodd"/><path fill="#20a600" d="M 242.570312 521.589844 C 242.570312 521.589844 249.574219 477.84375 250.425781 477.820312 C 251.269531 477.796875 257.84375 521.589844 257.84375 521.589844 Z M 242.570312 521.589844 " fill-opacity="1" fill-rule="evenodd"/><path fill="#c59767" d="M 242.257812 521.589844 L 247.542969 489.734375 C 247.542969 489.734375 248.691406 491.628906 250.425781 492.867188 C 252.183594 494.125 253.539062 494.648438 253.539062 494.648438 Z M 242.257812 521.589844 " fill-opacity="1" fill-rule="evenodd"/><path fill="#d4b785" d="M 258.273438 521.585938 L 254.039062 493.613281 C 254.039062 493.613281 252.617188 496.03125 250.007812 498.402344 C 248.664062 499.621094 245.578125 501.210938 245.578125 501.210938 Z M 258.273438 521.585938 " fill-opacity="1" fill-rule="evenodd"/><path fill="#c59767" d="M 242.257812 521.589844 L 245.449219 500.957031 C 245.449219 500.957031 246.710938 502.472656 250.207031 504.398438 C 252.882812 505.871094 256.097656 506.609375 256.097656 506.609375 Z M 242.257812 521.589844 " fill-opacity="1" fill-rule="evenodd"/><path fill="#d4b785" d="M 258.988281 521.585938 L 256.402344 506.355469 C 256.402344 506.355469 253.128906 508.976562 250.210938 510.402344 C 247.738281 511.601562 243.324219 512.625 243.324219 512.625 L 249.628906 517.945312 Z M 258.988281 521.585938 " fill-opacity="1" fill-rule="evenodd"/><path fill="#c59767" d="M 241.859375 521.589844 L 243.113281 512.101562 C 243.113281 512.101562 246 514.996094 249.507812 517.160156 C 253.277344 519.492188 258.988281 521.589844 258.988281 521.589844 Z M 241.859375 521.589844 " fill-opacity="1" fill-rule="evenodd"/><path fill="#20a600" d="M 185.496094 521.597656 C 185.496094 521.597656 190.730469 488.90625 191.367188 488.886719 C 192 488.871094 196.914062 521.597656 196.914062 521.597656 Z M 185.496094 521.597656 " fill-opacity="1" fill-rule="evenodd"/><path fill="#c59767" d="M 185.265625 521.597656 L 189.214844 497.789062 C 189.214844 497.789062 190.070312 499.207031 191.367188 500.132812 C 192.683594 501.074219 193.695312 501.464844 193.695312 501.464844 Z M 185.265625 521.597656 " fill-opacity="1" fill-rule="evenodd"/><path fill="#d4b785" d="M 197.238281 521.578125 L 194.074219 500.671875 C 194.074219 500.671875 193.011719 502.480469 191.0625 504.25 C 190.058594 505.164062 187.75 506.351562 187.75 506.351562 Z M 197.238281 521.578125 " fill-opacity="1" fill-rule="evenodd"/><path fill="#c59767" d="M 185.265625 521.597656 L 187.648438 506.179688 C 187.648438 506.179688 188.59375 507.3125 191.203125 508.75 C 193.203125 509.851562 195.609375 510.402344 195.609375 510.402344 Z M 185.265625 521.597656 " fill-opacity="1" fill-rule="evenodd"/><path fill="#d4b785" d="M 197.773438 521.578125 L 195.839844 510.195312 C 195.839844 510.195312 193.394531 512.152344 191.214844 513.21875 C 189.367188 514.117188 186.066406 514.882812 186.066406 514.882812 L 190.777344 518.855469 Z M 197.773438 521.578125 " fill-opacity="1" fill-rule="evenodd"/><path fill="#c59767" d="M 184.964844 521.597656 L 185.902344 514.507812 C 185.902344 514.507812 188.058594 516.671875 190.679688 518.289062 C 193.5 520.03125 197.765625 521.597656 197.765625 521.597656 Z M 184.964844 521.597656 " fill-opacity="1" fill-rule="evenodd"/><path fill="#20a600" d="M 277.933594 523.894531 C 278.414062 521.816406 280.988281 517.605469 282.050781 515.769531 C 282.402344 515.15625 282.78125 514.558594 283.191406 513.980469 C 283.398438 513.683594 284.1875 513.132812 283.828125 513.101562 C 281.695312 512.941406 279.070312 513.882812 277.054688 514.441406 C 276.355469 514.632812 275.421875 515.105469 274.703125 515.097656 C 274.546875 515.09375 274.757812 514.785156 274.792969 514.632812 C 274.863281 514.308594 274.945312 513.988281 275.035156 513.667969 C 275.429688 512.257812 275.945312 510.910156 276.507812 509.558594 C 276.59375 509.359375 277.148438 508.457031 277.082031 508.304688 C 277.019531 508.152344 274.757812 508.851562 274.484375 508.941406 C 271.667969 509.863281 269.234375 511.488281 267.027344 513.4375 C 266.417969 513.976562 265.820312 514.53125 265.21875 515.078125 C 264.945312 515.328125 264.539062 516.160156 264.386719 515.820312 C 264.1875 515.363281 264.398438 514.375 264.359375 513.859375 C 264.261719 512.574219 264.03125 511.210938 263.476562 510.042969 C 263.375 509.820312 262.683594 508.394531 262.476562 508.441406 C 262.4375 508.453125 262.3125 509.117188 262.292969 509.179688 C 262.066406 510.003906 261.765625 510.8125 261.410156 511.585938 C 260.476562 513.597656 258.355469 516.78125 256.054688 517.359375 C 255.820312 517.417969 255.964844 516.886719 255.90625 516.652344 C 255.769531 516.132812 255.589844 515.613281 255.355469 515.128906 C 254.636719 513.660156 253.414062 512.128906 251.691406 511.898438 C 251.628906 511.890625 251.121094 512.976562 251.054688 513.089844 C 250.605469 513.84375 250.003906 514.539062 249.320312 515.089844 C 249.277344 515.121094 247.375 516.25 247.351562 515.964844 C 247.035156 512.15625 248.484375 508.785156 250.421875 505.605469 C 251.015625 504.632812 252.6875 503.257812 252.90625 502.265625 C 252.941406 502.113281 252.617188 502.363281 252.46875 502.414062 C 252.121094 502.53125 251.773438 502.65625 251.425781 502.78125 C 250.496094 503.128906 249.585938 503.53125 248.699219 503.972656 C 245.683594 505.480469 243.210938 507.503906 240.683594 509.707031 C 239.769531 510.5 238.828125 511.25 237.847656 511.964844 C 237.476562 512.238281 237.074219 512.484375 236.671875 512.710938 C 236.539062 512.785156 236.300781 513.074219 236.269531 512.925781 C 236 511.675781 235.691406 509.234375 234.75 508.382812 C 234.441406 508.105469 234.421875 509.148438 234.25 509.53125 C 233.878906 510.375 233.492188 511.207031 232.996094 511.988281 C 231.722656 514.003906 228.976562 516.425781 226.402344 515.230469 C 226.070312 515.078125 226.027344 514.023438 225.972656 513.671875 C 225.71875 511.953125 225.878906 510.273438 226.15625 508.5625 C 226.191406 508.359375 226.59375 506.808594 226.476562 506.714844 C 226.308594 506.574219 224.453125 508.03125 224.179688 508.242188 C 222.429688 509.566406 220.976562 511.160156 219.433594 512.707031 C 218.886719 513.25 218.167969 514.167969 217.46875 514.515625 C 217.316406 514.59375 217.496094 514.167969 217.507812 513.996094 C 217.523438 513.722656 217.53125 513.453125 217.535156 513.179688 C 217.550781 512.269531 217.503906 511.359375 217.378906 510.457031 C 217.015625 507.789062 216.332031 504.117188 214.722656 501.894531 C 214.605469 501.734375 214.746094 502.292969 214.753906 502.492188 C 214.757812 502.902344 214.742188 503.316406 214.722656 503.730469 C 214.644531 505.171875 214.539062 506.566406 214.191406 507.976562 C 213.292969 511.59375 210.679688 516.589844 206.101562 515.820312 C 205.140625 515.660156 205.5 514.597656 205.550781 513.777344 C 205.683594 511.59375 206.625 509.882812 207.417969 507.894531 C 207.484375 507.738281 207.132812 508.066406 206.988281 508.152344 C 206.71875 508.3125 206.449219 508.46875 206.179688 508.632812 C 205.328125 509.15625 204.503906 509.730469 203.652344 510.253906 C 201.007812 511.867188 198.101562 513.675781 194.984375 514.128906 C 194.765625 514.164062 194.160156 514.316406 193.957031 514.191406 C 193.753906 514.070312 193.726562 512.742188 193.675781 512.457031 C 193.375 510.761719 193.246094 508.363281 192.375 506.910156 C 192.199219 506.613281 192.125 507.550781 191.988281 507.871094 C 191.722656 508.507812 191.457031 509.144531 191.171875 509.773438 C 190.347656 511.5625 189.039062 514.414062 186.976562 515.042969 C 186.773438 515.101562 186.109375 513.054688 186.085938 512.976562 C 185.347656 510.726562 185.046875 507.824219 183.726562 505.855469 C 183.542969 505.570312 183.691406 506.527344 183.664062 506.863281 C 183.605469 507.535156 183.542969 508.203125 183.441406 508.867188 C 183.121094 510.914062 182.742188 513.851562 181.332031 515.46875 C 181.109375 515.722656 181.039062 514.863281 180.902344 514.550781 C 180.636719 513.941406 180.375 513.324219 180.089844 512.71875 C 179.339844 511.105469 178.484375 509.558594 177.339844 508.1875 C 177.085938 507.886719 176.507812 506.996094 176.117188 506.898438 C 175.769531 506.808594 176.214844 507.605469 176.25 507.957031 C 176.320312 508.648438 176.355469 509.335938 176.398438 510.027344 C 176.519531 512.09375 176.566406 514.15625 175.988281 516.167969 C 175.875 516.554688 175.542969 517.761719 175.136719 517.9375 C 174.984375 518 173.722656 516.671875 173.503906 516.484375 C 172.011719 515.195312 170.34375 513.949219 168.421875 513.386719 C 168.113281 513.296875 166.636719 512.832031 166.417969 513.066406 C 166.402344 513.085938 166.78125 513.71875 166.789062 513.734375 C 167.125 514.347656 167.433594 514.972656 167.734375 515.605469 C 169.035156 518.328125 171.191406 523.816406 171.191406 523.816406 Z M 277.933594 523.894531 " fill-opacity="1" fill-rule="evenodd"/><path fill="#20a600" d="M 155.277344 327.777344 C 156.019531 327.375 158.050781 326.257812 159.601562 324.882812 C 161.429688 323.265625 162.710938 321.699219 162.84375 321.578125 C 162.929688 321.503906 163.386719 321.957031 163.277344 322.113281 C 162.894531 322.632812 161.769531 323.902344 160.394531 325.128906 C 158.515625 326.804688 156.3125 327.996094 155.660156 328.3125 C 155.511719 328.382812 155.128906 327.859375 155.277344 327.777344 Z M 155.277344 327.777344 " fill-opacity="1" fill-rule="evenodd"/><path fill="#20a600" d="M 170.753906 352.992188 C 171.550781 352.640625 173.734375 351.664062 175.449219 350.382812 C 177.464844 348.875 178.917969 347.375 179.066406 347.261719 C 179.160156 347.191406 179.59375 347.699219 179.464844 347.847656 C 179.027344 348.351562 177.761719 349.558594 176.242188 350.703125 C 174.167969 352.269531 171.800781 353.304688 171.101562 353.574219 C 170.941406 353.636719 170.59375 353.0625 170.753906 352.992188 Z M 170.753906 352.992188 " fill-opacity="1" fill-rule="evenodd"/><path fill="#20a600" d="M 183.929688 381.433594 C 184.753906 381.1875 187.019531 380.5 188.859375 379.453125 C 191.027344 378.222656 192.640625 376.929688 192.800781 376.835938 C 192.898438 376.78125 193.261719 377.332031 193.117188 377.464844 C 192.628906 377.902344 191.234375 378.933594 189.601562 379.867188 C 187.367188 381.144531 184.917969 381.871094 184.195312 382.050781 C 184.035156 382.089844 183.765625 381.480469 183.929688 381.433594 Z M 183.929688 381.433594 " fill-opacity="1" fill-rule="evenodd"/><path fill="#20a600" d="M 192.59375 411.359375 C 193.441406 411.25 195.761719 410.9375 197.726562 410.210938 C 200.039062 409.351562 201.816406 408.347656 201.988281 408.28125 C 202.097656 408.242188 202.363281 408.839844 202.199219 408.945312 C 201.652344 409.296875 200.125 410.078125 198.382812 410.734375 C 196 411.625 193.492188 411.941406 192.757812 412.003906 C 192.59375 412.015625 192.425781 411.378906 192.59375 411.359375 Z M 192.59375 411.359375 " fill-opacity="1" fill-rule="evenodd"/><path fill="#20a600" d="M 199.164062 446.371094 C 200.066406 446.320312 202.542969 446.164062 204.675781 445.542969 C 207.183594 444.808594 209.140625 443.878906 209.328125 443.820312 C 209.441406 443.789062 209.679688 444.4375 209.5 444.539062 C 208.894531 444.867188 207.222656 445.582031 205.332031 446.144531 C 202.746094 446.910156 200.066406 447.054688 199.289062 447.066406 C 199.113281 447.066406 198.984375 446.382812 199.164062 446.371094 Z M 199.164062 446.371094 " fill-opacity="1" fill-rule="evenodd"/><path fill="#20a600" d="M 204.796875 485.230469 C 205.773438 485.222656 208.449219 485.175781 210.777344 484.609375 C 213.519531 483.945312 215.671875 483.039062 215.875 482.988281 C 216 482.957031 216.222656 483.671875 216.027344 483.769531 C 215.355469 484.09375 213.519531 484.78125 211.453125 485.289062 C 208.628906 485.988281 205.738281 486.011719 204.898438 485.984375 C 204.707031 485.976562 204.601562 485.234375 204.796875 485.230469 Z M 204.796875 485.230469 " fill-opacity="1" fill-rule="evenodd"/><path fill="#20a600" d="M 263.191406 286.15625 C 263.898438 286.554688 265.847656 287.640625 267.761719 288.207031 C 270.015625 288.871094 271.945312 289.117188 272.113281 289.167969 C 272.21875 289.195312 272.082031 289.804688 271.898438 289.792969 C 271.28125 289.746094 269.667969 289.476562 267.964844 288.980469 C 265.636719 288.300781 263.542969 287.113281 262.949219 286.742188 C 262.816406 286.65625 263.050781 286.078125 263.191406 286.15625 Z M 263.191406 286.15625 " fill-opacity="1" fill-rule="evenodd"/><path fill="#20a600" d="M 253.359375 320.195312 C 254.121094 320.566406 256.222656 321.578125 258.253906 322.046875 C 260.648438 322.601562 262.675781 322.738281 262.855469 322.777344 C 262.964844 322.800781 262.859375 323.445312 262.667969 323.445312 C 262.019531 323.433594 260.324219 323.25 258.515625 322.839844 C 256.046875 322.28125 253.785156 321.171875 253.144531 320.820312 C 253 320.738281 253.207031 320.121094 253.359375 320.195312 Z M 253.359375 320.195312 " fill-opacity="1" fill-rule="evenodd"/><path fill="#20a600" d="M 245.921875 354.453125 C 246.71875 354.773438 248.921875 355.632812 251.011719 355.953125 C 253.472656 356.328125 255.535156 356.3125 255.71875 356.339844 C 255.832031 356.355469 255.773438 357.011719 255.578125 357.027344 C 254.921875 357.066406 253.195312 357.011719 251.335938 356.734375 C 248.792969 356.355469 246.425781 355.40625 245.75 355.101562 C 245.597656 355.03125 245.761719 354.390625 245.921875 354.453125 Z M 245.921875 354.453125 " fill-opacity="1" fill-rule="evenodd"/><path fill="#20a600" d="M 240.085938 390.683594 C 240.910156 390.949219 243.179688 391.65625 245.296875 391.828125 C 247.792969 392.03125 249.859375 391.867188 250.046875 391.878906 C 250.160156 391.886719 250.148438 392.550781 249.957031 392.578125 C 249.300781 392.667969 247.5625 392.734375 245.675781 392.589844 C 243.101562 392.390625 240.660156 391.605469 239.960938 391.347656 C 239.800781 391.289062 239.921875 390.632812 240.085938 390.683594 Z M 240.085938 390.683594 " fill-opacity="1" fill-rule="evenodd"/><path fill="#20a600" d="M 235.527344 431.109375 C 236.386719 431.355469 238.753906 432.019531 240.949219 432.136719 C 243.53125 432.273438 245.664062 432.042969 245.855469 432.050781 C 245.976562 432.054688 245.984375 432.742188 245.785156 432.777344 C 245.109375 432.886719 243.316406 433.007812 241.363281 432.910156 C 238.699219 432.78125 236.148438 432.042969 235.417969 431.796875 C 235.253906 431.742188 235.355469 431.058594 235.527344 431.109375 Z M 235.527344 431.109375 " fill-opacity="1" fill-rule="evenodd"/><path fill="#20a600" d="M 232.648438 473.351562 C 233.554688 473.574219 236.050781 474.164062 238.339844 474.1875 C 241.039062 474.214844 243.253906 473.882812 243.453125 473.882812 C 243.578125 473.886719 243.617188 474.601562 243.410156 474.644531 C 242.710938 474.789062 240.847656 474.992188 238.808594 474.976562 C 236.023438 474.957031 233.335938 474.300781 232.566406 474.074219 C 232.390625 474.023438 232.46875 473.308594 232.648438 473.351562 Z M 232.648438 473.351562 " fill-opacity="1" fill-rule="evenodd"/><path fill="#20a600" d="M 231.828125 504.300781 C 232.792969 504.464844 235.449219 504.894531 237.847656 504.75 C 240.675781 504.582031 242.964844 504.066406 243.175781 504.054688 C 243.304688 504.046875 243.398438 504.789062 243.1875 504.851562 C 242.464844 505.054688 240.53125 505.40625 238.394531 505.542969 C 235.480469 505.730469 232.617188 505.242188 231.789062 505.0625 C 231.605469 505.019531 231.632812 504.265625 231.828125 504.300781 Z M 231.828125 504.300781 " fill-opacity="1" fill-rule="evenodd"/><path fill="#20a600" d="M 209.972656 273.585938 C 210.804688 273.6875 213.097656 273.945312 215.148438 273.722656 C 217.5625 273.460938 219.503906 272.929688 219.683594 272.90625 C 219.792969 272.894531 219.90625 273.53125 219.726562 273.589844 C 219.117188 273.792969 217.472656 274.175781 215.648438 274.378906 C 213.160156 274.660156 210.6875 274.359375 209.972656 274.238281 C 209.8125 274.210938 209.804688 273.566406 209.972656 273.585938 Z M 209.972656 273.585938 " fill-opacity="1" fill-rule="evenodd"/><path fill="#20a600" d="M 211.730469 307.976562 C 212.589844 308.078125 214.953125 308.347656 217.070312 308.117188 C 219.5625 307.847656 221.566406 307.296875 221.75 307.277344 C 221.863281 307.265625 221.980469 307.917969 221.792969 307.980469 C 221.164062 308.191406 219.46875 308.585938 217.585938 308.796875 C 215.019531 309.085938 212.46875 308.773438 211.730469 308.652344 C 211.5625 308.621094 211.558594 307.953125 211.730469 307.976562 Z M 211.730469 307.976562 " fill-opacity="1" fill-rule="evenodd"/><path fill="#20a600" d="M 213.742188 345.898438 C 214.621094 346.003906 217.042969 346.28125 219.210938 346.046875 C 221.761719 345.769531 223.816406 345.203125 224.003906 345.183594 C 224.121094 345.171875 224.238281 345.839844 224.046875 345.90625 C 223.40625 346.121094 221.667969 346.523438 219.742188 346.738281 C 217.109375 347.035156 214.496094 346.714844 213.742188 346.589844 C 213.570312 346.5625 213.5625 345.878906 213.742188 345.898438 Z M 213.742188 345.898438 " fill-opacity="1" fill-rule="evenodd"/><path fill="#20a600" d="M 215.652344 384.734375 C 216.5625 384.84375 219.0625 385.128906 221.296875 384.886719 C 223.933594 384.601562 226.050781 384.019531 226.246094 383.996094 C 226.367188 383.984375 226.488281 384.675781 226.292969 384.742188 C 225.628906 384.960938 223.835938 385.378906 221.84375 385.601562 C 219.128906 385.90625 216.433594 385.578125 215.652344 385.449219 C 215.476562 385.417969 215.46875 384.714844 215.652344 384.734375 Z M 215.652344 384.734375 " fill-opacity="1" fill-rule="evenodd"/><path fill="#20a600" d="M 217.652344 424.882812 C 218.589844 425 221.171875 425.289062 223.480469 425.042969 C 226.199219 424.746094 228.382812 424.144531 228.585938 424.121094 C 228.710938 424.109375 228.835938 424.824219 228.632812 424.890625 C 227.949219 425.121094 226.097656 425.550781 224.042969 425.78125 C 221.242188 426.09375 218.457031 425.757812 217.652344 425.621094 C 217.472656 425.589844 217.464844 424.863281 217.652344 424.882812 Z M 217.652344 424.882812 " fill-opacity="1" fill-rule="evenodd"/><path fill="#20a600" d="M 219.742188 466.28125 C 220.710938 466.398438 223.375 466.699219 225.757812 466.441406 C 228.5625 466.136719 230.820312 465.515625 231.027344 465.492188 C 231.15625 465.480469 231.285156 466.214844 231.078125 466.289062 C 230.371094 466.523438 228.460938 466.964844 226.339844 467.203125 C 223.445312 467.527344 220.574219 467.179688 219.746094 467.042969 C 219.558594 467.007812 219.550781 466.257812 219.742188 466.28125 Z M 219.742188 466.28125 " fill-opacity="1" fill-rule="evenodd"/><path fill="#1c9500" d="M 200.980469 279.867188 C 200.980469 279.867188 185.472656 273.816406 176.53125 279.820312 C 172.558594 282.484375 169.972656 285.425781 170.351562 285.238281 C 171.449219 284.691406 173.496094 278.703125 200.980469 279.867188 Z M 200.980469 279.867188 " fill-opacity="1" fill-rule="evenodd"/><path fill="#20a600" d="M 200.980469 279.867188 C 200.980469 279.867188 185.097656 274.007812 176.277344 280.191406 C 172.984375 282.5 170.351562 285.238281 170.351562 285.238281 C 170.351562 285.238281 178.933594 273.167969 200.980469 279.867188 Z M 200.980469 279.867188 " fill-opacity="1" fill-rule="evenodd"/><path fill="#20a600" d="M 200.980469 279.867188 C 200.980469 279.867188 193.835938 277.800781 183.214844 279.050781 C 180.433594 279.378906 176.820312 280.609375 174.195312 282.152344 C 171.871094 283.519531 170.351562 285.238281 170.351562 285.238281 C 170.351562 285.238281 173.027344 280.8125 183.21875 279.363281 C 187.613281 278.738281 193.414062 279.042969 200.980469 279.867188 Z M 200.980469 279.867188 " fill-opacity="1" fill-rule="evenodd"/><path fill="#1c9500" d="M 200.511719 279.464844 C 200.511719 279.464844 189.097656 270.1875 179.960938 272.824219 C 175.898438 273.996094 172.925781 275.773438 173.296875 275.71875 C 174.367188 275.554688 177.707031 271.066406 200.511719 279.464844 Z M 200.511719 279.464844 " fill-opacity="1" fill-rule="evenodd"/><path fill="#20a600" d="M 200.511719 279.464844 C 200.511719 279.464844 188.730469 270.25 179.644531 273.070312 C 176.25 274.121094 173.296875 275.71875 173.296875 275.71875 C 173.296875 275.71875 183.773438 267.878906 200.511719 279.464844 Z M 200.511719 279.464844 " fill-opacity="1" fill-rule="evenodd"/><path fill="#20a600" d="M 200.511719 279.464844 C 200.511719 279.464844 195.058594 275.796875 185.785156 273.980469 C 183.359375 273.507812 179.988281 273.566406 177.363281 274.15625 C 175.039062 274.679688 173.296875 275.71875 173.296875 275.71875 C 173.296875 275.71875 176.742188 272.714844 185.707031 274.246094 C 189.574219 274.90625 194.371094 276.726562 200.511719 279.464844 Z M 200.511719 279.464844 " fill-opacity="1" fill-rule="evenodd"/><path fill="#1c9500" d="M 199.859375 253.699219 C 199.859375 253.699219 193.449219 265.574219 197.382812 273.363281 C 199.132812 276.824219 201.238281 279.199219 201.128906 278.878906 C 200.796875 277.941406 196.183594 275.695312 199.859375 253.699219 Z M 199.859375 253.699219 " fill-opacity="1" fill-rule="evenodd"/><path fill="#20a600" d="M 199.859375 253.699219 C 199.859375 253.699219 193.566406 265.894531 197.65625 273.605469 C 199.1875 276.488281 201.128906 278.878906 201.128906 278.878906 C 201.128906 278.878906 192.273438 270.769531 199.859375 253.699219 Z M 199.859375 253.699219 " fill-opacity="1" fill-rule="evenodd"/><path fill="#20a600" d="M 199.859375 253.699219 C 199.859375 253.699219 197.484375 259.242188 197.429688 267.914062 C 197.417969 270.183594 198.046875 273.210938 199.027344 275.476562 C 199.894531 277.484375 201.128906 278.878906 201.128906 278.878906 C 201.128906 278.878906 197.835938 276.28125 197.683594 267.9375 C 197.617188 264.339844 198.441406 259.707031 199.859375 253.699219 Z M 199.859375 253.699219 " fill-opacity="1" fill-rule="evenodd"/><path fill="#1c9500" d="M 210.519531 254.285156 C 210.519531 254.285156 199.296875 263.1875 199.875 272.433594 C 200.132812 276.542969 201.195312 279.738281 201.21875 279.378906 C 201.289062 278.324219 197.730469 274.203125 210.519531 254.285156 Z M 210.519531 254.285156 " fill-opacity="1" fill-rule="evenodd"/><path fill="#20a600" d="M 210.519531 254.285156 C 210.519531 254.285156 199.277344 263.550781 200.039062 272.785156 C 200.328125 276.234375 201.21875 279.378906 201.21875 279.378906 C 201.21875 279.378906 195.976562 267.761719 210.519531 254.285156 Z M 210.519531 254.285156 " fill-opacity="1" fill-rule="evenodd"/><path fill="#20a600" d="M 210.519531 254.285156 C 210.519531 254.285156 205.882812 258.699219 202.203125 267.136719 C 201.238281 269.34375 200.585938 272.5625 200.59375 275.183594 C 200.601562 277.503906 201.21875 279.378906 201.21875 279.378906 C 201.21875 279.378906 199.09375 275.46875 202.4375 267.265625 C 203.878906 263.730469 206.621094 259.550781 210.519531 254.285156 Z M 210.519531 254.285156 " fill-opacity="1" fill-rule="evenodd"/><path fill="#20a600" d="M 188.574219 265.699219 C 188.574219 265.699219 196.507812 273.664062 201.601562 281.617188 C 210.1875 295.015625 211.488281 307.695312 211.75 308.3125 C 211.917969 308.695312 210.042969 292.023438 202.253906 280.71875 C 198.085938 274.660156 188.574219 265.699219 188.574219 265.699219 Z M 188.574219 265.699219 " fill-opacity="1" fill-rule="evenodd"/><path fill="#1c9500" d="M 316.832031 267.632812 C 316.832031 267.632812 307.777344 253.660156 297.015625 253.3125 C 292.230469 253.15625 288.414062 254.03125 288.832031 254.101562 C 290.042969 254.296875 295.203125 250.628906 316.832031 267.632812 Z M 316.832031 267.632812 " fill-opacity="1" fill-rule="evenodd"/><path fill="#20a600" d="M 316.832031 267.632812 C 316.832031 267.632812 307.359375 253.597656 296.589844 253.460938 C 292.566406 253.414062 288.832031 254.101562 288.832031 254.101562 C 288.832031 254.101562 302.847656 249.3125 316.832031 267.632812 Z M 316.832031 267.632812 " fill-opacity="1" fill-rule="evenodd"/><path fill="#20a600" d="M 316.832031 267.632812 C 316.832031 267.632812 312.238281 261.777344 302.886719 256.589844 C 300.4375 255.230469 296.789062 254.121094 293.753906 253.839844 C 291.066406 253.59375 288.832031 254.101562 288.832031 254.101562 C 288.832031 254.101562 293.589844 252.070312 302.710938 256.847656 C 306.640625 258.90625 311.171875 262.539062 316.832031 267.632812 Z M 316.832031 267.632812 " fill-opacity="1" fill-rule="evenodd"/><path fill="#1c9500" d="M 316.65625 267 C 316.65625 267 312.804688 252.800781 303.847656 249.601562 C 299.867188 248.179688 296.417969 247.886719 296.75 248.058594 C 297.714844 248.550781 303.046875 246.859375 316.65625 267 Z M 316.65625 267 " fill-opacity="1" fill-rule="evenodd"/><path fill="#20a600" d="M 316.65625 267 C 316.65625 267 312.472656 252.636719 303.449219 249.617188 C 300.078125 248.488281 296.75 248.058594 296.75 248.058594 C 296.75 248.058594 309.832031 247.816406 316.65625 267 Z M 316.65625 267 " fill-opacity="1" fill-rule="evenodd"/><path fill="#20a600" d="M 316.65625 267 C 316.65625 267 314.371094 260.835938 307.902344 253.945312 C 306.210938 252.140625 303.4375 250.222656 300.960938 249.167969 C 298.769531 248.234375 296.75 248.058594 296.75 248.058594 C 296.75 248.058594 301.300781 247.632812 307.683594 254.113281 C 310.4375 256.90625 313.265625 261.1875 316.65625 267 Z M 316.65625 267 " fill-opacity="1" fill-rule="evenodd"/><path fill="#1c9500" d="M 331.226562 245.71875 C 331.226562 245.71875 319.089844 251.613281 317.738281 260.234375 C 317.136719 264.066406 317.457031 267.226562 317.554688 266.898438 C 317.835938 265.941406 315.402344 261.425781 331.226562 245.71875 Z M 331.226562 245.71875 " fill-opacity="1" fill-rule="evenodd"/><path fill="#20a600" d="M 331.226562 245.71875 C 331.226562 245.71875 318.996094 251.941406 317.816406 260.589844 C 317.375 263.824219 317.554688 266.898438 317.554688 266.898438 C 317.554688 266.898438 315.105469 255.144531 331.226562 245.71875 Z M 331.226562 245.71875 " fill-opacity="1" fill-rule="evenodd"/><path fill="#20a600" d="M 331.226562 245.71875 C 331.226562 245.71875 326.0625 248.832031 320.957031 255.835938 C 319.621094 257.671875 318.367188 260.5 317.835938 262.910156 C 317.371094 265.046875 317.554688 266.898438 317.554688 266.898438 C 317.554688 266.898438 316.398438 262.867188 321.148438 256.003906 C 323.195312 253.046875 326.570312 249.765625 331.226562 245.71875 Z M 331.226562 245.71875 " fill-opacity="1" fill-rule="evenodd"/><path fill="#1c9500" d="M 339.511719 252.386719 C 339.511719 252.386719 325.207031 253.054688 320.28125 260.898438 C 318.089844 264.386719 317.085938 267.601562 317.316406 267.324219 C 317.988281 266.507812 317.503906 261.082031 339.511719 252.386719 Z M 339.511719 252.386719 " fill-opacity="1" fill-rule="evenodd"/><path fill="#20a600" d="M 339.511719 252.386719 C 339.511719 252.386719 324.980469 253.335938 320.210938 261.28125 C 318.425781 264.25 317.316406 267.324219 317.316406 267.324219 C 317.316406 267.324219 319.84375 254.832031 339.511719 252.386719 Z M 339.511719 252.386719 " fill-opacity="1" fill-rule="evenodd"/><path fill="#20a600" d="M 339.511719 252.386719 C 339.511719 252.386719 333.171875 253.257812 325.261719 257.957031 C 323.191406 259.1875 320.785156 261.417969 319.257812 263.550781 C 317.910156 265.441406 317.316406 267.324219 317.316406 267.324219 C 317.316406 267.324219 317.871094 262.90625 325.375 258.203125 C 328.613281 256.171875 333.277344 254.382812 339.511719 252.386719 Z M 339.511719 252.386719 " fill-opacity="1" fill-rule="evenodd"/><path fill="#20a600" d="M 315.117188 248.835938 C 315.117188 248.835938 316.90625 259.933594 316.398438 269.367188 C 315.546875 285.257812 309.199219 296.308594 309.054688 296.964844 C 308.964844 297.375 317.175781 282.746094 317.453125 269.019531 C 317.609375 261.664062 315.117188 248.835938 315.117188 248.835938 Z M 315.117188 248.835938 " fill-opacity="1" fill-rule="evenodd"/><path fill="#1c9500" d="M 161.648438 361.398438 C 161.648438 361.398438 145.085938 363.089844 139.867188 372.511719 C 137.550781 376.699219 136.589844 380.496094 136.839844 380.15625 C 137.566406 379.167969 136.65625 372.902344 161.648438 361.398438 Z M 161.648438 361.398438 " fill-opacity="1" fill-rule="evenodd"/><path fill="#20a600" d="M 161.648438 361.398438 C 161.648438 361.398438 144.839844 363.433594 139.808594 372.957031 C 137.933594 376.519531 136.839844 380.15625 136.839844 380.15625 C 136.839844 380.15625 138.972656 365.496094 161.648438 361.398438 Z M 161.648438 361.398438 " fill-opacity="1" fill-rule="evenodd"/><path fill="#20a600" d="M 161.648438 361.398438 C 161.648438 361.398438 154.34375 362.820312 145.460938 368.78125 C 143.136719 370.339844 140.484375 373.082031 138.851562 375.65625 C 137.40625 377.933594 136.839844 380.15625 136.839844 380.15625 C 136.839844 380.15625 137.203125 374.996094 145.609375 369.054688 C 149.234375 366.492188 154.535156 364.117188 161.648438 361.398438 Z M 161.648438 361.398438 " fill-opacity="1" fill-rule="evenodd"/><path fill="#1c9500" d="M 161.003906 361.25 C 161.003906 361.25 146.613281 358.203125 139.683594 364.71875 C 136.605469 367.613281 134.769531 370.550781 135.074219 370.332031 C 135.953125 369.699219 136.875 364.183594 161.003906 361.25 Z M 161.003906 361.25 " fill-opacity="1" fill-rule="evenodd"/><path fill="#20a600" d="M 161.003906 361.25 C 161.003906 361.25 146.3125 358.425781 139.515625 365.078125 C 136.972656 367.566406 135.074219 370.332031 135.074219 370.332031 C 135.074219 370.332031 140.824219 358.578125 161.003906 361.25 Z M 161.003906 361.25 " fill-opacity="1" fill-rule="evenodd"/><path fill="#20a600" d="M 161.003906 361.25 C 161.003906 361.25 154.476562 360.472656 145.398438 363.089844 C 143.019531 363.773438 140.050781 365.367188 137.980469 367.089844 C 136.152344 368.617188 135.074219 370.332031 135.074219 370.332031 C 135.074219 370.332031 136.769531 366.089844 145.449219 363.359375 C 149.1875 362.183594 154.285156 361.617188 161.003906 361.25 Z M 161.003906 361.25 " fill-opacity="1" fill-rule="evenodd"/><path fill="#1c9500" d="M 148.683594 338.597656 C 148.683594 338.597656 148.390625 352.089844 155.449219 357.226562 C 158.582031 359.511719 161.542969 360.664062 161.292969 360.429688 C 160.570312 359.742188 155.441406 359.851562 148.683594 338.597656 Z M 148.683594 338.597656 " fill-opacity="1" fill-rule="evenodd"/><path fill="#20a600" d="M 148.683594 338.597656 C 148.683594 338.597656 148.644531 352.324219 155.800781 357.320312 C 158.476562 359.183594 161.292969 360.429688 161.292969 360.429688 C 161.292969 360.429688 149.71875 357.25 148.683594 338.597656 Z M 148.683594 338.597656 " fill-opacity="1" fill-rule="evenodd"/><path fill="#20a600" d="M 148.683594 338.597656 C 148.683594 338.597656 149.097656 344.617188 153.003906 352.355469 C 154.027344 354.382812 155.96875 356.789062 157.875 358.359375 C 159.5625 359.75 161.292969 360.429688 161.292969 360.429688 C 161.292969 360.429688 157.179688 359.621094 153.238281 352.261719 C 151.539062 349.089844 150.160156 344.589844 148.683594 338.597656 Z M 148.683594 338.597656 " fill-opacity="1" fill-rule="evenodd"/><path fill="#1c9500" d="M 158.441406 334.273438 C 158.441406 334.273438 152.515625 347.3125 157.25 355.277344 C 159.351562 358.816406 161.753906 361.179688 161.613281 360.84375 C 161.195312 359.875 156.144531 357.832031 158.441406 334.273438 Z M 158.441406 334.273438 " fill-opacity="1" fill-rule="evenodd"/><path fill="#20a600" d="M 158.441406 334.273438 C 158.441406 334.273438 152.664062 347.644531 157.554688 355.515625 C 159.382812 358.453125 161.613281 360.84375 161.613281 360.84375 C 161.613281 360.84375 151.648438 352.898438 158.441406 334.273438 Z M 158.441406 334.273438 " fill-opacity="1" fill-rule="evenodd"/><path fill="#20a600" d="M 158.441406 334.273438 C 158.441406 334.273438 156.328125 340.316406 156.902344 349.5 C 157.050781 351.90625 157.941406 355.066406 159.140625 357.394531 C 160.207031 359.457031 161.613281 360.84375 161.613281 360.84375 C 161.613281 360.84375 157.9375 358.335938 157.171875 349.511719 C 156.839844 345.703125 157.375 340.738281 158.441406 334.273438 Z M 158.441406 334.273438 " fill-opacity="1" fill-rule="evenodd"/><path fill="#20a600" d="M 144.144531 354.355469 C 144.144531 354.355469 154.835938 357.824219 163 362.578125 C 176.746094 370.582031 183.6875 381.269531 184.207031 381.699219 C 184.527344 381.964844 175.257812 367.984375 163.167969 361.480469 C 156.695312 357.988281 144.144531 354.355469 144.144531 354.355469 Z M 144.144531 354.355469 " fill-opacity="1" fill-rule="evenodd"/><path fill="#1c9500" d="M 190.925781 328.003906 C 190.925781 328.003906 197.90625 321.859375 203.746094 323.300781 C 206.34375 323.941406 208.261719 324.988281 208.027344 324.960938 C 207.347656 324.886719 205.125 322.132812 190.925781 328.003906 Z M 190.925781 328.003906 " fill-opacity="1" fill-rule="evenodd"/><path fill="#20a600" d="M 190.925781 328.003906 C 190.925781 328.003906 198.140625 321.890625 203.953125 323.445312 C 206.121094 324.027344 208.027344 324.960938 208.027344 324.960938 C 208.027344 324.960938 201.214844 320.269531 190.925781 328.003906 Z M 190.925781 328.003906 " fill-opacity="1" fill-rule="evenodd"/><path fill="#20a600" d="M 190.925781 328.003906 C 190.925781 328.003906 194.28125 325.550781 200.09375 324.175781 C 201.617188 323.8125 203.746094 323.769531 205.421875 324.078125 C 206.902344 324.351562 208.027344 324.960938 208.027344 324.960938 C 208.027344 324.960938 205.777344 323.152344 200.152344 324.339844 C 197.726562 324.851562 194.738281 326.121094 190.925781 328.003906 Z M 190.925781 328.003906 " fill-opacity="1" fill-rule="evenodd"/><path fill="#1c9500" d="M 191.097656 327.691406 C 191.097656 327.691406 195.316406 320.636719 200.617188 320.273438 C 202.972656 320.109375 204.871094 320.472656 204.667969 320.515625 C 204.070312 320.636719 201.460938 318.917969 191.097656 327.691406 Z M 191.097656 327.691406 " fill-opacity="1" fill-rule="evenodd"/><path fill="#20a600" d="M 191.097656 327.691406 C 191.097656 327.691406 195.519531 320.597656 200.828125 320.339844 C 202.8125 320.246094 204.667969 320.515625 204.667969 320.515625 C 204.667969 320.515625 197.667969 318.40625 191.097656 327.691406 Z M 191.097656 327.691406 " fill-opacity="1" fill-rule="evenodd"/><path fill="#20a600" d="M 191.097656 327.691406 C 191.097656 327.691406 193.257812 324.722656 197.777344 321.996094 C 198.960938 321.28125 200.742188 320.667969 202.234375 320.476562 C 203.554688 320.304688 204.667969 320.515625 204.667969 320.515625 C 204.667969 320.515625 202.28125 319.601562 197.871094 322.117188 C 195.96875 323.203125 193.800781 325.078125 191.097656 327.691406 Z M 191.097656 327.691406 " fill-opacity="1" fill-rule="evenodd"/><path fill="#1c9500" d="M 186.492188 314.039062 C 186.492188 314.039062 192.128906 319.046875 191.554688 323.886719 C 191.296875 326.039062 190.644531 327.6875 190.644531 327.496094 C 190.636719 326.941406 192.628906 324.882812 186.492188 314.039062 Z M 186.492188 314.039062 " fill-opacity="1" fill-rule="evenodd"/><path fill="#20a600" d="M 186.492188 314.039062 C 186.492188 314.039062 192.128906 319.238281 191.457031 324.066406 C 191.203125 325.871094 190.644531 327.496094 190.644531 327.496094 C 190.644531 327.496094 193.738281 321.546875 186.492188 314.039062 Z M 186.492188 314.039062 " fill-opacity="1" fill-rule="evenodd"/><path fill="#20a600" d="M 186.492188 314.039062 C 186.492188 314.039062 188.800781 316.496094 190.484375 321.035156 C 190.925781 322.222656 191.175781 323.933594 191.09375 325.3125 C 191.023438 326.53125 190.644531 327.496094 190.644531 327.496094 C 190.644531 327.496094 191.875 325.503906 190.359375 321.097656 C 189.703125 319.195312 188.386719 316.921875 186.492188 314.039062 Z M 186.492188 314.039062 " fill-opacity="1" fill-rule="evenodd"/><path fill="#1c9500" d="M 181.015625 316.386719 C 181.015625 316.386719 188.605469 318.910156 190.070312 323.871094 C 190.71875 326.078125 190.773438 327.960938 190.691406 327.773438 C 190.453125 327.234375 191.535156 324.390625 181.015625 316.386719 Z M 181.015625 316.386719 " fill-opacity="1" fill-rule="evenodd"/><path fill="#20a600" d="M 181.015625 316.386719 C 181.015625 316.386719 188.6875 319.097656 190.050781 324.089844 C 190.558594 325.953125 190.691406 327.773438 190.691406 327.773438 C 190.691406 327.773438 191.222656 320.675781 181.015625 316.386719 Z M 181.015625 316.386719 " fill-opacity="1" fill-rule="evenodd"/><path fill="#20a600" d="M 181.015625 316.386719 C 181.015625 316.386719 184.292969 317.8125 187.835938 321.539062 C 188.761719 322.511719 189.71875 324.078125 190.21875 325.453125 C 190.65625 326.671875 190.691406 327.773438 190.691406 327.773438 C 190.691406 327.773438 191.0625 325.316406 187.738281 321.652344 C 186.304688 320.070312 184.066406 318.402344 181.015625 316.386719 Z M 181.015625 316.386719 " fill-opacity="1" fill-rule="evenodd"/><path fill="#20a600" d="M 194.65625 318.175781 C 194.65625 318.175781 192.015625 323.871094 190.863281 329.019531 C 188.921875 337.691406 190.664062 344.597656 190.644531 344.972656 C 190.628906 345.203125 188.425781 336.097656 190.351562 328.671875 C 191.378906 324.695312 194.65625 318.175781 194.65625 318.175781 Z M 194.65625 318.175781 " fill-opacity="1" fill-rule="evenodd"/><path fill="#1c9500" d="M 204.449219 391.789062 C 204.449219 391.789062 212.203125 386.652344 217.792969 388.875 C 220.277344 389.863281 222.035156 391.164062 221.808594 391.105469 C 221.144531 390.9375 219.320312 387.90625 204.449219 391.789062 Z M 204.449219 391.789062 " fill-opacity="1" fill-rule="evenodd"/><path fill="#20a600" d="M 204.449219 391.789062 C 204.449219 391.789062 212.433594 386.714844 217.976562 389.046875 C 220.046875 389.917969 221.808594 391.105469 221.808594 391.105469 C 221.808594 391.105469 215.695312 385.527344 204.449219 391.789062 Z M 204.449219 391.789062 " fill-opacity="1" fill-rule="evenodd"/><path fill="#20a600" d="M 204.449219 391.789062 C 204.449219 391.789062 208.109375 389.8125 214.054688 389.242188 C 215.613281 389.09375 217.730469 389.339844 219.34375 389.875 C 220.777344 390.347656 221.808594 391.105469 221.808594 391.105469 C 221.808594 391.105469 219.824219 389.003906 214.089844 389.414062 C 211.617188 389.589844 208.484375 390.441406 204.449219 391.789062 Z M 204.449219 391.789062 " fill-opacity="1" fill-rule="evenodd"/><path fill="#1c9500" d="M 204.675781 391.480469 C 204.675781 391.480469 209.8125 385.066406 215.113281 385.429688 C 217.46875 385.589844 219.300781 386.207031 219.09375 386.222656 C 218.488281 386.257812 216.136719 384.203125 204.675781 391.480469 Z M 204.675781 391.480469 " fill-opacity="1" fill-rule="evenodd"/><path fill="#20a600" d="M 204.675781 391.480469 C 204.675781 391.480469 210.023438 385.058594 215.316406 385.523438 C 217.292969 385.699219 219.09375 386.222656 219.09375 386.222656 C 219.09375 386.222656 212.449219 383.179688 204.675781 391.480469 Z M 204.675781 391.480469 " fill-opacity="1" fill-rule="evenodd"/><path fill="#20a600" d="M 204.675781 391.480469 C 204.675781 391.480469 207.222656 388.832031 212.070312 386.746094 C 213.339844 386.203125 215.183594 385.835938 216.6875 385.851562 C 218.019531 385.863281 219.09375 386.222656 219.09375 386.222656 C 219.09375 386.222656 216.855469 384.988281 212.144531 386.882812 C 210.109375 387.699219 207.707031 389.261719 204.675781 391.480469 Z M 204.675781 391.480469 " fill-opacity="1" fill-rule="evenodd"/><path fill="#1c9500" d="M 201.976562 377.328125 C 201.976562 377.328125 206.878906 383.054688 205.648438 387.773438 C 205.101562 389.871094 204.230469 391.417969 204.253906 391.226562 C 204.324219 390.675781 206.578125 388.90625 201.976562 377.328125 Z M 201.976562 377.328125 " fill-opacity="1" fill-rule="evenodd"/><path fill="#20a600" d="M 201.976562 377.328125 C 201.976562 377.328125 206.851562 383.246094 205.527344 387.9375 C 205.03125 389.691406 204.253906 391.226562 204.253906 391.226562 C 204.253906 391.226562 208.132812 385.753906 201.976562 377.328125 Z M 201.976562 377.328125 " fill-opacity="1" fill-rule="evenodd"/><path fill="#20a600" d="M 201.976562 377.328125 C 201.976562 377.328125 203.925781 380.078125 204.980469 384.804688 C 205.253906 386.042969 205.265625 387.769531 205 389.121094 C 204.761719 390.320312 204.253906 391.226562 204.253906 391.226562 C 204.253906 391.226562 205.746094 389.421875 204.84375 384.847656 C 204.457031 382.875 203.460938 380.441406 201.976562 377.328125 Z M 201.976562 377.328125 " fill-opacity="1" fill-rule="evenodd"/><path fill="#1c9500" d="M 196.214844 378.902344 C 196.214844 378.902344 203.390625 382.4375 204.167969 387.554688 C 204.511719 389.828125 204.308594 391.699219 204.25 391.503906 C 204.089844 390.9375 205.546875 388.265625 196.214844 378.902344 Z M 196.214844 378.902344 " fill-opacity="1" fill-rule="evenodd"/><path fill="#20a600" d="M 196.214844 378.902344 C 196.214844 378.902344 203.445312 382.632812 204.117188 387.765625 C 204.367188 389.683594 204.25 391.503906 204.25 391.503906 C 204.25 391.503906 205.742188 384.542969 196.214844 378.902344 Z M 196.214844 378.902344 " fill-opacity="1" fill-rule="evenodd"/><path fill="#20a600" d="M 196.214844 378.902344 C 196.214844 378.902344 199.269531 380.765625 202.269531 384.9375 C 203.058594 386.027344 203.792969 387.707031 204.097656 389.140625 C 204.367188 390.40625 204.25 391.503906 204.25 391.503906 C 204.25 391.503906 204.953125 389.117188 202.160156 385.035156 C 200.953125 383.273438 198.964844 381.316406 196.214844 378.902344 Z M 196.214844 378.902344 " fill-opacity="1" fill-rule="evenodd"/><path fill="#20a600" d="M 209.535156 382.511719 C 209.535156 382.511719 206.144531 387.796875 204.300781 392.742188 C 201.195312 401.066406 201.980469 408.144531 201.90625 408.511719 C 201.863281 408.742188 200.917969 399.417969 203.839844 392.328125 C 205.398438 388.527344 209.535156 382.511719 209.535156 382.511719 Z M 209.535156 382.511719 " fill-opacity="1" fill-rule="evenodd"/><path fill="#c59767" d="M 234.554688 476.394531 C 220.972656 485.367188 217.230469 503.683594 226.203125 517.269531 C 235.175781 530.859375 253.484375 534.601562 267.066406 525.625 C 280.652344 516.652344 284.394531 498.339844 275.421875 484.75 C 266.453125 471.164062 248.140625 467.417969 234.554688 476.394531 Z M 235.929688 478.472656 C 248.367188 470.257812 265.128906 473.6875 273.34375 486.125 C 281.554688 498.5625 278.128906 515.328125 265.695312 523.546875 C 253.261719 531.761719 236.496094 528.332031 228.28125 515.894531 C 220.070312 503.457031 223.496094 486.6875 235.929688 478.472656 Z M 235.929688 478.472656 " fill-opacity="1" fill-rule="evenodd"/></svg>