<svg xmlns="http://www.w3.org/2000/svg" xmlns:xlink="http://www.w3.org/1999/xlink" width="1920" zoomAndPan="magnify" viewBox="335 228 1004 1977" height="1080" preserveAspectRatio="xMidYMid meet" version="1.0"><defs><clipPath id="97f600acab"><path d="M 792 291 L 831.375 291 L 831.375 342 L 792 342 Z M 792 291 " clip-rule="nonzero"/></clipPath><clipPath id="3c21af2602"><path d="M 608.625 304 L 646 304 L 646 318 L 608.625 318 Z M 608.625 304 " clip-rule="nonzero"/></clipPath></defs><path stroke-linecap="round" transform="matrix(0.121905, 0, 0, 0.121905, 608.730864, 243.000008)" fill="none" stroke-linejoin="miter" d="M 349.845581 618.948444 C 348.820195 606.900161 359.71492 595.94135 368.815219 587.99461 C 420.597202 542.589245 475.807819 516.313733 544.700928 515.224261 C 562.324746 514.935871 583.537415 516.730296 598.790029 525.574249 " stroke="#dfe786" stroke-width="23" stroke-opacity="1" stroke-miterlimit="10"/><path stroke-linecap="round" transform="matrix(0.121905, 0, 0, 0.121905, 608.730864, 243.000008)" fill="none" stroke-linejoin="miter" d="M 588.119608 1690.220266 C 662.748469 1619.404559 774.515522 1590.213107 874.234292 1615.431189 " stroke="#dfe786" stroke-width="23" stroke-opacity="1" stroke-miterlimit="10"/><path stroke-linecap="round" transform="matrix(0.121905, 0, 0, 0.121905, 608.730864, 243.000008)" fill="none" stroke-linejoin="miter" d="M 693.57413 2190.768757 C 774.675738 2114.217298 898.587205 2086.371664 1004.682592 2120.786175 " stroke="#dfe786" stroke-width="23" stroke-opacity="1" stroke-miterlimit="10"/><path fill="#fffdf5" d="M 750.589844 275.421875 C 750.589844 275.421875 763.117188 272.125 767.222656 272.863281 C 769.808594 273.328125 766.597656 276.332031 766.597656 276.332031 C 766.597656 276.332031 774.957031 275.65625 778.109375 277.632812 C 780.074219 278.863281 776.648438 280.632812 776.648438 280.632812 C 776.648438 280.632812 783.257812 281.050781 783.847656 282.804688 C 784.378906 284.382812 780.214844 285.070312 780.214844 285.070312 L 763.734375 280.472656 Z M 750.589844 275.421875 " fill-opacity="1" fill-rule="nonzero"/><path fill="#26211f" d="M 698.320312 293.953125 C 698.320312 293.953125 686.691406 264.976562 711.894531 255.433594 C 738.511719 245.355469 741.515625 275.625 741.515625 275.625 Z M 698.320312 293.953125 " fill-opacity="1" fill-rule="nonzero"/><g clip-path="url(#97f600acab)"><path fill="#26211f" d="M 792.90625 299.09375 C 792.90625 299.09375 813.089844 278.875 827.109375 303.757812 C 842.085938 330.328125 811.847656 341.851562 811.847656 341.851562 Z M 792.90625 299.09375 " fill-opacity="1" fill-rule="nonzero"/></g><path fill="#fffdf5" d="M 686.195312 362.433594 C 690.40625 368.515625 710.515625 388.132812 751.335938 403.449219 C 773.476562 411.753906 833.640625 398.117188 807.507812 317.21875 C 799.089844 291.167969 754.925781 259.253906 715.011719 278.988281 C 665.160156 303.640625 672.886719 343.210938 686.195312 362.433594 Z M 686.195312 362.433594 " fill-opacity="1" fill-rule="nonzero"/><path fill="#26211f" d="M 766.09375 357.828125 C 767.207031 342.386719 778.609375 329.265625 792.53125 339.226562 C 803.492188 347.070312 803.445312 373.753906 790.910156 375.96875 C 778.375 378.179688 764.847656 375.074219 766.09375 357.828125 Z M 766.09375 357.828125 " fill-opacity="1" fill-rule="nonzero"/><path fill="#26211f" d="M 732.28125 343.800781 C 742.234375 332.523438 743.65625 314.699219 727.375 310.429688 C 714.554688 307.070312 696.089844 325.078125 702.996094 336.449219 C 709.90625 347.820312 721.167969 356.394531 732.28125 343.800781 Z M 732.28125 343.800781 " fill-opacity="1" fill-rule="nonzero"/><path fill="#26211f" d="M 752.078125 347.160156 C 764.023438 352.519531 756.582031 363.074219 747.945312 360.558594 C 745.304688 359.789062 740.300781 355.210938 742.386719 349.464844 C 744.472656 343.71875 752.078125 347.160156 752.078125 347.160156 Z M 752.078125 347.160156 " fill-opacity="1" fill-rule="nonzero"/><path stroke-linecap="round" transform="matrix(0.121905, 0, 0, 0.121905, 608.730864, 243.000008)" fill="none" stroke-linejoin="round" d="M 1037.783328 944.604568 C 1037.783328 944.604568 1041.788741 978.34617 1065.276485 995.521382 C 1107.765909 1026.571346 1142.56494 968.060268 1142.56494 968.060268 " stroke="#26211f" stroke-width="20" stroke-opacity="1" stroke-miterlimit="4"/><path stroke-linecap="round" transform="matrix(0.121905, 0, 0, 0.121905, 608.730864, 243.000008)" fill="none" stroke-linejoin="round" d="M 1240.745631 1020.675377 C 1240.745631 1020.675377 1217.578321 1044.387424 1189.059778 1042.368696 C 1137.470054 1038.747802 1144.968188 970.175126 1144.968188 970.175126 " stroke="#26211f" stroke-width="20" stroke-opacity="1" stroke-miterlimit="4"/><path fill="#ffffff" d="M 715.671875 335.640625 C 714.488281 330.355469 717.449219 324.847656 722.285156 323.339844 C 727.121094 321.832031 732 324.890625 733.179688 330.175781 C 734.363281 335.460938 731.402344 340.96875 726.566406 342.480469 C 721.734375 343.988281 716.855469 340.929688 715.671875 335.640625 Z M 715.671875 335.640625 " fill-opacity="1" fill-rule="nonzero"/><path fill="#000000" d="M 719.449219 334.464844 C 718.734375 331.265625 720.382812 327.976562 723.128906 327.117188 C 725.878906 326.257812 728.6875 328.15625 729.402344 331.355469 C 730.121094 334.554688 728.472656 337.84375 725.722656 338.703125 C 722.972656 339.558594 720.164062 337.660156 719.449219 334.464844 Z M 719.449219 334.464844 " fill-opacity="1" fill-rule="nonzero"/><path stroke-linecap="round" transform="matrix(0.121905, 0, 0, 0.121905, 608.730864, 243.000008)" fill="none" stroke-linejoin="round" d="M 1323.865968 927.173009 C 1323.865968 927.173009 1351.647515 873.949077 1411.888931 886.86253 C 1461.844446 897.564994 1456.589344 962.612906 1456.589344 962.612906 " stroke="#000000" stroke-width="31" stroke-opacity="1" stroke-miterlimit="4"/><path fill="#fffdf5" d="M 750.589844 275.421875 C 750.589844 275.421875 763.117188 272.125 767.222656 272.863281 C 769.808594 273.328125 766.597656 276.332031 766.597656 276.332031 C 766.597656 276.332031 774.957031 275.65625 778.109375 277.632812 C 780.074219 278.863281 776.648438 280.632812 776.648438 280.632812 C 776.648438 280.632812 783.257812 281.050781 783.847656 282.804688 C 784.378906 284.382812 780.214844 285.070312 780.214844 285.070312 L 763.734375 280.472656 Z M 750.589844 275.421875 " fill-opacity="1" fill-rule="nonzero"/><path fill="#fffdf5" d="M 783.175781 503.015625 C 798.511719 494.859375 817.75 489.429688 817.75 489.429688 C 813.871094 463.261719 798.355469 415.285156 798.355469 415.285156 L 687.527344 402.867188 L 689.296875 451.613281 C 689.296875 451.613281 687.128906 468.5625 684.359375 487.054688 L 741.28125 530.171875 C 741.433594 529.855469 741.515625 529.683594 741.515625 529.683594 L 756.027344 530.324219 C 756.027344 530.324219 756.105469 530.667969 756.261719 531.242188 C 756.261719 531.242188 769.347656 510.367188 783.175781 503.015625 Z M 783.175781 503.015625 " fill-opacity="1" fill-rule="nonzero"/><path fill="#26211f" d="M 817.746094 489.429688 C 817.746094 489.429688 798.511719 494.859375 783.175781 503.015625 C 769.347656 510.371094 756.257812 531.242188 756.257812 531.242188 C 756.886719 533.589844 758.800781 539.792969 761.96875 542.152344 C 762.621094 542.640625 762.085938 545.40625 762.085938 545.40625 C 762.085938 545.40625 760.484375 546.503906 758.253906 549.042969 C 755.171875 552.554688 753.65625 560.453125 760.691406 563.984375 C 768.371094 567.84375 795.980469 568.6875 806.898438 561.675781 C 812.332031 558.1875 818.617188 534.925781 818.617188 499.101562 C 818.617188 496.457031 818.300781 493.164062 817.746094 489.429688 Z M 817.746094 489.429688 " fill-opacity="1" fill-rule="nonzero"/><path fill="#26211f" d="M 681.671875 504.113281 C 679.210938 518.871094 683.441406 535.472656 683.441406 535.472656 C 683.441406 535.472656 669.347656 540.324219 675.105469 552.382812 C 678.628906 559.753906 706.375 557.558594 716.15625 556.464844 C 728.621094 555.074219 739.5625 533.679688 741.28125 530.171875 L 684.355469 487.054688 C 683.503906 492.742188 682.59375 498.578125 681.671875 504.113281 Z M 681.671875 504.113281 " fill-opacity="1" fill-rule="nonzero"/><path fill="#a5b452" d="M 706.296875 562.640625 L 636.203125 250.96875 C 636.136719 250.679688 636.265625 250.378906 636.523438 250.230469 C 637.816406 249.488281 641.878906 247.253906 647.269531 245.25 C 648.558594 244.769531 651.152344 244.007812 653.46875 243.484375 C 655.320312 243.0625 657.222656 242.917969 659.117188 243.046875 L 665.246094 243.453125 C 665.484375 243.46875 665.679688 243.632812 665.738281 243.863281 L 745.128906 557.734375 C 745.128906 557.734375 742.574219 563.871094 733.027344 565.914062 C 715.683594 569.621094 706.296875 562.640625 706.296875 562.640625 Z M 706.296875 562.640625 " fill-opacity="1" fill-rule="nonzero"/><path fill="#a5b452" d="M 646.351562 309.222656 C 646.351562 309.222656 637.226562 306.613281 631.230469 299.0625 C 624.269531 290.300781 624.265625 281.84375 624.265625 281.84375 C 624.265625 281.84375 630.988281 282.929688 637.597656 289.535156 C 644.914062 296.855469 646.351562 309.222656 646.351562 309.222656 Z M 646.351562 309.222656 " fill-opacity="1" fill-rule="nonzero"/><g clip-path="url(#3c21af2602)"><path fill="#a5b452" d="M 645.367188 309.222656 C 645.367188 309.222656 637.210938 317.0625 627.519531 317.0625 C 616.929688 317.0625 608.730469 311.921875 608.730469 311.921875 C 608.730469 311.921875 613.464844 308.453125 620.28125 305.90625 C 633.472656 300.980469 645.367188 309.222656 645.367188 309.222656 Z M 645.367188 309.222656 " fill-opacity="1" fill-rule="nonzero"/></g><path stroke-linecap="round" transform="matrix(0.121905, 0, 0, 0.121905, 608.730864, 243.000008)" fill="none" stroke-linejoin="miter" d="M 354.363687 580.52852 C 329.882601 556.047434 299.088984 542.557202 299.088984 542.557202 " stroke="#a5b452" stroke-width="9" stroke-opacity="1" stroke-miterlimit="10"/><path fill="#26211f" d="M 756.0625 391.589844 C 737.792969 388.316406 710.089844 376.074219 700.628906 374.378906 C 682.121094 371.0625 675.703125 383.164062 675.703125 383.164062 C 675.703125 383.164062 672.125 386.757812 670.199219 390.554688 C 668.917969 393.082031 667.964844 397.1875 668.640625 399.554688 C 670.871094 407.390625 673.542969 411.917969 692.019531 419.101562 C 706.246094 424.632812 727.265625 438.203125 760.601562 435.519531 C 787.875 433.324219 799.910156 423.726562 799.910156 423.726562 C 799.910156 423.726562 798.347656 399.972656 797.6875 397.546875 C 797.476562 396.757812 793.667969 399.683594 786.316406 399.226562 C 773.65625 398.441406 765.253906 393.234375 756.0625 391.585938 Z M 756.0625 391.589844 " fill-opacity="1" fill-rule="nonzero"/><path fill="#26211f" d="M 674.28125 419.445312 C 674.28125 419.445312 646.820312 413.523438 640.023438 390.058594 C 633.015625 365.855469 651.765625 350.472656 664.035156 352.539062 C 674.773438 354.347656 676.152344 360.660156 676.152344 360.660156 C 676.152344 360.660156 680.054688 362.675781 680.898438 365.882812 C 682.066406 370.300781 680.1875 371.96875 680.1875 371.96875 C 680.1875 371.96875 682.078125 372.613281 681.335938 377.457031 C 680.699219 381.628906 670.015625 390.15625 670.015625 390.15625 Z M 674.28125 419.445312 " fill-opacity="1" fill-rule="nonzero"/><path stroke-linecap="round" transform="matrix(0.121905, 0, 0, 0.121905, 608.730864, 243.000008)" fill="none" stroke-linejoin="miter" d="M 349.845581 618.948444 C 348.820195 606.900161 359.71492 595.94135 368.815219 587.99461 C 420.597202 542.589245 475.807819 516.313733 544.700928 515.224261 C 562.324746 514.935871 583.537415 516.730296 598.790029 525.574249 " stroke="#dfe786" stroke-width="23" stroke-opacity="1" stroke-miterlimit="10"/><path stroke-linecap="round" transform="matrix(0.121905, 0, 0, 0.121905, 608.730864, 243.000008)" fill="none" stroke-linejoin="miter" d="M 588.119608 1690.220266 C 662.748469 1619.404559 774.515522 1590.213107 874.234292 1615.431189 " stroke="#dfe786" stroke-width="23" stroke-opacity="1" stroke-miterlimit="10"/><path stroke-linecap="round" transform="matrix(0.121905, 0, 0, 0.121905, 608.730864, 243.000008)" fill="none" stroke-linejoin="miter" d="M 693.57413 2190.768757 C 774.675738 2114.217298 898.587205 2086.371664 1004.682592 2120.786175 " stroke="#dfe786" stroke-width="23" stroke-opacity="1" stroke-miterlimit="10"/></svg>