<svg xmlns="http://www.w3.org/2000/svg" xmlns:xlink="http://www.w3.org/1999/xlink" width="1920" zoomAndPan="magnify" viewBox="553 223 289 364" height="1080" preserveAspectRatio="xMidYMid meet" version="1.0"><defs><clipPath id="a9eb974ead"><path d="M 573.023438 243 L 822 243 L 822 567 L 573.023438 567 Z M 573.023438 243 " clip-rule="nonzero"/></clipPath><clipPath id="8aa9a2e553"><path d="M 618 243 L 867.023438 243 L 867.023438 567 L 618 567 Z M 618 243 " clip-rule="nonzero"/></clipPath></defs><path fill="#ffffff" d="M 577.882812 279.5 L 764.144531 244.617188 C 764.410156 244.566406 764.675781 244.546875 764.945312 244.554688 C 765.210938 244.558594 765.476562 244.59375 765.738281 244.65625 C 766 244.714844 766.253906 244.804688 766.5 244.917969 C 766.746094 245.035156 766.976562 245.171875 767.195312 245.335938 C 767.417969 245.5 767.617188 245.683594 767.804688 245.890625 C 767.988281 246.09375 768.152344 246.320312 768.296875 246.558594 C 768.441406 246.796875 768.5625 247.050781 768.660156 247.316406 C 768.757812 247.582031 768.828125 247.855469 768.875 248.136719 L 814.085938 520.460938 C 814.132812 520.742188 814.152344 521.023438 814.148438 521.308594 C 814.140625 521.59375 814.109375 521.875 814.050781 522.152344 C 813.992188 522.429688 813.910156 522.699219 813.800781 522.960938 C 813.695312 523.21875 813.5625 523.46875 813.410156 523.699219 C 813.253906 523.933594 813.082031 524.148438 812.886719 524.347656 C 812.695312 524.542969 812.484375 524.71875 812.257812 524.871094 C 812.03125 525.023438 811.792969 525.152344 811.542969 525.253906 C 811.292969 525.359375 811.039062 525.433594 810.773438 525.484375 L 624.511719 560.367188 C 624.246094 560.417969 623.980469 560.4375 623.714844 560.433594 C 623.445312 560.425781 623.179688 560.390625 622.917969 560.328125 C 622.65625 560.269531 622.402344 560.179688 622.15625 560.066406 C 621.914062 559.949219 621.679688 559.8125 621.460938 559.648438 C 621.242188 559.484375 621.039062 559.300781 620.851562 559.09375 C 620.667969 558.890625 620.503906 558.667969 620.359375 558.425781 C 620.214844 558.1875 620.09375 557.933594 619.996094 557.667969 C 619.898438 557.402344 619.828125 557.128906 619.78125 556.847656 L 574.570312 284.523438 C 574.523438 284.246094 574.503906 283.960938 574.507812 283.675781 C 574.515625 283.390625 574.546875 283.109375 574.605469 282.832031 C 574.664062 282.554688 574.746094 282.285156 574.855469 282.023438 C 574.960938 281.765625 575.09375 281.515625 575.246094 281.285156 C 575.402344 281.050781 575.574219 280.835938 575.769531 280.640625 C 575.960938 280.441406 576.171875 280.265625 576.398438 280.113281 C 576.625 279.960938 576.863281 279.832031 577.113281 279.730469 C 577.363281 279.625 577.617188 279.550781 577.882812 279.5 Z M 577.882812 279.5 " fill-opacity="1" fill-rule="nonzero"/><g clip-path="url(#a9eb974ead)"><path stroke-linecap="butt" transform="matrix(0.335107, -0.0627581, 0.0590884, 0.355919, 904.437609, 163.355138)" fill="none" stroke-linejoin="miter" d="M -1000.899652 149.838327 L -445.072034 149.837982 C -444.27888 149.83516 -443.50074 149.917492 -442.724432 150.076326 C -441.957554 150.222523 -441.20569 150.453873 -440.478269 150.757738 C -439.748971 151.05096 -439.057299 151.425348 -438.399498 151.859614 C -437.743574 152.304525 -437.142256 152.794682 -436.587991 153.353369 C -436.02242 153.914049 -435.534066 154.515989 -435.090888 155.175814 C -434.657139 155.823002 -434.291176 156.524087 -433.987371 157.247138 C -433.683566 157.970189 -433.455099 158.723857 -433.300094 159.497496 C -433.14509 160.271135 -433.072976 161.052108 -433.072446 161.84241 L -433.070633 926.972694 C -433.070104 927.762995 -433.148711 928.539343 -433.297027 929.314374 C -433.456648 930.087412 -433.682223 930.837845 -433.985058 931.56368 C -434.287894 932.289515 -434.654806 932.982101 -435.097102 933.639445 C -435.526216 934.288138 -436.030712 934.901589 -436.582351 935.451852 C -437.147171 936.010765 -437.747828 936.508484 -438.408809 936.951666 C -439.056609 937.386197 -439.751549 937.757541 -440.48045 938.057045 C -441.209351 938.35655 -441.960906 938.586209 -442.733239 938.735379 C -443.507449 938.895193 -444.277949 938.96786 -445.071104 938.970682 L -1000.898721 938.971027 C -1001.691876 938.973849 -1002.470016 938.891517 -1003.236895 938.745321 C -1004.013202 938.586487 -1004.765066 938.355137 -1005.492487 938.051271 C -1006.221784 937.758049 -1006.913457 937.383661 -1007.571257 936.949395 C -1008.215876 936.506478 -1008.8285 936.014327 -1009.382765 935.45564 C -1009.93703 934.896954 -1010.43669 934.29302 -1010.879868 933.633195 C -1011.313617 932.986007 -1011.681456 932.295566 -1011.983385 931.561871 C -1012.28719 930.83882 -1012.515657 930.085153 -1012.670661 929.311513 C -1012.825666 928.537874 -1012.89778 927.756901 -1012.898309 926.966599 L -1012.900122 161.836315 C -1012.902528 161.056658 -1012.822044 160.269666 -1012.673729 159.494635 C -1012.514108 158.721597 -1012.288532 157.971164 -1011.985697 157.245329 C -1011.682862 156.519494 -1011.315949 155.826908 -1010.873653 155.169564 C -1010.44454 154.520871 -1009.940043 153.90742 -1009.388405 153.357158 C -1008.823584 152.798244 -1008.222927 152.300525 -1007.563823 151.867987 C -1006.914147 151.422812 -1006.219206 151.051468 -1005.490306 150.751964 C -1004.761405 150.452459 -1004.00985 150.2228 -1003.237517 150.07363 C -1002.463307 149.913816 -1001.692807 149.841149 -1000.899652 149.838327 Z M -1000.899652 149.838327 " stroke="#000000" stroke-width="4" stroke-opacity="1" stroke-miterlimit="4"/></g><path stroke-linecap="butt" transform="matrix(0.335107, -0.0627581, 0.0590884, 0.355919, 904.437609, 163.355138)" fill="none" stroke-linejoin="miter" d="M -488.834079 767.43956 L -916.927675 767.441929 " stroke="#000000" stroke-width="2.375" stroke-opacity="1" stroke-miterlimit="4"/><path stroke-linecap="butt" transform="matrix(0.335107, -0.0627581, 0.0590884, 0.355919, 904.437609, 163.355138)" fill="none" stroke-linejoin="miter" d="M -488.833108 718.249277 L -916.926704 718.251646 " stroke="#000000" stroke-width="2.375" stroke-opacity="1" stroke-miterlimit="4"/><path stroke-linecap="butt" transform="matrix(0.335107, -0.0627581, 0.0590884, 0.355919, 904.437609, 163.355138)" fill="none" stroke-linejoin="miter" d="M -488.832137 669.058994 L -916.925733 669.061364 " stroke="#000000" stroke-width="2.375" stroke-opacity="1" stroke-miterlimit="4"/><path stroke-linecap="butt" transform="matrix(0.335107, -0.0627581, 0.0590884, 0.355919, 904.437609, 163.355138)" fill="none" stroke-linejoin="miter" d="M -488.831165 619.868711 L -916.924761 619.871081 " stroke="#000000" stroke-width="2.375" stroke-opacity="1" stroke-miterlimit="4"/><path stroke-linecap="butt" transform="matrix(0.335107, -0.0627581, 0.0590884, 0.355919, 904.437609, 163.355138)" fill="none" stroke-linejoin="miter" d="M -488.830194 570.678429 L -916.935095 570.678805 " stroke="#000000" stroke-width="2.375" stroke-opacity="1" stroke-miterlimit="4"/><path stroke-linecap="butt" transform="matrix(0.335107, -0.0627581, 0.0590884, 0.355919, 904.437609, 163.355138)" fill="none" stroke-linejoin="miter" d="M -488.829223 521.488146 L -916.934124 521.488522 " stroke="#000000" stroke-width="2.375" stroke-opacity="1" stroke-miterlimit="4"/><path stroke-linecap="butt" transform="matrix(0.335107, -0.0627581, 0.0590884, 0.355919, 904.437609, 163.355138)" fill="none" stroke-linejoin="miter" d="M -488.828252 472.297863 L -916.933153 472.298239 " stroke="#000000" stroke-width="2.375" stroke-opacity="1" stroke-miterlimit="4"/><path stroke-linecap="butt" transform="matrix(0.335107, -0.0627581, 0.0590884, 0.355919, 904.437609, 163.355138)" fill="none" stroke-linejoin="miter" d="M -488.82728 423.107581 L -916.932182 423.107957 " stroke="#000000" stroke-width="2.375" stroke-opacity="1" stroke-miterlimit="4"/><path stroke-linecap="butt" transform="matrix(0.335107, -0.0627581, 0.0590884, 0.355919, 904.437609, 163.355138)" fill="none" stroke-linejoin="miter" d="M -488.826309 373.917298 L -916.93121 373.917674 " stroke="#000000" stroke-width="2.375" stroke-opacity="1" stroke-miterlimit="4"/><path stroke-linecap="butt" transform="matrix(0.335107, -0.0627581, 0.0590884, 0.355919, 904.437609, 163.355138)" fill="none" stroke-linejoin="miter" d="M -488.825338 324.727015 L -916.930239 324.727391 " stroke="#000000" stroke-width="2.375" stroke-opacity="1" stroke-miterlimit="4"/><path stroke-linecap="butt" transform="matrix(0.335107, -0.0627581, 0.0590884, 0.355919, 904.437609, 163.355138)" fill="none" stroke-linejoin="miter" d="M -488.824367 275.536732 L -916.929268 275.537108 " stroke="#000000" stroke-width="2.375" stroke-opacity="1" stroke-miterlimit="4"/><path stroke-linecap="butt" transform="matrix(0.335107, -0.0627581, 0.0590884, 0.355919, 904.437609, 163.355138)" fill="none" stroke-linejoin="miter" d="M -488.834701 226.344456 L -916.928297 226.346826 " stroke="#000000" stroke-width="2.375" stroke-opacity="1" stroke-miterlimit="4"/><path stroke-linecap="butt" transform="matrix(0.335107, -0.0627581, 0.0590884, 0.355919, 904.437609, 163.355138)" fill="none" stroke-linejoin="miter" d="M -488.824716 865.822119 L -916.929618 865.822495 " stroke="#000000" stroke-width="2.375" stroke-opacity="1" stroke-miterlimit="4"/><path stroke-linecap="butt" transform="matrix(0.335107, -0.0627581, 0.0590884, 0.355919, 904.437609, 163.355138)" fill="none" stroke-linejoin="miter" d="M -488.83505 816.629842 L -916.928646 816.632212 " stroke="#000000" stroke-width="2.375" stroke-opacity="1" stroke-miterlimit="4"/><path stroke-linecap="butt" transform="matrix(0.340277, 0, 0, 0.36141, 1030.236506, 146.593285)" fill-opacity="1" fill="#ffffff" fill-rule="nonzero" stroke-linejoin="miter" d="M -1185.002694 313.487426 L -629.170421 313.487426 C -628.378327 313.487426 -627.597712 313.563084 -626.828577 313.72521 C -626.059441 313.876527 -625.301786 314.103503 -624.578569 314.406138 C -623.855352 314.708772 -623.155095 315.076257 -622.500756 315.508592 C -621.846417 315.951735 -621.237996 316.448921 -620.686974 317.000148 C -620.124472 317.562183 -619.630848 318.167453 -619.194622 318.826763 C -618.758396 319.475266 -618.379568 320.167002 -618.081097 320.901972 C -617.782627 321.626133 -617.553034 322.371911 -617.403799 323.150114 C -617.243084 323.917509 -617.174207 324.70652 -617.174207 325.484723 L -617.174207 1090.62047 C -617.174207 1091.409481 -617.243084 1092.187684 -617.403799 1092.965887 C -617.553034 1093.733282 -617.782627 1094.47906 -618.081097 1095.21403 C -618.379568 1095.938191 -618.758396 1096.629927 -619.194622 1097.289238 C -619.630848 1097.93774 -620.124472 1098.543009 -620.686974 1099.105045 C -621.237996 1099.667081 -621.846417 1100.164266 -622.500756 1100.596601 C -623.155095 1101.039744 -623.855352 1101.407229 -624.578569 1101.709864 C -625.301786 1102.012498 -626.059441 1102.239474 -626.828577 1102.390791 C -627.597712 1102.542109 -628.378327 1102.617767 -629.170421 1102.617767 L -1185.002694 1102.617767 C -1185.783309 1102.617767 -1186.563924 1102.542109 -1187.344539 1102.390791 C -1188.113674 1102.239474 -1188.85985 1102.012498 -1189.594546 1101.709864 C -1190.317763 1101.407229 -1191.006541 1101.039744 -1191.66088 1100.596601 C -1192.326699 1100.164266 -1192.923639 1099.667081 -1193.486141 1099.105045 C -1194.037164 1098.543009 -1194.542267 1097.93774 -1194.978493 1097.289238 C -1195.414719 1096.629927 -1195.782068 1095.938191 -1196.092018 1095.21403 C -1196.390488 1094.47906 -1196.620081 1093.733282 -1196.769316 1092.965887 C -1196.918551 1092.187684 -1196.998909 1091.409481 -1196.998909 1090.62047 L -1196.998909 325.484723 C -1196.998909 324.70652 -1196.918551 323.917509 -1196.769316 323.150114 C -1196.620081 322.371911 -1196.390488 321.626133 -1196.092018 320.901972 C -1195.782068 320.167002 -1195.414719 319.475266 -1194.978493 318.826763 C -1194.542267 318.167453 -1194.037164 317.562183 -1193.486141 317.000148 C -1192.923639 316.448921 -1192.326699 315.951735 -1191.67236 315.508592 C -1191.006541 315.076257 -1190.317763 314.708772 -1189.594546 314.406138 C -1188.85985 314.103503 -1188.113674 313.876527 -1187.344539 313.72521 C -1186.563924 313.563084 -1185.783309 313.487426 -1185.002694 313.487426 Z M -1185.002694 313.487426 " stroke="#000000" stroke-width="4" stroke-opacity="1" stroke-miterlimit="4"/><path stroke-linecap="butt" transform="matrix(0.340277, 0, 0, 0.36141, 1030.236506, 146.593285)" fill="none" stroke-linejoin="miter" d="M -673.022613 931.08884 L -1101.121027 931.08884 " stroke="#000000" stroke-width="2.375" stroke-opacity="1" stroke-miterlimit="4"/><path stroke-linecap="butt" transform="matrix(0.340277, 0, 0, 0.36141, 1030.236506, 146.593285)" fill="none" stroke-linejoin="miter" d="M -673.022613 881.899921 L -1101.121027 881.899921 " stroke="#000000" stroke-width="2.375" stroke-opacity="1" stroke-miterlimit="4"/><path stroke-linecap="butt" transform="matrix(0.340277, 0, 0, 0.36141, 1030.236506, 146.593285)" fill="none" stroke-linejoin="miter" d="M -673.022613 832.711001 L -1101.121027 832.711001 " stroke="#000000" stroke-width="2.375" stroke-opacity="1" stroke-miterlimit="4"/><path stroke-linecap="butt" transform="matrix(0.340277, 0, 0, 0.36141, 1030.236506, 146.593285)" fill="none" stroke-linejoin="miter" d="M -673.022613 783.522082 L -1101.121027 783.522082 " stroke="#000000" stroke-width="2.375" stroke-opacity="1" stroke-miterlimit="4"/><path stroke-linecap="butt" transform="matrix(0.340277, 0, 0, 0.36141, 1030.236506, 146.593285)" fill="none" stroke-linejoin="miter" d="M -673.022613 734.333163 L -1101.121027 734.333163 " stroke="#000000" stroke-width="2.375" stroke-opacity="1" stroke-miterlimit="4"/><path stroke-linecap="butt" transform="matrix(0.340277, 0, 0, 0.36141, 1030.236506, 146.593285)" fill="none" stroke-linejoin="miter" d="M -673.022613 685.144244 L -1101.121027 685.144244 " stroke="#000000" stroke-width="2.375" stroke-opacity="1" stroke-miterlimit="4"/><path stroke-linecap="butt" transform="matrix(0.340277, 0, 0, 0.36141, 1030.236506, 146.593285)" fill="none" stroke-linejoin="miter" d="M -673.022613 635.955324 L -1101.121027 635.955324 " stroke="#000000" stroke-width="2.375" stroke-opacity="1" stroke-miterlimit="4"/><path stroke-linecap="butt" transform="matrix(0.340277, 0, 0, 0.36141, 1030.236506, 146.593285)" fill="none" stroke-linejoin="miter" d="M -673.022613 586.755597 L -1101.121027 586.755597 " stroke="#000000" stroke-width="2.375" stroke-opacity="1" stroke-miterlimit="4"/><path stroke-linecap="butt" transform="matrix(0.340277, 0, 0, 0.36141, 1030.236506, 146.593285)" fill="none" stroke-linejoin="miter" d="M -673.022613 537.566677 L -1101.121027 537.566677 " stroke="#000000" stroke-width="2.375" stroke-opacity="1" stroke-miterlimit="4"/><path stroke-linecap="butt" transform="matrix(0.340277, 0, 0, 0.36141, 1030.236506, 146.593285)" fill="none" stroke-linejoin="miter" d="M -673.022613 488.377758 L -1101.121027 488.377758 " stroke="#000000" stroke-width="2.375" stroke-opacity="1" stroke-miterlimit="4"/><path stroke-linecap="butt" transform="matrix(0.340277, 0, 0, 0.36141, 1030.236506, 146.593285)" fill="none" stroke-linejoin="miter" d="M -673.022613 439.188839 L -1101.121027 439.188839 " stroke="#000000" stroke-width="2.375" stroke-opacity="1" stroke-miterlimit="4"/><path stroke-linecap="butt" transform="matrix(0.340277, 0, 0, 0.36141, 1030.236506, 146.593285)" fill="none" stroke-linejoin="miter" d="M -673.022613 389.99992 L -1101.121027 389.99992 " stroke="#000000" stroke-width="2.375" stroke-opacity="1" stroke-miterlimit="4"/><path stroke-linecap="butt" transform="matrix(0.340277, 0, 0, 0.36141, 1030.236506, 146.593285)" fill="none" stroke-linejoin="miter" d="M -673.022613 1029.499103 L -1101.121027 1029.499103 " stroke="#000000" stroke-width="2.375" stroke-opacity="1" stroke-miterlimit="4"/><path stroke-linecap="butt" transform="matrix(0.340277, 0, 0, 0.36141, 1030.236506, 146.593285)" fill="none" stroke-linejoin="miter" d="M -673.022613 980.277759 L -1101.121027 980.277759 " stroke="#000000" stroke-width="2.375" stroke-opacity="1" stroke-miterlimit="4"/><path fill="#ffffff" d="M 675.8125 249.726562 L 862.074219 284.609375 C 862.335938 284.660156 862.59375 284.734375 862.84375 284.839844 C 863.09375 284.941406 863.332031 285.070312 863.558594 285.222656 C 863.785156 285.375 863.992188 285.550781 864.1875 285.75 C 864.382812 285.945312 864.554688 286.160156 864.707031 286.394531 C 864.863281 286.625 864.992188 286.875 865.101562 287.132812 C 865.210938 287.394531 865.292969 287.664062 865.351562 287.941406 C 865.410156 288.21875 865.441406 288.5 865.445312 288.785156 C 865.453125 289.070312 865.433594 289.355469 865.386719 289.632812 L 820.175781 561.957031 C 820.128906 562.238281 820.054688 562.511719 819.960938 562.777344 C 819.863281 563.042969 819.742188 563.296875 819.597656 563.535156 C 819.453125 563.777344 819.289062 564 819.101562 564.203125 C 818.917969 564.410156 818.714844 564.59375 818.496094 564.757812 C 818.277344 564.921875 818.042969 565.058594 817.796875 565.175781 C 817.554688 565.289062 817.300781 565.378906 817.039062 565.4375 C 816.777344 565.5 816.511719 565.535156 816.242188 565.539062 C 815.976562 565.546875 815.707031 565.527344 815.445312 565.476562 L 629.183594 530.59375 C 628.917969 530.542969 628.660156 530.46875 628.410156 530.363281 C 628.160156 530.261719 627.921875 530.132812 627.699219 529.980469 C 627.472656 529.828125 627.261719 529.652344 627.066406 529.453125 C 626.875 529.257812 626.699219 529.042969 626.546875 528.808594 C 626.394531 528.578125 626.261719 528.328125 626.152344 528.070312 C 626.046875 527.808594 625.960938 527.539062 625.90625 527.261719 C 625.847656 526.984375 625.816406 526.703125 625.808594 526.417969 C 625.804688 526.132812 625.824219 525.851562 625.871094 525.570312 L 671.082031 253.246094 C 671.125 252.964844 671.199219 252.691406 671.296875 252.425781 C 671.394531 252.160156 671.515625 251.90625 671.65625 251.667969 C 671.800781 251.425781 671.964844 251.203125 672.152344 251 C 672.335938 250.792969 672.539062 250.609375 672.757812 250.445312 C 672.980469 250.28125 673.210938 250.144531 673.457031 250.027344 C 673.703125 249.914062 673.957031 249.824219 674.21875 249.765625 C 674.480469 249.703125 674.746094 249.667969 675.011719 249.664062 C 675.28125 249.65625 675.546875 249.675781 675.8125 249.726562 Z M 675.8125 249.726562 " fill-opacity="1" fill-rule="nonzero"/><g clip-path="url(#8aa9a2e553)"><path stroke-linecap="butt" transform="matrix(0.335107, 0.0627581, -0.0590884, 0.355919, 1154.119748, 153.37819)" fill="none" stroke-linejoin="miter" d="M -1337.994697 506.627735 L -782.16708 506.62808 C -781.38523 506.632895 -780.603425 506.703569 -779.829215 506.863383 C -779.056882 507.012553 -778.305327 507.242212 -777.576426 507.541717 C -776.847525 507.841221 -776.16389 508.214558 -775.502909 508.65774 C -774.843804 509.090277 -774.243147 509.587996 -773.689632 510.148904 C -773.126688 510.697173 -772.633497 511.312617 -772.193078 511.959317 C -771.750782 512.616661 -771.38387 513.309247 -771.081035 514.035082 C -770.778199 514.760917 -770.552624 515.51135 -770.404308 516.286381 C -770.244688 517.059419 -770.164203 517.846411 -770.166609 518.626068 L -770.168422 1283.756352 C -770.168952 1284.546653 -770.252371 1285.32962 -770.39607 1286.101266 C -770.551075 1286.874905 -770.779542 1287.628572 -771.083347 1288.351623 C -771.385276 1289.085318 -771.753115 1289.77576 -772.198169 1290.424941 C -772.630042 1291.082773 -773.129702 1291.686706 -773.683967 1292.245393 C -774.238232 1292.80408 -774.850856 1293.296231 -775.506779 1293.741141 C -776.153275 1294.173414 -776.844947 1294.547802 -777.574245 1294.841024 C -778.301666 1295.144889 -779.05353 1295.376239 -779.831714 1295.524429 C -780.596716 1295.68127 -781.386161 1295.765595 -782.16801 1295.760779 L -1337.995628 1295.760434 C -1338.788783 1295.757612 -1339.570588 1295.686939 -1340.344798 1295.527125 C -1341.117131 1295.377955 -1341.868686 1295.148296 -1342.586282 1294.846798 C -1343.315182 1294.547293 -1344.010123 1294.17595 -1344.671104 1293.732768 C -1345.318903 1293.298237 -1345.930866 1292.802511 -1346.484381 1292.241604 C -1347.036019 1291.691341 -1347.540516 1291.077891 -1347.980935 1290.431191 C -1348.411925 1289.771854 -1348.790143 1289.081261 -1349.081673 1288.353432 C -1349.384508 1287.627597 -1349.610084 1286.877164 -1349.769705 1286.104127 C -1349.91802 1285.329095 -1349.996628 1284.552748 -1349.996098 1283.762447 L -1349.994285 518.632162 C -1350.005061 517.843854 -1349.921642 517.060887 -1349.766637 516.287248 C -1349.611633 515.513609 -1349.383166 514.759942 -1349.090666 514.038884 C -1348.788737 513.305189 -1348.420898 512.614748 -1347.975844 511.965567 C -1347.543971 511.307735 -1347.044311 510.703801 -1346.490046 510.145115 C -1345.924476 509.584435 -1345.323157 509.094277 -1344.667234 508.649367 C -1344.009433 508.2151 -1343.31776 507.840712 -1342.588463 507.547491 C -1341.861042 507.243625 -1341.109178 507.012275 -1340.342299 506.866079 C -1339.565992 506.707245 -1338.787852 506.624913 -1337.994697 506.627735 Z M -1337.994697 506.627735 " stroke="#000000" stroke-width="4" stroke-opacity="1" stroke-miterlimit="4"/></g><path stroke-linecap="butt" transform="matrix(0.335107, 0.0627581, -0.0590884, 0.355919, 1154.119748, 153.37819)" fill="none" stroke-linejoin="miter" d="M -825.987597 1124.197918 L -1254.092498 1124.197542 " stroke="#000000" stroke-width="2.375" stroke-opacity="1" stroke-miterlimit="4"/><path stroke-linecap="butt" transform="matrix(0.335107, 0.0627581, -0.0590884, 0.355919, 1154.119748, 153.37819)" fill="none" stroke-linejoin="miter" d="M -825.990445 1074.996991 L -1254.095346 1074.996615 " stroke="#000000" stroke-width="2.375" stroke-opacity="1" stroke-miterlimit="4"/><path stroke-linecap="butt" transform="matrix(0.335107, 0.0627581, -0.0590884, 0.355919, 1154.119748, 153.37819)" fill="none" stroke-linejoin="miter" d="M -825.98583 1025.904499 L -1254.090731 1025.904123 " stroke="#000000" stroke-width="2.375" stroke-opacity="1" stroke-miterlimit="4"/><path stroke-linecap="butt" transform="matrix(0.335107, 0.0627581, -0.0590884, 0.355919, 1154.119748, 153.37819)" fill="none" stroke-linejoin="miter" d="M -825.98488 976.659002 L -1254.089781 976.658626 " stroke="#000000" stroke-width="2.375" stroke-opacity="1" stroke-miterlimit="4"/><path stroke-linecap="butt" transform="matrix(0.335107, 0.0627581, -0.0590884, 0.355919, 1154.119748, 153.37819)" fill="none" stroke-linejoin="miter" d="M -825.985851 927.46872 L -1254.090752 927.468344 " stroke="#000000" stroke-width="2.375" stroke-opacity="1" stroke-miterlimit="4"/><path stroke-linecap="butt" transform="matrix(0.335107, 0.0627581, -0.0590884, 0.355919, 1154.119748, 153.37819)" fill="none" stroke-linejoin="miter" d="M -825.986822 878.278437 L -1254.091724 878.278061 " stroke="#000000" stroke-width="2.375" stroke-opacity="1" stroke-miterlimit="4"/><path stroke-linecap="butt" transform="matrix(0.335107, 0.0627581, -0.0590884, 0.355919, 1154.119748, 153.37819)" fill="none" stroke-linejoin="miter" d="M -825.987794 829.088154 L -1254.092695 829.087778 " stroke="#000000" stroke-width="2.375" stroke-opacity="1" stroke-miterlimit="4"/><path stroke-linecap="butt" transform="matrix(0.335107, 0.0627581, -0.0590884, 0.355919, 1154.119748, 153.37819)" fill="none" stroke-linejoin="miter" d="M -825.988765 779.897871 L -1254.093666 779.897495 " stroke="#000000" stroke-width="2.375" stroke-opacity="1" stroke-miterlimit="4"/><path stroke-linecap="butt" transform="matrix(0.335107, 0.0627581, -0.0590884, 0.355919, 1154.119748, 153.37819)" fill="none" stroke-linejoin="miter" d="M -825.989736 730.707589 L -1254.094637 730.707213 " stroke="#000000" stroke-width="2.375" stroke-opacity="1" stroke-miterlimit="4"/><path stroke-linecap="butt" transform="matrix(0.335107, 0.0627581, -0.0590884, 0.355919, 1154.119748, 153.37819)" fill="none" stroke-linejoin="miter" d="M -825.990707 681.517306 L -1254.095609 681.51693 " stroke="#000000" stroke-width="2.375" stroke-opacity="1" stroke-miterlimit="4"/><path stroke-linecap="butt" transform="matrix(0.335107, 0.0627581, -0.0590884, 0.355919, 1154.119748, 153.37819)" fill="none" stroke-linejoin="miter" d="M -825.991679 632.327023 L -1254.085275 632.324654 " stroke="#000000" stroke-width="2.375" stroke-opacity="1" stroke-miterlimit="4"/><path stroke-linecap="butt" transform="matrix(0.335107, 0.0627581, -0.0590884, 0.355919, 1154.119748, 153.37819)" fill="none" stroke-linejoin="miter" d="M -825.99265 583.13674 L -1254.086246 583.134371 " stroke="#000000" stroke-width="2.375" stroke-opacity="1" stroke-miterlimit="4"/><path stroke-linecap="butt" transform="matrix(0.335107, 0.0627581, -0.0590884, 0.355919, 1154.119748, 153.37819)" fill="none" stroke-linejoin="miter" d="M -825.993206 1222.601765 L -1254.086802 1222.599396 " stroke="#000000" stroke-width="2.375" stroke-opacity="1" stroke-miterlimit="4"/><path stroke-linecap="butt" transform="matrix(0.335107, 0.0627581, -0.0590884, 0.355919, 1154.119748, 153.37819)" fill="none" stroke-linejoin="miter" d="M -825.984749 1173.398845 L -1254.08965 1173.398469 " stroke="#000000" stroke-width="2.375" stroke-opacity="1" stroke-miterlimit="4"/></svg>