<svg xmlns="http://www.w3.org/2000/svg" xmlns:xlink="http://www.w3.org/1999/xlink" width="1920" zoomAndPan="magnify" viewBox="526 236 373 350" height="1080" preserveAspectRatio="xMidYMid meet" version="1.0"><path fill="#fdba74" d="M 756.398438 557.15625 L 617.984375 557.15625 C 599.519531 557.15625 584.550781 542.1875 584.550781 523.714844 L 584.550781 373.613281 L 700.617188 289.839844 C 701.015625 289.570312 702.160156 289.570312 702.535156 289.839844 L 818.589844 373.613281 L 818.589844 377.152344 C 812.742188 379.066406 807.101562 381.550781 801.875 384.839844 C 789.824219 377.277344 775.882812 373.230469 761.304688 373.230469 C 740.882812 373.230469 721.683594 381.179688 707.25 395.625 C 692.800781 410.066406 684.851562 429.269531 684.851562 449.707031 C 684.851562 470.140625 692.804688 489.335938 706.304688 502.796875 Z M 756.398438 557.15625 " fill-opacity="1" fill-rule="nonzero"/><path fill="#f87171" d="M 872.859375 480.132812 L 801.875 557.15625 L 730.890625 480.132812 C 714.085938 463.328125 714.085938 436.082031 730.890625 419.277344 C 747.691406 402.46875 774.929688 402.472656 791.734375 419.277344 L 801.875 429.417969 L 812.015625 419.277344 C 828.816406 402.472656 856.058594 402.472656 872.859375 419.277344 C 889.660156 436.082031 889.660156 463.328125 872.859375 480.132812 Z M 872.859375 480.132812 " fill-opacity="1" fill-rule="nonzero"/><path fill="#0f172a" d="M 748.695312 548.796875 L 764.105469 565.515625 L 617.984375 565.515625 C 594.941406 565.515625 576.191406 546.765625 576.191406 523.714844 L 576.191406 379.648438 L 592.90625 367.582031 L 592.90625 523.714844 C 592.90625 537.546875 604.15625 548.796875 617.984375 548.796875 Z M 676.152344 255.949219 L 546.226562 349.734375 C 542.480469 352.433594 541.636719 357.660156 544.339844 361.402344 C 547.039062 365.15625 552.273438 365.996094 556.003906 363.289062 L 685.929688 269.503906 C 695.140625 262.855469 708.003906 262.855469 717.210938 269.503906 L 847.128906 363.289062 C 848.617188 364.355469 850.328125 364.871094 852.027344 364.871094 C 854.605469 364.871094 857.167969 363.671875 858.804688 361.402344 C 861.511719 357.664062 860.664062 352.4375 856.925781 349.734375 L 726.988281 255.949219 C 712.019531 245.140625 691.105469 245.140625 676.152344 255.949219 Z M 878.765625 413.367188 C 898.796875 433.402344 898.796875 466 878.765625 486.046875 L 808.011719 562.824219 C 806.445312 564.539062 804.210938 565.515625 801.875 565.515625 C 799.539062 565.515625 797.304688 564.539062 795.734375 562.824219 L 724.742188 485.800781 C 715.273438 476.339844 709.929688 463.433594 709.929688 449.707031 C 709.929688 435.976562 715.273438 423.074219 724.980469 413.367188 C 744.390625 393.945312 778.265625 393.960938 797.644531 413.367188 L 801.875 417.597656 L 806.101562 413.367188 C 825.496094 393.960938 859.371094 393.945312 878.765625 413.367188 Z M 866.949219 425.1875 C 853.839844 412.085938 831 412.101562 817.921875 425.1875 L 807.785156 435.328125 C 804.519531 438.59375 799.230469 438.59375 795.964844 435.328125 L 785.828125 425.1875 C 779.28125 418.640625 770.582031 415.03125 761.308594 415.03125 C 752.050781 415.03125 743.351562 418.640625 736.804688 425.1875 C 730.257812 431.734375 726.648438 440.4375 726.648438 449.707031 C 726.648438 458.964844 730.257812 467.675781 736.804688 474.222656 L 801.878906 544.820312 L 866.722656 474.46875 C 880.46875 460.703125 880.46875 438.699219 866.949219 425.1875 Z M 866.949219 425.1875 " fill-opacity="1" fill-rule="nonzero"/></svg>