<svg xmlns="http://www.w3.org/2000/svg" xmlns:xlink="http://www.w3.org/1999/xlink" width="1920" zoomAndPan="magnify" viewBox="418 301 605 208" height="1080" preserveAspectRatio="xMidYMid meet" version="1.0"><path fill="#040606" d="M 441.4375 490.042969 C 465.148438 464.472656 500.097656 450.78125 534.839844 452.089844 C 553.808594 452.761719 570.941406 458.746094 587.980469 466.71875 C 597.574219 471.242188 607.144531 475.898438 617.257812 479.117188 C 626.984375 482.21875 637.21875 483.824219 647.425781 484.027344 C 688.5625 484.863281 726.125 463.902344 754.75 435.71875 C 768.539062 422.148438 782.832031 406.496094 788.972656 387.78125 C 794.152344 372.046875 792.035156 352.125 778.960938 340.707031 C 765.710938 329.097656 746.453125 330.792969 732.101562 339.371094 C 715.714844 349.171875 707.15625 367.15625 701.292969 384.5625 C 699.707031 389.269531 698.289062 394.03125 696.878906 398.789062 C 699.351562 398.789062 701.824219 398.789062 704.285156 398.789062 C 700.707031 377.058594 696.53125 353.777344 680.777344 337.226562 C 667.324219 323.0625 646.496094 316.050781 628.445312 325.78125 C 612.496094 334.378906 602.832031 353.144531 602.832031 370.941406 C 602.832031 392.152344 614.695312 411.570312 629.179688 426.234375 C 657.90625 455.324219 699.175781 471.089844 739.761719 471.765625 C 760.335938 472.113281 780.960938 468.496094 800.097656 460.921875 C 821.792969 452.324219 842.019531 439.507812 865.054688 434.566406 C 886.34375 430.023438 909.300781 432.503906 929.210938 441.285156 C 939.464844 445.808594 948.332031 452.140625 957.167969 458.929688 C 966.058594 465.78125 975.546875 472.367188 986.917969 474.042969 C 992.351562 474.828125 997.808594 474.492188 1002.976562 472.550781 C 1007.554688 470.824219 1005.570312 463.402344 1000.933594 465.128906 C 979.398438 473.285156 961.183594 450.515625 944.695312 440.664062 C 927.207031 430.207031 906.746094 424.714844 886.375 424.714844 C 864.546875 424.714844 844.695312 432.035156 825.183594 441.183594 C 806.183594 450.097656 787.59375 458.808594 766.691406 462.226562 C 728.679688 468.425781 688.285156 459.664062 656.199219 438.4375 C 639.945312 427.675781 624.992188 413.449219 616.492188 395.703125 C 608.523438 379.050781 608.289062 359.914062 619.035156 344.445312 C 623.695312 337.746094 630.457031 332.214844 638.382812 329.957031 C 647.128906 327.453125 656.34375 329.28125 664.128906 333.722656 C 682.585938 344.28125 690.003906 365.039062 694.019531 384.777344 C 695.101562 390.078125 696 395.46875 696.878906 400.828125 C 697.53125 404.75 703.292969 404.167969 704.285156 400.828125 C 709.402344 383.542969 714.835938 364.671875 728.269531 351.839844 C 739.261719 341.363281 757.945312 335.347656 771.503906 344.566406 C 785.285156 353.953125 786.121094 373.535156 780.859375 387.78125 C 774.375 405.34375 759.9375 420.25 746.605469 432.921875 C 718.761719 459.398438 682.3125 478.59375 642.972656 476.15625 C 622.539062 474.910156 604.949219 466.046875 586.671875 457.703125 C 570.542969 450.332031 554.054688 445.320312 536.257812 444.449219 C 503.253906 442.859375 469.652344 454.285156 444.777344 476.054688 C 441.703125 478.75 438.78125 481.617188 436.003906 484.628906 C 432.652344 488.234375 438.066406 493.675781 441.4375 490.042969 " fill-opacity="1" fill-rule="nonzero"/></svg>