<svg xmlns="http://www.w3.org/2000/svg" xmlns:xlink="http://www.w3.org/1999/xlink" width="1920" zoomAndPan="magnify" viewBox="554 223 333 356" height="1080" preserveAspectRatio="xMidYMid meet" version="1.0"><defs><clipPath id="14f74bb76f"><path d="M 573.582031 243 L 866.3125 243 L 866.3125 559 L 573.582031 559 Z M 573.582031 243 " clip-rule="nonzero"/></clipPath></defs><path fill="#f6b737" d="M 806.09375 388.886719 C 801.429688 409.355469 790.902344 426.570312 777.136719 442.144531 C 770.121094 450.082031 762.832031 457.9375 757.789062 467.335938 C 755.15625 472.246094 753.238281 477.503906 752.039062 482.9375 C 750.839844 488.375 751.132812 493.808594 750.324219 499.253906 C 748.945312 508.539062 740.132812 510.054688 732.183594 510.007812 C 720.925781 509.933594 709.648438 508.800781 698.597656 506.648438 C 697.644531 507.019531 696.339844 506.722656 696.167969 505.558594 C 695.378906 500.289062 694.613281 495.011719 693.558594 489.789062 C 691.382812 479.015625 687.820312 468.609375 680.984375 459.863281 C 674.867188 452.035156 667.222656 445.585938 660.5625 438.25 C 647.722656 424.128906 640.324219 405.824219 638.753906 386.859375 C 637.328125 369.636719 640.796875 351.632812 649.882812 336.808594 C 659.5625 321.019531 675.214844 310.828125 692.726562 305.539062 C 712.046875 299.707031 734.179688 298 754.148438 300.75 C 773.335938 303.398438 792.546875 312.605469 801.71875 330.511719 C 810.714844 348.089844 810.382812 370.050781 806.09375 388.886719 " fill-opacity="1" fill-rule="nonzero"/><path fill="#f59a3d" d="M 750.21875 451.703125 C 743.128906 449.1875 741.921875 439.105469 735.261719 446.507812 C 734.546875 447.304688 728.472656 478.996094 728.851562 480.433594 C 734.339844 501.335938 760.9375 455.503906 750.21875 451.703125 Z M 741.675781 321.457031 C 745.773438 319.113281 759.367188 320.933594 762.65625 316.152344 C 767.890625 308.539062 756.171875 305.59375 750.351562 304.914062 C 733.195312 302.90625 735.476562 325 741.675781 321.457031 Z M 797.132812 354.0625 C 797.171875 380.058594 788.605469 411.84375 770.980469 431.683594 C 765.890625 437.410156 755.554688 447.222656 749.019531 438.203125 C 745.265625 433.027344 750.304688 408.121094 750.097656 402.152344 C 749.5625 386.414062 746.046875 371.441406 744.246094 355.894531 C 742.746094 342.941406 744.625 338.746094 756.679688 333.546875 C 779.269531 323.804688 797.089844 325.691406 797.132812 354.0625 " fill-opacity="1" fill-rule="nonzero"/><path fill="#c49261" d="M 758.84375 527.722656 C 758.625 532.566406 755.804688 537.335938 751.117188 538.246094 C 752.78125 542.949219 750.140625 547.988281 746.082031 550.867188 C 746.195312 555.308594 745.050781 559.363281 741.167969 562.394531 C 736.707031 565.878906 730.667969 566.890625 725.148438 566.933594 C 717.308594 566.996094 700.457031 563.261719 701.1875 552.976562 C 698.503906 552.308594 695.859375 551.320312 693.878906 549.445312 C 691.832031 547.507812 690.84375 544.75 692 542.058594 C 692.765625 540.277344 694.132812 539.078125 695.714844 538.179688 C 691.070312 536.054688 687.285156 532.351562 686.570312 526.949219 C 685.957031 522.308594 688.417969 517.804688 692.542969 515.980469 C 689.003906 511.78125 685.804688 506.984375 686.457031 501.25 C 686.878906 497.5 689.320312 494.273438 692.679688 493.046875 C 692.871094 492.710938 693.203125 492.480469 693.65625 492.535156 C 693.886719 492.5625 694.121094 492.59375 694.351562 492.621094 C 695.003906 492.519531 695.675781 492.484375 696.367188 492.539062 C 696.785156 492.570312 697.117188 492.734375 697.367188 492.972656 C 704.519531 493.769531 711.695312 494.289062 718.902344 494.226562 C 727.121094 494.152344 735.085938 492.992188 743.230469 492.101562 C 748.632812 491.511719 754.730469 492.910156 756.320312 498.832031 C 757.714844 504.03125 756.25 509.429688 753.300781 513.761719 C 757.160156 517.269531 759.082031 522.460938 758.84375 527.722656 " fill-opacity="1" fill-rule="nonzero"/><g clip-path="url(#14f74bb76f)"><path fill="#2e2e30" d="M 743.542969 552.03125 C 737.949219 555.875 731.769531 556.207031 725.171875 556.195312 C 717.855469 556.183594 711.144531 555.175781 704.09375 553.3125 C 703.058594 553.035156 702.34375 554.570312 703.347656 555.085938 C 710.25 558.648438 718.832031 558.683594 726.414062 558.75 C 732.730469 558.804688 740.230469 558.699219 744.941406 553.84375 C 745.824219 552.9375 744.65625 551.265625 743.542969 552.03125 Z M 747.847656 537.113281 C 744.015625 537.632812 740.261719 539.09375 736.429688 539.800781 C 732.277344 540.566406 728.070312 541.003906 723.851562 541.128906 C 715.667969 541.371094 707.597656 540.25 699.652344 538.34375 C 698.257812 538.011719 697.683594 540.078125 699.0625 540.496094 C 707.292969 542.984375 715.914062 544.003906 724.503906 543.832031 C 732.191406 543.679688 741.941406 543.132812 748.867188 539.53125 C 750.320312 538.777344 749.210938 536.929688 747.847656 537.113281 Z M 723.933594 519.742188 C 731.863281 519.351562 741.558594 518.992188 748.859375 515.640625 C 749.851562 515.183594 749.367188 513.492188 748.296875 513.570312 C 744.453125 513.855469 740.65625 515.101562 736.84375 515.734375 C 732.351562 516.476562 727.8125 516.988281 723.265625 517.195312 C 714.714844 517.578125 706.484375 516.410156 697.996094 515.863281 C 696.792969 515.785156 696.585938 517.628906 697.714844 517.933594 C 706.027344 520.167969 715.394531 520.164062 723.933594 519.742188 Z M 764.597656 385.714844 C 764.453125 385.011719 763.515625 384.519531 762.082031 384.394531 C 761.878906 384.378906 761.675781 384.367188 761.46875 384.367188 C 758.234375 384.367188 754.960938 386.5 752.738281 388.707031 C 754.300781 389.25 755.925781 389.535156 757.480469 389.535156 C 759.289062 389.535156 760.921875 389.15625 762.339844 388.410156 C 764.085938 387.484375 764.734375 386.390625 764.597656 385.714844 Z M 745.25 389.429688 L 745.136719 389.386719 L 745.054688 389.316406 C 744.109375 388.511719 743.226562 387.617188 742.429688 386.65625 C 741.050781 385.003906 739.863281 383.09375 738.902344 380.964844 C 736.484375 382.621094 733.734375 383.496094 730.890625 383.496094 C 726.433594 383.496094 722.1875 381.3125 719.363281 377.617188 C 716.0625 381.777344 712.054688 384.058594 708 384.058594 C 706.519531 384.058594 705.039062 383.753906 703.582031 383.152344 C 703.054688 386.007812 702.394531 388.316406 701.523438 390.371094 C 701.347656 390.785156 701.058594 391.289062 700.75 391.824219 C 700.332031 392.539062 699.636719 393.734375 699.683594 394.148438 C 699.75 394.742188 700.898438 396.074219 701.730469 397.050781 C 702.464844 397.898438 703.152344 398.703125 703.5 399.347656 C 704.503906 401.210938 705.382812 403.34375 706.183594 405.871094 C 709.175781 415.355469 709.679688 425.640625 709.914062 434.535156 C 710.167969 444.238281 709.921875 454.117188 709.679688 463.671875 C 709.621094 465.902344 709.566406 468.128906 709.515625 470.355469 C 709.390625 475.917969 709.226562 481.707031 709.027344 487.554688 C 709.015625 487.890625 709.027344 488.496094 709.046875 489.257812 C 709.0625 490.121094 709.078125 490.980469 709.082031 491.824219 C 713.648438 492.054688 718.214844 492.246094 722.816406 492.140625 C 728.460938 492.007812 734.03125 491.484375 739.605469 490.882812 C 739.136719 488.34375 739.050781 484.984375 739.039062 481.582031 C 739.035156 480.617188 739.035156 479.785156 739.003906 479.289062 C 738.347656 468.378906 738.34375 456.589844 738.988281 442.179688 C 739.113281 439.496094 739.210938 436.800781 739.316406 434.101562 C 739.652344 425.304688 739.996094 416.210938 740.996094 407.394531 C 741.367188 404.152344 741.8125 401.546875 742.410156 399.195312 C 742.601562 398.449219 743.015625 397.359375 743.492188 396.09375 C 744.1875 394.28125 745.804688 390.027344 745.25 389.429688 Z M 700.375 375.171875 C 700.414062 374.882812 700.460938 374.578125 700.503906 374.265625 C 701.085938 370.289062 701.960938 364.277344 700.320312 361.441406 C 699.796875 360.53125 699.046875 359.992188 698.320312 359.992188 C 697.785156 359.992188 697.257812 360.277344 696.746094 360.839844 C 695.636719 362.0625 696.328125 364.796875 696.738281 366.429688 L 696.824219 366.777344 C 697.695312 370.285156 698.859375 373.046875 700.375 375.171875 Z M 719.953125 368.730469 C 721.316406 366.453125 722.808594 363.765625 723.058594 361.292969 C 723.167969 360.210938 722.785156 358.441406 722.105469 357.691406 C 721.941406 357.511719 721.785156 357.421875 721.636719 357.421875 C 721.496094 357.421875 721.09375 357.511719 720.476562 358.355469 C 718.523438 361.023438 719.007812 365.242188 719.953125 368.730469 Z M 741 372.769531 C 744.296875 368.542969 745.761719 365.160156 745.355469 362.710938 C 745.109375 361.242188 743.796875 359.953125 742.542969 359.953125 C 741.523438 359.953125 741 360.832031 740.734375 361.570312 C 739.84375 364.039062 739.9375 367.804688 741 372.769531 Z M 692.414062 394.617188 C 691.574219 394.328125 690.699219 394.179688 689.824219 394.179688 C 688.175781 394.179688 686.71875 394.699219 685.640625 395.65625 C 686.390625 396.015625 687.179688 396.195312 687.996094 396.195312 C 689.695312 396.195312 691.238281 395.4375 692.414062 394.617188 Z M 768.769531 385.039062 C 769.152344 388.230469 766.722656 392.316406 761.46875 393.597656 C 760.320312 393.878906 759.074219 394.019531 757.765625 394.019531 C 756.933594 394.019531 756.066406 393.960938 755.191406 393.847656 C 754.648438 393.777344 753.757812 393.441406 752.722656 393.054688 C 751.71875 392.675781 750.332031 392.15625 749.832031 392.15625 C 748.699219 392.476562 747.125 395.101562 745.960938 405.769531 L 745.890625 406.421875 C 743.019531 431.289062 742.265625 456.46875 743.640625 481.257812 C 743.65625 481.515625 743.726562 482.085938 743.8125 482.808594 C 744.125 485.410156 744.410156 488.125 744.414062 490.351562 C 745.390625 490.242188 746.363281 490.132812 747.34375 490.023438 C 748.882812 489.855469 749.199219 492.429688 747.707031 492.707031 C 739.558594 494.222656 731.089844 494.703125 722.816406 494.859375 C 714.597656 495.015625 706.039062 494.964844 697.925781 493.523438 C 696.652344 493.296875 696.980469 491.265625 698.222656 491.304688 C 700.222656 491.371094 702.222656 491.464844 704.214844 491.570312 C 704.226562 487.476562 704.488281 481.804688 704.992188 474.136719 C 705.128906 472.074219 705.234375 470.441406 705.246094 469.738281 C 705.414062 460.304688 705.566406 449.175781 705.414062 438.171875 C 705.28125 428.824219 704.78125 418.855469 702.035156 409.316406 C 701.949219 409.011719 701.84375 408.625 701.726562 408.183594 C 700.976562 405.398438 699.222656 398.890625 696.957031 397.9375 C 696.953125 397.933594 696.90625 397.917969 696.796875 397.917969 C 696.125 397.917969 694.738281 398.492188 693.402344 399.046875 C 691.464844 399.851562 689.273438 400.765625 687.546875 400.765625 C 687.421875 400.765625 687.300781 400.757812 687.179688 400.75 C 684.691406 400.550781 681.445312 399.519531 680.496094 397.28125 C 680.101562 396.359375 679.96875 394.855469 681.550781 392.929688 C 683.386719 390.703125 686.191406 389.472656 689.449219 389.472656 C 689.792969 389.472656 690.140625 389.488281 690.484375 389.515625 C 691.242188 389.578125 692.144531 389.941406 693.015625 390.289062 C 693.84375 390.621094 694.695312 390.964844 695.222656 390.964844 C 695.253906 390.964844 695.285156 390.960938 695.316406 390.960938 C 696.378906 390.839844 696.992188 389.292969 697.582031 387.800781 L 697.933594 386.929688 C 698.5 385.53125 699.277344 383.617188 699.277344 382.253906 C 699.277344 380.464844 698.910156 380.03125 698.027344 378.980469 C 697.691406 378.585938 697.3125 378.136719 696.875 377.523438 C 694.367188 374.027344 690.5 365.191406 692.457031 359.648438 C 693.214844 357.492188 694.757812 356.078125 697.042969 355.445312 C 697.738281 355.253906 698.402344 355.15625 699.019531 355.15625 C 700.488281 355.15625 701.734375 355.691406 702.722656 356.75 C 705.585938 359.820312 705.453125 366.519531 705.265625 369.253906 C 705.222656 369.898438 705.011719 371.003906 704.773438 372.285156 C 704.417969 374.164062 703.683594 378.074219 704.082031 378.710938 C 704.777344 379.695312 706.121094 379.902344 707.128906 379.902344 C 709.109375 379.902344 711.480469 379.101562 712.628906 378.328125 C 714.023438 377.386719 715.679688 375.875 716.234375 374.625 C 716.863281 373.210938 716.578125 372.277344 716.148438 370.859375 C 715.972656 370.273438 715.769531 369.609375 715.617188 368.832031 C 714.632812 363.761719 714.960938 359.753906 716.601562 356.925781 C 717.785156 354.882812 720.105469 352.820312 722.617188 352.820312 C 723.59375 352.820312 724.519531 353.128906 725.359375 353.726562 C 729.027344 356.34375 727.703125 361.960938 726.960938 364.25 C 726.625 365.296875 725.636719 366.828125 724.589844 368.453125 C 723.398438 370.296875 721.769531 372.820312 721.855469 373.761719 C 722.027344 375.71875 726.207031 378.292969 728.316406 378.882812 C 728.988281 379.074219 729.863281 379.175781 730.777344 379.175781 C 733.636719 379.175781 736.886719 378.214844 737.261719 376.105469 C 737.503906 374.71875 736.996094 372.785156 736.5 370.914062 C 736.074219 369.300781 735.636719 367.632812 735.632812 366.183594 C 735.632812 363.847656 736.402344 361.160156 737.691406 358.996094 C 739.179688 356.503906 741.09375 355.132812 743.078125 355.132812 C 744.878906 355.132812 746.59375 356.234375 748.183594 358.40625 C 750.425781 361.472656 750.289062 365.707031 747.777344 370.636719 L 744.625 375.433594 C 744.289062 375.855469 743.992188 376.191406 743.742188 376.480469 C 742.660156 377.730469 742.59375 377.800781 743.375 379.933594 C 744.097656 381.882812 745.722656 383.773438 746.625 384.726562 C 747.136719 385.265625 748 386.167969 748.285156 386.167969 C 748.425781 386.167969 748.738281 385.957031 749.101562 385.707031 C 749.390625 385.511719 749.730469 385.277344 750.164062 385.019531 C 751.015625 384.515625 751.804688 383.976562 752.566406 383.453125 C 754.769531 381.945312 756.855469 380.519531 760.039062 380.109375 C 760.652344 380.03125 761.25 379.988281 761.820312 379.988281 C 766.496094 379.988281 768.472656 382.597656 768.769531 385.039062 Z M 829.113281 468.402344 C 824.484375 464.566406 819.464844 461.226562 814.851562 457.359375 C 810.433594 453.660156 806.425781 449.375 801.785156 445.957031 C 800.3125 444.871094 798.238281 447.007812 799.261719 448.480469 C 802.667969 453.347656 807.484375 457.296875 812.054688 461.039062 C 816.667969 464.8125 821.492188 468.664062 826.816406 471.375 C 828.621094 472.292969 830.859375 469.847656 829.113281 468.402344 Z M 865.316406 424.648438 C 859.441406 420.359375 852.789062 417.058594 846.359375 413.695312 C 840.464844 410.605469 833.746094 406.0625 827.109375 405.003906 C 825.304688 404.71875 823.433594 406.925781 825.128906 408.410156 C 830.214844 412.886719 837.613281 415.3125 843.625 418.371094 C 850.121094 421.679688 856.457031 425.460938 863.164062 428.324219 C 865.675781 429.394531 867.558594 426.285156 865.316406 424.648438 Z M 830.957031 338.046875 C 836.621094 337.136719 842.175781 335.160156 847.675781 333.5625 C 853.175781 331.960938 858.914062 330.617188 864.226562 328.472656 C 866.585938 327.519531 865.726562 324.171875 863.167969 324.628906 C 857.304688 325.679688 851.511719 327.679688 845.789062 329.320312 C 840.320312 330.886719 834.679688 332.207031 829.433594 334.429688 C 827.210938 335.371094 828.941406 338.375 830.957031 338.046875 Z M 811.8125 264.988281 C 813.242188 263.003906 809.996094 261.191406 808.566406 263.089844 C 804.539062 268.425781 800.414062 273.695312 796.191406 278.882812 C 792.359375 283.585938 788.03125 288.074219 784.640625 293.109375 C 783.414062 294.933594 786.066406 296.753906 787.574219 295.375 C 792.386719 290.964844 796.386719 285.328125 800.402344 280.203125 C 804.3125 275.210938 808.109375 270.132812 811.8125 264.988281 Z M 722.820312 283.574219 C 723.625 277.308594 722.570312 270.507812 722.4375 264.183594 C 722.300781 257.714844 722.359375 251.25 722.304688 244.785156 C 722.285156 242.378906 718.78125 242.429688 718.609375 244.785156 C 718.121094 251.464844 718.027344 258.179688 718.058594 264.878906 C 718.085938 271.074219 717.605469 278.03125 719.101562 284.078125 C 719.65625 286.324219 722.566406 285.542969 722.820312 283.574219 Z M 635.675781 291.925781 C 631.773438 286.792969 628.066406 281.1875 623.632812 276.496094 C 622.113281 274.886719 619.449219 276.957031 620.582031 278.855469 C 624.019531 284.636719 628.585938 289.953125 632.628906 295.324219 C 636.472656 300.433594 640.101562 306.261719 644.707031 310.71875 C 646.273438 312.234375 648.710938 310.320312 647.691406 308.414062 C 644.546875 302.539062 639.703125 297.222656 635.675781 291.925781 Z M 612.316406 361.632812 C 616.628906 362.175781 621.164062 363.070312 625.507812 362.679688 C 627.855469 362.464844 628.472656 359.238281 626.078125 358.484375 C 622.347656 357.308594 618.265625 357.117188 614.398438 356.636719 C 609.773438 356.066406 605.152344 355.457031 600.539062 354.808594 C 592.261719 353.648438 584.007812 352.089844 575.699219 351.175781 C 573.226562 350.902344 572.773438 354.875 575.121094 355.472656 C 583.441406 357.582031 592.058594 358.765625 600.539062 360.019531 C 604.460938 360.601562 608.386719 361.136719 612.316406 361.632812 Z M 632.046875 432.101562 C 626.671875 435.78125 620.683594 438.585938 615.074219 441.898438 C 609.875 444.96875 604.617188 449.472656 598.964844 451.523438 C 597.070312 452.210938 596.003906 449.675781 597.140625 448.390625 C 599.25 446.007812 602.277344 444.390625 604.9375 442.683594 C 607.691406 440.917969 610.46875 439.199219 613.28125 437.535156 C 618.828125 434.261719 624.496094 430.796875 630.601562 428.671875 C 632.730469 427.929688 633.6875 430.972656 632.046875 432.101562 " fill-opacity="1" fill-rule="nonzero"/></g><path fill="#ffffff" d="M 663.820312 409.800781 C 662.84375 407.015625 662.476562 404.148438 660.890625 401.628906 C 660.503906 401.007812 659.566406 401.128906 659.355469 401.828125 C 657.589844 407.621094 660.140625 414.628906 663.042969 419.679688 C 665.425781 423.828125 669.203125 430.585938 674.386719 431.183594 C 675.027344 431.253906 675.605469 430.570312 675.59375 429.980469 C 675.476562 425.308594 670.253906 421.398438 667.863281 417.710938 C 666.253906 415.230469 664.804688 412.59375 663.820312 409.800781 Z M 680.683594 336.425781 C 673.6875 340.71875 668.714844 347.644531 665.675781 355.179688 C 662.042969 364.191406 662.335938 373.644531 660.132812 382.925781 C 659.621094 385.097656 655.933594 385.285156 655.550781 382.925781 C 653.925781 372.816406 656.363281 361.105469 660.417969 351.808594 C 664.078125 343.410156 670.074219 336.46875 678.171875 332.128906 C 681 330.617188 683.417969 334.753906 680.683594 336.425781 " fill-opacity="1" fill-rule="nonzero"/></svg>