<svg xmlns="http://www.w3.org/2000/svg" xmlns:xlink="http://www.w3.org/1999/xlink" width="1920" zoomAndPan="magnify" viewBox="340 32 728 728" height="1080" preserveAspectRatio="xMidYMid meet" version="1.0"><defs><clipPath id="3ec8459cb8"><path d="M 359.550781 51.636719 L 1048.050781 51.636719 L 1048.050781 740.136719 L 359.550781 740.136719 Z M 359.550781 51.636719 " clip-rule="nonzero"/></clipPath><clipPath id="0ff364093c"><path d="M 548 51.636719 L 725 51.636719 L 725 153 L 548 153 Z M 548 51.636719 " clip-rule="nonzero"/></clipPath><clipPath id="8fb0904417"><path d="M 388 153 L 885 153 L 885 740.136719 L 388 740.136719 Z M 388 153 " clip-rule="nonzero"/></clipPath></defs><path fill="#2d4045" d="M 724.480469 149.707031 L 694.460938 149.707031 C 692.457031 149.707031 690.457031 148.375 689.121094 147.039062 C 688.457031 145.039062 687.789062 143.039062 688.457031 141.035156 L 703.800781 78.324219 C 705.132812 75.65625 707.804688 73.652344 710.472656 73.652344 L 740.492188 73.652344 C 742.496094 73.652344 744.496094 74.320312 745.164062 75.65625 C 746.496094 77.65625 747.164062 79.65625 746.496094 81.660156 L 730.484375 144.371094 C 729.820312 147.707031 727.148438 149.707031 724.480469 149.707031 Z M 724.480469 149.707031 " fill-opacity="1" fill-rule="evenodd"/><path fill="#000000" d="M 724.480469 152.378906 L 694.460938 152.378906 C 693.125 152.378906 691.792969 151.710938 690.457031 151.042969 C 689.121094 150.375 688.457031 149.707031 687.121094 148.375 C 686.453125 147.707031 685.785156 146.371094 685.785156 145.039062 C 685.121094 143.703125 685.121094 141.703125 685.785156 140.367188 L 701.796875 77.65625 C 701.796875 75.65625 703.132812 73.652344 705.132812 72.320312 C 706.46875 71.652344 708.46875 70.984375 710.472656 70.984375 L 740.492188 70.984375 C 741.828125 70.984375 743.160156 70.984375 744.496094 71.652344 C 745.832031 72.320312 746.496094 72.988281 747.832031 74.320312 C 748.5 75.65625 749.167969 76.988281 749.167969 78.324219 C 749.832031 79.65625 749.832031 80.992188 749.167969 82.328125 L 733.15625 145.039062 C 732.488281 147.039062 731.820312 149.042969 729.820312 150.375 C 728.484375 151.710938 726.484375 152.378906 724.480469 152.378906 Z M 694.460938 147.039062 L 724.480469 147.039062 C 725.148438 147.039062 725.816406 146.371094 726.484375 145.707031 C 727.148438 145.707031 727.816406 145.039062 728.484375 143.703125 L 743.828125 80.992188 C 744.496094 80.324219 744.496094 79.65625 743.828125 78.992188 C 743.828125 78.324219 743.828125 78.324219 743.160156 77.65625 C 743.160156 76.988281 742.496094 76.988281 741.828125 76.320312 C 741.160156 76.320312 740.492188 76.320312 740.492188 76.320312 L 740.492188 75.65625 L 710.472656 75.65625 L 710.472656 76.320312 C 709.804688 76.320312 708.46875 76.320312 707.804688 76.988281 C 707.136719 77.65625 707.136719 78.324219 706.46875 78.992188 L 690.457031 141.703125 C 690.457031 142.371094 690.457031 143.039062 690.457031 143.703125 C 691.125 144.371094 691.125 145.039062 691.792969 145.039062 C 691.792969 145.707031 692.457031 146.371094 693.125 146.371094 C 693.125 147.039062 693.792969 147.039062 694.460938 147.039062 Z M 694.460938 147.039062 " fill-opacity="1" fill-rule="nonzero"/><path fill="#3d585f" d="M 694.460938 149.707031 L 578.375 149.707031 C 575.039062 149.707031 572.371094 147.707031 571.703125 144.371094 L 551.023438 62.3125 C 551.023438 60.976562 551.023438 58.308594 552.355469 56.976562 C 553.691406 54.972656 555.691406 54.304688 557.695312 54.304688 L 715.140625 54.304688 C 717.144531 54.304688 719.144531 54.972656 720.480469 56.976562 C 721.8125 58.308594 722.480469 60.976562 721.8125 62.3125 L 701.132812 144.371094 C 700.464844 147.707031 697.796875 149.707031 694.460938 149.707031 Z M 694.460938 149.707031 " fill-opacity="1" fill-rule="evenodd"/><g clip-path="url(#0ff364093c)"><path fill="#000000" d="M 694.460938 152.378906 L 578.375 152.378906 C 576.375 152.378906 574.371094 151.710938 572.371094 150.375 C 571.035156 149.042969 569.703125 147.039062 569.035156 145.039062 L 548.355469 62.980469 C 548.355469 61.644531 548.355469 60.308594 548.355469 58.976562 C 549.019531 57.640625 549.6875 56.308594 550.355469 54.972656 C 551.023438 54.304688 552.355469 52.972656 553.691406 52.304688 C 555.023438 52.304688 556.359375 51.636719 557.695312 51.636719 L 715.140625 51.636719 C 716.476562 51.636719 718.476562 52.304688 719.144531 52.304688 C 720.480469 52.972656 721.8125 54.304688 722.480469 54.972656 C 723.816406 56.308594 724.480469 57.640625 724.480469 58.976562 C 724.480469 60.308594 724.480469 61.644531 724.480469 62.980469 L 703.800781 145.039062 C 703.132812 147.039062 701.796875 149.042969 700.464844 150.375 C 698.460938 151.710938 696.460938 152.378906 694.460938 152.378906 Z M 578.375 147.039062 L 694.460938 147.039062 C 695.792969 147.039062 696.460938 146.371094 697.128906 145.707031 C 697.796875 145.707031 698.460938 145.039062 698.460938 143.703125 L 719.144531 62.3125 C 719.144531 61.644531 719.144531 60.976562 719.144531 60.308594 C 719.144531 59.644531 719.144531 58.976562 718.476562 58.308594 C 717.808594 58.308594 717.808594 57.640625 717.144531 57.640625 C 716.476562 56.976562 715.808594 56.976562 715.140625 56.976562 L 557.695312 56.976562 C 557.027344 56.976562 556.359375 56.976562 555.691406 57.640625 C 555.691406 57.640625 555.023438 58.308594 554.359375 58.308594 C 554.359375 58.976562 553.691406 59.644531 553.691406 60.308594 C 553.691406 60.976562 553.691406 61.644531 553.691406 62.3125 L 574.371094 143.703125 C 575.039062 145.039062 575.039062 145.707031 575.707031 145.707031 C 576.375 146.371094 577.707031 147.039062 578.375 147.039062 Z M 578.375 147.039062 " fill-opacity="1" fill-rule="nonzero"/></g><path fill="#ffffff" d="M 669.773438 108.34375 L 603.058594 108.34375 C 599.058594 108.34375 596.386719 105.675781 596.386719 101.675781 C 596.386719 98.339844 599.058594 95.003906 603.058594 95.003906 L 669.773438 95.003906 C 673.777344 95.003906 676.445312 98.339844 676.445312 101.675781 C 676.445312 105.675781 673.777344 108.34375 669.773438 108.34375 Z M 669.773438 108.34375 " fill-opacity="1" fill-rule="evenodd"/><path fill="#000000" d="M 669.773438 111.015625 L 603.058594 111.015625 C 600.390625 111.015625 598.390625 110.347656 596.386719 108.34375 C 595.054688 107.011719 593.71875 104.34375 593.71875 101.675781 C 593.71875 99.671875 595.054688 97.003906 596.386719 95.003906 C 598.390625 93.667969 600.390625 92.332031 603.058594 92.332031 L 669.773438 92.332031 C 672.445312 92.332031 675.113281 93.667969 676.445312 95.003906 C 678.449219 97.003906 679.117188 99.671875 679.117188 101.675781 C 679.117188 104.34375 678.449219 107.011719 676.445312 108.34375 C 675.113281 110.347656 672.445312 111.015625 669.773438 111.015625 Z M 603.058594 105.675781 L 669.773438 105.675781 C 671.109375 105.675781 672.445312 105.675781 673.109375 105.007812 C 673.777344 104.34375 673.777344 103.007812 673.777344 101.675781 C 673.777344 101.007812 673.777344 99.671875 673.109375 99.003906 C 672.445312 98.339844 671.109375 97.671875 669.773438 97.671875 L 603.058594 97.671875 C 601.726562 97.671875 601.058594 98.339844 600.390625 99.003906 C 599.722656 99.671875 599.058594 101.007812 599.058594 101.675781 C 599.058594 103.007812 599.722656 104.34375 600.390625 105.007812 C 601.058594 105.675781 601.726562 105.675781 603.058594 105.675781 Z M 603.058594 105.675781 " fill-opacity="1" fill-rule="nonzero"/><path fill="#fe904b" d="M 861.914062 737.46875 L 411.585938 737.46875 C 400.246094 737.46875 390.90625 728.128906 390.90625 717.453125 L 390.90625 176.394531 C 390.90625 165.054688 400.246094 155.714844 411.585938 155.714844 L 531.007812 155.714844 C 534.34375 155.714844 537.679688 159.050781 537.679688 162.382812 L 537.679688 195.074219 C 537.679688 200.414062 541.683594 204.414062 547.019531 204.414062 L 725.816406 204.414062 C 731.152344 204.414062 735.824219 200.414062 735.824219 195.074219 L 735.824219 162.382812 C 735.824219 159.050781 738.492188 155.714844 742.496094 155.714844 L 861.914062 155.714844 C 872.589844 155.714844 881.929688 165.054688 881.929688 176.394531 L 881.929688 256.453125 C 881.929688 257.789062 881.929688 258.453125 881.261719 259.789062 L 738.492188 558.671875 L 759.171875 610.710938 L 813.210938 594.699219 L 869.253906 477.945312 C 870.585938 474.613281 873.921875 473.277344 876.59375 473.945312 C 879.929688 474.613281 881.929688 477.28125 881.929688 480.617188 L 881.929688 717.453125 C 881.929688 728.128906 872.589844 737.46875 861.914062 737.46875 Z M 861.914062 737.46875 " fill-opacity="1" fill-rule="evenodd"/><g clip-path="url(#8fb0904417)"><path fill="#000000" d="M 861.914062 740.136719 L 411.585938 740.136719 C 404.917969 740.136719 399.578125 737.46875 394.910156 733.464844 C 390.90625 729.464844 388.238281 723.457031 388.238281 717.453125 L 388.238281 176.394531 C 388.238281 169.722656 390.90625 164.386719 394.910156 159.714844 C 399.578125 155.714844 404.917969 153.042969 411.585938 153.042969 L 531.007812 153.042969 C 533.007812 153.042969 535.679688 154.378906 537.011719 155.714844 C 539.011719 157.714844 540.347656 159.714844 540.347656 162.382812 L 540.347656 195.074219 C 540.347656 197.078125 541.015625 198.410156 542.347656 199.746094 C 543.683594 201.078125 545.019531 201.746094 547.019531 201.746094 L 725.816406 201.746094 C 727.816406 201.746094 729.820312 201.078125 731.152344 199.746094 C 732.488281 198.410156 733.15625 197.078125 733.15625 195.074219 L 733.15625 162.382812 C 733.15625 159.714844 733.820312 157.714844 735.824219 155.714844 C 737.15625 154.378906 739.824219 153.042969 742.496094 153.042969 L 861.914062 153.042969 C 867.917969 153.042969 873.921875 155.714844 877.925781 159.714844 C 881.929688 164.386719 884.597656 169.722656 884.597656 176.394531 L 884.597656 256.453125 C 884.597656 257.121094 884.597656 258.453125 884.597656 259.121094 C 883.929688 259.789062 883.929688 260.457031 883.929688 261.121094 L 741.160156 558.671875 L 761.175781 607.375 L 811.210938 592.695312 L 866.585938 476.613281 C 867.917969 474.613281 869.253906 473.277344 871.253906 471.941406 C 873.257812 471.277344 875.257812 471.277344 877.257812 471.277344 C 879.261719 471.941406 881.261719 473.277344 882.597656 474.613281 C 883.929688 476.613281 884.597656 478.613281 884.597656 480.617188 L 884.597656 717.453125 C 884.597656 723.457031 881.929688 729.464844 877.925781 733.464844 C 873.921875 737.46875 867.917969 740.136719 861.914062 740.136719 Z M 411.585938 734.800781 L 861.914062 734.800781 C 866.585938 734.800781 871.253906 732.800781 873.921875 729.464844 C 877.257812 726.128906 879.261719 722.125 879.261719 717.453125 L 879.261719 480.617188 C 879.261719 479.28125 879.261719 478.613281 878.59375 477.945312 C 877.925781 477.28125 877.257812 476.613281 875.925781 476.613281 C 875.257812 476.613281 874.589844 476.613281 873.257812 476.613281 C 872.589844 477.28125 871.921875 477.945312 871.921875 478.613281 L 815.882812 596.03125 L 815.214844 596.699219 L 813.878906 597.367188 L 759.839844 613.378906 L 757.839844 614.046875 L 757.171875 612.042969 L 735.824219 560.007812 L 735.15625 558.671875 L 735.824219 557.339844 L 879.261719 258.453125 C 879.261719 258.453125 879.261719 257.789062 879.261719 257.789062 C 879.261719 257.121094 879.261719 257.121094 879.261719 256.453125 L 879.261719 176.394531 C 879.261719 171.058594 877.257812 167.054688 873.921875 163.71875 C 871.253906 160.382812 866.585938 158.382812 861.914062 158.382812 L 742.496094 158.382812 C 741.160156 158.382812 740.492188 159.050781 739.824219 159.714844 C 738.492188 160.382812 738.492188 161.71875 738.492188 162.382812 L 738.492188 195.074219 C 738.492188 198.410156 737.15625 201.746094 734.488281 203.746094 C 732.488281 205.75 729.152344 207.082031 725.816406 207.082031 L 547.019531 207.082031 C 543.683594 207.082031 540.347656 205.75 538.347656 203.746094 C 536.34375 201.746094 535.011719 198.410156 535.011719 195.074219 L 535.011719 162.382812 C 535.011719 161.71875 534.34375 160.382812 533.675781 159.714844 C 533.007812 159.050781 531.675781 158.382812 531.007812 158.382812 L 411.585938 158.382812 C 406.25 158.382812 402.246094 160.382812 398.910156 163.71875 C 395.574219 167.054688 393.574219 171.058594 393.574219 176.394531 L 393.574219 717.453125 C 393.574219 722.125 395.574219 726.128906 398.910156 729.464844 C 402.246094 732.800781 406.25 734.800781 411.585938 734.800781 Z M 411.585938 734.800781 " fill-opacity="1" fill-rule="nonzero"/></g><path fill="#ffffff" d="M 846.570312 708.78125 L 426.933594 708.78125 C 422.929688 708.78125 420.261719 705.445312 420.261719 702.109375 L 420.261719 191.738281 C 420.261719 187.738281 422.929688 185.066406 426.933594 185.066406 L 531.007812 185.066406 C 534.34375 185.066406 537.679688 187.738281 537.679688 191.738281 L 537.679688 195.074219 C 537.679688 200.414062 541.683594 204.414062 547.019531 204.414062 L 725.816406 204.414062 C 731.152344 204.414062 735.824219 200.414062 735.824219 195.074219 L 735.824219 191.738281 C 735.824219 187.738281 738.492188 185.066406 742.496094 185.066406 L 846.570312 185.066406 C 849.90625 185.066406 853.242188 187.738281 853.242188 191.738281 L 853.242188 317.164062 C 853.242188 318.496094 852.574219 319.164062 852.574219 320.5 L 738.492188 558.671875 L 759.171875 610.710938 L 813.210938 594.699219 L 840.566406 537.992188 C 841.898438 535.320312 844.570312 533.988281 847.90625 534.65625 C 850.574219 535.320312 853.242188 537.992188 853.242188 541.328125 L 853.242188 702.109375 C 853.242188 705.445312 849.90625 708.78125 846.570312 708.78125 Z M 846.570312 708.78125 " fill-opacity="1" fill-rule="evenodd"/><path fill="#000000" d="M 846.570312 711.449219 L 426.933594 711.449219 C 424.261719 711.449219 421.59375 710.117188 420.261719 708.113281 C 418.257812 706.78125 417.59375 704.113281 417.59375 702.109375 L 417.59375 191.738281 C 417.59375 189.070312 418.257812 186.402344 420.261719 185.066406 C 421.59375 183.066406 424.261719 182.398438 426.933594 182.398438 L 531.007812 182.398438 C 533.007812 182.398438 535.679688 183.066406 537.011719 185.066406 C 539.011719 186.402344 540.347656 189.070312 540.347656 191.738281 L 540.347656 195.074219 C 540.347656 197.078125 541.015625 198.410156 542.347656 199.746094 C 543.683594 201.078125 545.019531 201.746094 547.019531 201.746094 L 725.816406 201.746094 C 727.816406 201.746094 729.820312 201.078125 731.152344 199.746094 C 732.488281 198.410156 733.15625 197.078125 733.15625 195.074219 L 733.15625 191.738281 C 733.15625 189.070312 733.820312 186.402344 735.824219 185.066406 C 737.15625 183.066406 739.824219 182.398438 742.496094 182.398438 L 846.570312 182.398438 C 849.238281 182.398438 851.242188 183.066406 853.242188 185.066406 C 854.574219 186.402344 855.910156 189.070312 855.910156 191.738281 L 855.910156 317.164062 C 855.910156 317.832031 855.910156 318.496094 855.242188 319.164062 C 855.242188 319.832031 855.242188 320.5 854.574219 321.167969 L 741.160156 558.671875 L 761.175781 607.375 L 811.210938 592.695312 L 837.898438 537.324219 C 838.566406 535.320312 840.566406 533.320312 842.566406 532.652344 C 843.902344 531.988281 846.570312 531.320312 848.570312 531.988281 C 850.574219 532.652344 852.574219 533.320312 853.910156 535.320312 C 855.242188 536.65625 855.910156 538.65625 855.910156 541.328125 L 855.910156 702.109375 C 855.910156 704.113281 854.574219 706.78125 853.242188 708.113281 C 851.242188 710.117188 849.238281 711.449219 846.570312 711.449219 Z M 426.933594 706.113281 L 846.570312 706.113281 C 847.238281 706.113281 848.570312 705.445312 849.238281 704.777344 C 849.90625 704.113281 850.574219 702.777344 850.574219 702.109375 L 850.574219 541.328125 C 850.574219 539.992188 849.90625 539.324219 849.238281 538.65625 C 849.238281 537.992188 847.90625 537.324219 847.238281 537.324219 C 846.570312 536.65625 845.234375 537.324219 844.570312 537.324219 C 843.902344 537.992188 843.234375 538.65625 842.566406 539.324219 L 815.882812 596.03125 L 815.214844 596.699219 L 813.878906 597.367188 L 759.839844 613.378906 L 757.839844 614.046875 L 757.171875 612.042969 L 735.824219 560.007812 L 735.15625 558.671875 L 735.824219 557.339844 L 849.90625 319.164062 C 849.90625 318.496094 849.90625 318.496094 850.574219 318.496094 C 850.574219 317.832031 850.574219 317.832031 850.574219 317.164062 L 850.574219 191.738281 C 850.574219 190.40625 849.90625 189.738281 849.238281 189.070312 C 848.570312 187.738281 847.238281 187.738281 846.570312 187.738281 L 742.496094 187.738281 C 741.160156 187.738281 740.492188 187.738281 739.824219 189.070312 C 738.492188 189.738281 738.492188 190.40625 738.492188 191.738281 L 738.492188 195.074219 C 738.492188 198.410156 737.15625 201.746094 734.488281 203.746094 C 732.488281 205.75 729.152344 207.082031 725.816406 207.082031 L 547.019531 207.082031 C 543.683594 207.082031 540.347656 205.75 538.347656 203.746094 C 536.34375 201.746094 535.011719 198.410156 535.011719 195.074219 L 535.011719 191.738281 C 535.011719 190.40625 534.34375 189.738281 533.675781 189.070312 C 533.007812 187.738281 531.675781 187.738281 531.007812 187.738281 L 426.933594 187.738281 C 425.597656 187.738281 424.261719 187.738281 423.597656 189.070312 C 422.929688 189.738281 422.929688 190.40625 422.929688 191.738281 L 422.929688 702.109375 C 422.929688 702.777344 422.929688 704.113281 423.597656 704.777344 C 424.261719 705.445312 425.597656 706.113281 426.933594 706.113281 Z M 426.933594 706.113281 " fill-opacity="1" fill-rule="nonzero"/><path fill="#547982" d="M 725.816406 217.757812 L 547.019531 217.757812 C 534.34375 217.757812 524.335938 207.75 524.335938 195.074219 L 524.335938 159.050781 C 524.335938 146.371094 534.34375 136.367188 547.019531 136.367188 L 725.816406 136.367188 C 738.492188 136.367188 749.167969 146.371094 749.167969 159.050781 L 749.167969 195.074219 C 749.167969 207.75 738.492188 217.757812 725.816406 217.757812 Z M 725.816406 217.757812 " fill-opacity="1" fill-rule="evenodd"/><path fill="#000000" d="M 725.816406 220.425781 L 547.019531 220.425781 C 539.679688 220.425781 533.675781 217.757812 529.007812 213.089844 C 524.335938 208.417969 521.667969 201.746094 521.667969 195.074219 L 521.667969 159.050781 C 521.667969 152.378906 524.335938 145.707031 529.007812 141.035156 C 533.675781 136.367188 539.679688 133.695312 547.019531 133.695312 L 725.816406 133.695312 C 733.15625 133.695312 739.160156 136.367188 743.828125 141.035156 C 748.5 145.707031 751.835938 152.378906 751.835938 159.050781 L 751.835938 195.074219 C 751.835938 201.746094 748.5 208.417969 743.828125 213.089844 C 739.160156 217.757812 733.15625 220.425781 725.816406 220.425781 Z M 547.019531 215.089844 L 725.816406 215.089844 C 731.820312 215.089844 736.492188 213.089844 740.492188 209.085938 C 743.828125 205.75 746.496094 200.414062 746.496094 195.074219 L 746.496094 159.050781 C 746.496094 153.710938 743.828125 148.375 740.492188 145.039062 C 736.492188 141.035156 731.820312 139.035156 725.816406 139.035156 L 547.019531 139.035156 C 541.683594 139.035156 536.34375 141.035156 533.007812 145.039062 C 529.007812 148.375 527.003906 153.710938 527.003906 159.050781 L 527.003906 195.074219 C 527.003906 200.414062 529.007812 205.75 533.007812 209.085938 C 536.34375 213.089844 541.683594 215.089844 547.019531 215.089844 Z M 547.019531 215.089844 " fill-opacity="1" fill-rule="nonzero"/><path fill="#ffffff" d="M 687.121094 183.734375 L 585.714844 183.734375 C 582.378906 183.734375 579.042969 181.066406 579.042969 177.0625 C 579.042969 173.726562 582.378906 170.390625 585.714844 170.390625 L 687.121094 170.390625 C 690.457031 170.390625 693.792969 173.726562 693.792969 177.0625 C 693.792969 181.066406 690.457031 183.734375 687.121094 183.734375 Z M 687.121094 183.734375 " fill-opacity="1" fill-rule="evenodd"/><path fill="#000000" d="M 687.121094 186.402344 L 585.714844 186.402344 C 583.710938 186.402344 581.042969 185.066406 579.042969 183.734375 C 577.707031 181.730469 576.375 179.730469 576.375 177.0625 C 576.375 174.394531 577.707031 172.390625 579.042969 170.390625 C 581.042969 169.054688 583.710938 167.722656 585.714844 167.722656 L 687.121094 167.722656 C 689.789062 167.722656 691.792969 169.054688 693.792969 170.390625 C 695.128906 172.390625 696.460938 174.394531 696.460938 177.0625 C 696.460938 179.730469 695.128906 181.730469 693.792969 183.734375 C 691.792969 185.066406 689.789062 186.402344 687.121094 186.402344 Z M 585.714844 181.066406 L 687.121094 181.066406 C 688.457031 181.066406 689.121094 180.398438 689.789062 179.730469 C 690.457031 179.0625 691.125 178.394531 691.125 177.0625 C 691.125 175.726562 690.457031 175.058594 689.789062 174.394531 C 689.121094 173.726562 688.457031 173.058594 687.121094 173.058594 L 585.714844 173.058594 C 585.046875 173.058594 583.710938 173.726562 583.046875 174.394531 C 582.378906 175.058594 581.710938 175.726562 581.710938 177.0625 C 581.710938 178.394531 582.378906 179.0625 583.046875 179.730469 C 583.710938 180.398438 585.046875 181.066406 585.714844 181.066406 Z M 585.714844 181.066406 " fill-opacity="1" fill-rule="nonzero"/><path fill="#995e4c" d="M 627.746094 443.921875 L 463.625 443.921875 C 460.289062 443.921875 456.953125 440.585938 456.953125 437.25 L 456.953125 263.792969 C 456.953125 260.457031 460.289062 257.121094 463.625 257.121094 L 627.746094 257.121094 C 631.746094 257.121094 634.417969 260.457031 634.417969 263.792969 L 634.417969 437.25 C 634.417969 440.585938 631.746094 443.921875 627.746094 443.921875 Z M 627.746094 443.921875 " fill-opacity="1" fill-rule="evenodd"/><path fill="#000000" d="M 627.746094 446.589844 L 463.625 446.589844 C 460.957031 446.589844 458.957031 445.257812 456.953125 443.921875 C 455.621094 441.921875 454.285156 439.917969 454.285156 437.25 L 454.285156 263.792969 C 454.285156 261.789062 455.621094 259.121094 456.953125 257.121094 C 458.957031 255.785156 460.957031 254.453125 463.625 254.453125 L 627.746094 254.453125 C 630.414062 254.453125 633.082031 255.785156 634.417969 257.121094 C 636.417969 259.121094 637.085938 261.789062 637.085938 263.792969 L 637.085938 437.25 C 637.085938 439.917969 636.417969 441.921875 634.417969 443.921875 C 633.082031 445.257812 630.414062 446.589844 627.746094 446.589844 Z M 463.625 441.253906 L 627.746094 441.253906 C 629.078125 441.253906 630.414062 440.585938 631.082031 439.917969 C 631.746094 439.253906 631.746094 437.917969 631.746094 437.25 L 631.746094 263.792969 C 631.746094 263.125 631.746094 261.789062 631.082031 261.121094 C 630.414062 260.457031 629.078125 259.789062 627.746094 259.789062 L 463.625 259.789062 C 462.957031 259.789062 461.625 260.457031 460.957031 261.121094 C 460.289062 261.789062 459.621094 263.125 459.621094 263.792969 L 459.621094 437.25 C 459.621094 437.917969 460.289062 439.253906 460.957031 439.917969 C 461.625 440.585938 462.957031 441.253906 463.625 441.253906 Z M 463.625 441.253906 " fill-opacity="1" fill-rule="nonzero"/><path fill="#76483b" d="M 609.066406 443.921875 L 482.304688 443.921875 L 482.304688 395.886719 C 482.304688 375.207031 503.65625 349.855469 529.007812 349.855469 L 563.03125 349.855469 C 588.382812 349.855469 609.066406 370.535156 609.066406 395.886719 Z M 609.066406 443.921875 " fill-opacity="1" fill-rule="evenodd"/><path fill="#000000" d="M 609.066406 446.589844 L 479.636719 446.589844 L 479.636719 395.886719 C 479.636719 384.546875 486.308594 371.203125 495.648438 361.863281 C 504.320312 353.191406 516.332031 347.183594 529.007812 347.183594 L 563.03125 347.183594 C 576.375 347.183594 588.382812 352.523438 597.722656 361.195312 C 606.394531 369.867188 611.734375 382.542969 611.734375 395.886719 L 611.734375 446.589844 Z M 484.972656 441.253906 L 606.394531 441.253906 L 606.394531 395.886719 C 606.394531 383.878906 601.726562 373.203125 593.71875 365.199219 C 585.714844 357.191406 575.039062 352.523438 563.03125 352.523438 L 529.007812 352.523438 C 517.664062 352.523438 506.992188 357.859375 499.652344 365.867188 C 490.980469 374.539062 484.972656 385.878906 484.972656 395.886719 Z M 484.972656 441.253906 " fill-opacity="1" fill-rule="nonzero"/><path fill="#5f3b30" d="M 552.355469 443.921875 L 539.011719 443.921875 L 539.011719 382.542969 C 539.011719 379.207031 542.347656 375.871094 545.683594 375.871094 C 549.6875 375.871094 552.355469 379.207031 552.355469 382.542969 Z M 552.355469 443.921875 " fill-opacity="1" fill-rule="evenodd"/><path fill="#000000" d="M 552.355469 446.589844 L 536.34375 446.589844 L 536.34375 382.542969 C 536.34375 379.875 537.679688 377.875 539.011719 375.871094 C 541.015625 374.539062 543.015625 373.203125 545.683594 373.203125 C 548.355469 373.203125 551.023438 374.539062 552.355469 375.871094 C 554.359375 377.875 555.023438 379.875 555.023438 382.542969 L 555.023438 446.589844 Z M 541.683594 441.253906 L 549.6875 441.253906 L 549.6875 382.542969 C 549.6875 381.210938 549.6875 380.542969 549.019531 379.875 C 547.6875 379.207031 547.019531 378.542969 545.683594 378.542969 C 545.019531 378.542969 543.683594 379.207031 543.015625 379.875 C 542.347656 380.542969 541.683594 381.210938 541.683594 382.542969 Z M 541.683594 441.253906 " fill-opacity="1" fill-rule="nonzero"/><path fill="#5f3b30" d="M 514.996094 443.921875 L 501.652344 443.921875 L 501.652344 420.570312 C 501.652344 416.570312 504.320312 413.902344 508.324219 413.902344 C 511.660156 413.902344 514.996094 416.570312 514.996094 420.570312 Z M 514.996094 443.921875 " fill-opacity="1" fill-rule="evenodd"/><path fill="#000000" d="M 514.996094 446.589844 L 498.984375 446.589844 L 498.984375 420.570312 C 498.984375 417.902344 499.652344 415.902344 501.652344 413.902344 C 502.988281 412.566406 505.65625 411.230469 508.324219 411.230469 C 510.992188 411.230469 512.996094 412.566406 514.996094 413.902344 C 516.332031 415.902344 517.664062 417.902344 517.664062 420.570312 L 517.664062 446.589844 Z M 504.320312 441.253906 L 512.328125 441.253906 L 512.328125 420.570312 C 512.328125 419.238281 511.660156 418.570312 510.992188 417.902344 C 510.324219 417.238281 509.660156 416.570312 508.324219 416.570312 C 506.992188 416.570312 506.324219 417.238281 505.65625 417.902344 C 504.988281 418.570312 504.320312 419.238281 504.320312 420.570312 Z M 504.320312 441.253906 " fill-opacity="1" fill-rule="nonzero"/><path fill="#5f3b30" d="M 590.382812 443.921875 L 577.042969 443.921875 L 577.042969 420.570312 C 577.042969 416.570312 579.710938 413.902344 583.710938 413.902344 C 587.046875 413.902344 590.382812 416.570312 590.382812 420.570312 Z M 590.382812 443.921875 " fill-opacity="1" fill-rule="evenodd"/><path fill="#000000" d="M 590.382812 446.589844 L 574.371094 446.589844 L 574.371094 420.570312 C 574.371094 417.902344 575.039062 415.902344 577.042969 413.902344 C 578.375 412.566406 581.042969 411.230469 583.710938 411.230469 C 586.382812 411.230469 588.382812 412.566406 590.382812 413.902344 C 591.71875 415.902344 593.054688 417.902344 593.054688 420.570312 L 593.054688 446.589844 Z M 579.710938 441.253906 L 587.714844 441.253906 L 587.714844 420.570312 C 587.714844 419.238281 587.046875 418.570312 586.382812 417.902344 C 585.714844 417.238281 584.378906 416.570312 583.710938 416.570312 C 582.378906 416.570312 581.710938 417.238281 581.042969 417.902344 C 579.710938 418.570312 579.710938 419.238281 579.710938 420.570312 Z M 579.710938 441.253906 " fill-opacity="1" fill-rule="nonzero"/><path fill="#5f3b30" d="M 809.210938 285.140625 L 664.4375 285.140625 C 660.433594 285.140625 657.765625 281.804688 657.765625 278.46875 C 657.765625 274.464844 660.433594 271.796875 664.4375 271.796875 L 809.210938 271.796875 C 813.210938 271.796875 815.882812 274.464844 815.882812 278.46875 C 815.882812 281.804688 813.210938 285.140625 809.210938 285.140625 Z M 809.210938 285.140625 " fill-opacity="1" fill-rule="evenodd"/><path fill="#000000" d="M 809.210938 287.808594 L 664.4375 287.808594 C 661.769531 287.808594 659.101562 286.476562 657.765625 285.140625 C 655.765625 283.140625 655.097656 281.136719 655.097656 278.46875 C 655.097656 275.800781 655.765625 273.800781 657.765625 271.796875 C 659.101562 269.796875 661.769531 269.128906 664.4375 269.128906 L 809.210938 269.128906 C 811.878906 269.128906 813.878906 269.796875 815.882812 271.796875 C 817.882812 273.800781 818.550781 275.800781 818.550781 278.46875 C 818.550781 281.136719 817.882812 283.140625 815.882812 285.140625 C 813.878906 286.476562 811.878906 287.808594 809.210938 287.808594 Z M 664.4375 282.472656 L 809.210938 282.472656 C 810.542969 282.472656 811.210938 281.804688 811.878906 281.136719 C 812.546875 280.46875 813.210938 279.804688 813.210938 278.46875 C 813.210938 277.132812 812.546875 276.46875 811.878906 275.800781 C 811.210938 275.132812 810.542969 274.464844 809.210938 274.464844 L 664.4375 274.464844 C 663.105469 274.464844 661.769531 275.132812 661.101562 275.800781 C 660.433594 276.46875 660.433594 277.132812 660.433594 278.46875 C 660.433594 279.804688 660.433594 280.46875 661.101562 281.136719 C 661.769531 281.804688 663.105469 282.472656 664.4375 282.472656 Z M 664.4375 282.472656 " fill-opacity="1" fill-rule="nonzero"/><path fill="#5f3b30" d="M 809.210938 333.175781 L 664.4375 333.175781 C 660.433594 333.175781 657.765625 330.507812 657.765625 326.503906 C 657.765625 322.5 660.433594 319.832031 664.4375 319.832031 L 809.210938 319.832031 C 813.210938 319.832031 815.882812 322.5 815.882812 326.503906 C 815.882812 330.507812 813.210938 333.175781 809.210938 333.175781 Z M 809.210938 333.175781 " fill-opacity="1" fill-rule="evenodd"/><path fill="#000000" d="M 809.210938 335.84375 L 664.4375 335.84375 C 661.769531 335.84375 659.101562 334.507812 657.765625 333.175781 C 655.765625 331.175781 655.097656 329.171875 655.097656 326.503906 C 655.097656 323.835938 655.765625 321.832031 657.765625 319.832031 C 659.101562 318.496094 661.769531 317.164062 664.4375 317.164062 L 809.210938 317.164062 C 811.878906 317.164062 813.878906 318.496094 815.882812 319.832031 C 817.882812 321.832031 818.550781 323.835938 818.550781 326.503906 C 818.550781 329.171875 817.882812 331.175781 815.882812 333.175781 C 813.878906 334.507812 811.878906 335.84375 809.210938 335.84375 Z M 664.4375 330.507812 L 809.210938 330.507812 C 810.542969 330.507812 811.210938 329.839844 811.878906 329.171875 C 812.546875 328.503906 813.210938 327.839844 813.210938 326.503906 C 813.210938 325.167969 812.546875 324.503906 811.878906 323.835938 C 811.210938 323.167969 810.542969 322.5 809.210938 322.5 L 664.4375 322.5 C 663.105469 322.5 661.769531 323.167969 661.101562 323.835938 C 660.433594 324.503906 660.433594 325.167969 660.433594 326.503906 C 660.433594 327.839844 660.433594 328.503906 661.101562 329.171875 C 661.769531 329.839844 663.105469 330.507812 664.4375 330.507812 Z M 664.4375 330.507812 " fill-opacity="1" fill-rule="nonzero"/><path fill="#5f3b30" d="M 793.199219 381.210938 L 664.4375 381.210938 C 660.433594 381.210938 657.765625 378.542969 657.765625 374.539062 C 657.765625 371.203125 660.433594 367.867188 664.4375 367.867188 L 793.199219 367.867188 C 797.199219 367.867188 799.871094 371.203125 799.871094 374.539062 C 799.871094 378.542969 797.199219 381.210938 793.199219 381.210938 Z M 793.199219 381.210938 " fill-opacity="1" fill-rule="evenodd"/><path fill="#000000" d="M 793.199219 383.878906 L 664.4375 383.878906 C 661.769531 383.878906 659.101562 383.210938 657.765625 381.210938 C 655.765625 379.207031 655.097656 377.207031 655.097656 374.539062 C 655.097656 371.871094 655.765625 369.867188 657.765625 367.867188 C 659.101562 366.53125 661.769531 365.199219 664.4375 365.199219 L 793.199219 365.199219 C 795.867188 365.199219 798.535156 366.53125 799.871094 367.867188 C 801.871094 369.867188 802.539062 371.871094 802.539062 374.539062 C 802.539062 377.207031 801.871094 379.207031 799.871094 381.210938 C 798.535156 383.210938 795.867188 383.878906 793.199219 383.878906 Z M 664.4375 378.542969 L 793.199219 378.542969 C 794.53125 378.542969 795.199219 377.875 796.535156 377.207031 C 797.199219 376.539062 797.199219 375.871094 797.199219 374.539062 C 797.199219 373.203125 797.199219 372.539062 796.535156 371.871094 C 795.199219 371.203125 794.53125 370.535156 793.199219 370.535156 L 664.4375 370.535156 C 663.105469 370.535156 661.769531 371.203125 661.101562 371.871094 C 660.433594 372.539062 660.433594 373.203125 660.433594 374.539062 C 660.433594 375.871094 660.433594 376.539062 661.101562 377.207031 C 661.769531 377.875 663.105469 378.542969 664.4375 378.542969 Z M 664.4375 378.542969 " fill-opacity="1" fill-rule="nonzero"/><path fill="#5f3b30" d="M 773.183594 429.246094 L 664.4375 429.246094 C 660.433594 429.246094 657.765625 426.578125 657.765625 422.574219 C 657.765625 419.238281 660.433594 415.902344 664.4375 415.902344 L 773.183594 415.902344 C 776.519531 415.902344 779.855469 419.238281 779.855469 422.574219 C 779.855469 426.578125 776.519531 429.246094 773.183594 429.246094 Z M 773.183594 429.246094 " fill-opacity="1" fill-rule="evenodd"/><path fill="#000000" d="M 773.183594 431.914062 L 664.4375 431.914062 C 661.769531 431.914062 659.101562 431.246094 657.765625 429.246094 C 655.765625 427.910156 655.097656 425.242188 655.097656 422.574219 C 655.097656 419.90625 655.765625 417.902344 657.765625 415.902344 C 659.101562 414.566406 661.769531 413.234375 664.4375 413.234375 L 773.183594 413.234375 C 775.183594 413.234375 777.855469 414.566406 779.855469 415.902344 C 781.191406 417.902344 782.523438 419.90625 782.523438 422.574219 C 782.523438 425.242188 781.191406 427.910156 779.855469 429.246094 C 777.855469 431.246094 775.183594 431.914062 773.183594 431.914062 Z M 664.4375 426.578125 L 773.183594 426.578125 C 773.851562 426.578125 775.183594 425.910156 775.851562 425.242188 C 776.519531 424.574219 777.1875 423.90625 777.1875 422.574219 C 777.1875 421.238281 776.519531 420.570312 775.851562 419.90625 C 775.183594 419.238281 773.851562 418.570312 773.183594 418.570312 L 664.4375 418.570312 C 663.105469 418.570312 661.769531 419.238281 661.101562 419.90625 C 660.433594 420.570312 660.433594 421.238281 660.433594 422.574219 C 660.433594 423.90625 660.433594 424.574219 661.101562 425.242188 C 661.769531 425.910156 663.105469 426.578125 664.4375 426.578125 Z M 664.4375 426.578125 " fill-opacity="1" fill-rule="nonzero"/><path fill="#5f3b30" d="M 741.160156 483.953125 L 456.285156 483.953125 C 452.949219 483.953125 449.617188 481.28125 449.617188 477.28125 C 449.617188 473.945312 452.949219 470.609375 456.285156 470.609375 L 741.160156 470.609375 C 744.496094 470.609375 747.832031 473.945312 747.832031 477.28125 C 747.832031 481.28125 744.496094 483.953125 741.160156 483.953125 Z M 741.160156 483.953125 " fill-opacity="1" fill-rule="evenodd"/><path fill="#000000" d="M 741.160156 486.621094 L 456.285156 486.621094 C 454.285156 486.621094 451.617188 485.285156 450.28125 483.953125 C 448.28125 481.949219 446.945312 479.949219 446.945312 477.28125 C 446.945312 474.613281 448.28125 472.609375 450.28125 470.609375 C 451.617188 469.273438 454.285156 467.941406 456.285156 467.941406 L 741.160156 467.941406 C 743.828125 467.941406 745.832031 469.273438 747.832031 470.609375 C 749.167969 472.609375 750.5 474.613281 750.5 477.28125 C 750.5 479.949219 749.167969 481.949219 747.832031 483.953125 C 745.832031 485.285156 743.828125 486.621094 741.160156 486.621094 Z M 456.285156 481.28125 L 741.160156 481.28125 C 741.828125 481.28125 743.160156 480.617188 743.828125 479.949219 C 744.496094 479.28125 745.164062 478.613281 745.164062 477.28125 C 745.164062 475.945312 744.496094 475.277344 743.828125 474.613281 C 743.160156 473.945312 741.828125 473.277344 741.160156 473.277344 L 456.285156 473.277344 C 455.621094 473.277344 454.285156 473.945312 453.617188 474.613281 C 452.949219 475.277344 452.285156 475.945312 452.285156 477.28125 C 452.285156 478.613281 452.949219 479.28125 453.617188 479.949219 C 454.285156 480.617188 455.621094 481.28125 456.285156 481.28125 Z M 456.285156 481.28125 " fill-opacity="1" fill-rule="nonzero"/><path fill="#5f3b30" d="M 716.476562 541.328125 L 456.285156 541.328125 C 452.949219 541.328125 449.617188 537.992188 449.617188 534.65625 C 449.617188 530.652344 452.949219 527.984375 456.285156 527.984375 L 716.476562 527.984375 C 720.480469 527.984375 723.148438 530.652344 723.148438 534.65625 C 723.148438 537.992188 720.480469 541.328125 716.476562 541.328125 Z M 716.476562 541.328125 " fill-opacity="1" fill-rule="evenodd"/><path fill="#000000" d="M 716.476562 543.996094 L 456.285156 543.996094 C 454.285156 543.996094 451.617188 542.660156 450.28125 541.328125 C 448.28125 539.324219 446.945312 537.324219 446.945312 534.65625 C 446.945312 531.988281 448.28125 529.984375 450.28125 527.984375 C 451.617188 525.980469 454.285156 525.316406 456.285156 525.316406 L 716.476562 525.316406 C 719.144531 525.316406 721.8125 525.980469 723.148438 527.984375 C 725.148438 529.984375 725.816406 531.988281 725.816406 534.65625 C 725.816406 537.324219 725.148438 539.324219 723.148438 541.328125 C 721.8125 542.660156 719.144531 543.996094 716.476562 543.996094 Z M 456.285156 538.65625 L 716.476562 538.65625 C 717.808594 538.65625 719.144531 537.992188 719.8125 537.324219 C 720.480469 536.65625 720.480469 535.988281 720.480469 534.65625 C 720.480469 533.320312 720.480469 532.652344 719.8125 531.988281 C 719.144531 531.320312 717.808594 530.652344 716.476562 530.652344 L 456.285156 530.652344 C 455.621094 530.652344 454.285156 531.320312 453.617188 531.988281 C 452.949219 532.652344 452.285156 533.320312 452.285156 534.65625 C 452.285156 535.988281 452.949219 536.65625 453.617188 537.324219 C 454.285156 537.992188 455.621094 538.65625 456.285156 538.65625 Z M 456.285156 538.65625 " fill-opacity="1" fill-rule="nonzero"/><path fill="#5f3b30" d="M 663.769531 598.703125 L 456.285156 598.703125 C 452.949219 598.703125 449.617188 595.367188 449.617188 592.03125 C 449.617188 588.027344 452.949219 585.359375 456.285156 585.359375 L 663.769531 585.359375 C 667.773438 585.359375 670.441406 588.027344 670.441406 592.03125 C 670.441406 595.367188 667.773438 598.703125 663.769531 598.703125 Z M 663.769531 598.703125 " fill-opacity="1" fill-rule="evenodd"/><path fill="#000000" d="M 663.769531 601.371094 L 456.285156 601.371094 C 454.285156 601.371094 451.617188 600.035156 450.28125 598.703125 C 448.28125 596.699219 446.945312 594.699219 446.945312 592.03125 C 446.945312 589.363281 448.28125 586.691406 450.28125 585.359375 C 451.617188 583.355469 454.285156 582.691406 456.285156 582.691406 L 663.769531 582.691406 C 666.441406 582.691406 668.441406 583.355469 670.441406 585.359375 C 672.445312 586.691406 673.109375 589.363281 673.109375 592.03125 C 673.109375 594.699219 672.445312 596.699219 670.441406 598.703125 C 668.441406 600.035156 666.441406 601.371094 663.769531 601.371094 Z M 456.285156 596.03125 L 663.769531 596.03125 C 665.105469 596.03125 665.773438 595.367188 666.441406 594.699219 C 667.105469 594.03125 667.773438 592.695312 667.773438 592.03125 C 667.773438 590.695312 667.105469 590.027344 666.441406 588.695312 C 665.773438 588.027344 665.105469 588.027344 663.769531 588.027344 L 456.285156 588.027344 C 455.621094 588.027344 454.285156 588.027344 453.617188 588.695312 C 452.949219 590.027344 452.285156 590.695312 452.285156 592.03125 C 452.285156 592.695312 452.949219 594.03125 453.617188 594.699219 C 454.285156 595.367188 455.621094 596.03125 456.285156 596.03125 Z M 456.285156 596.03125 " fill-opacity="1" fill-rule="nonzero"/><path fill="#5f3b30" d="M 663.769531 656.078125 L 456.285156 656.078125 C 452.949219 656.078125 449.617188 652.742188 449.617188 649.40625 C 449.617188 645.402344 452.949219 642.734375 456.285156 642.734375 L 663.769531 642.734375 C 667.773438 642.734375 670.441406 645.402344 670.441406 649.40625 C 670.441406 652.742188 667.773438 656.078125 663.769531 656.078125 Z M 663.769531 656.078125 " fill-opacity="1" fill-rule="evenodd"/><path fill="#000000" d="M 663.769531 658.746094 L 456.285156 658.746094 C 454.285156 658.746094 451.617188 657.410156 450.28125 655.410156 C 448.28125 654.074219 446.945312 651.40625 446.945312 649.40625 C 446.945312 646.738281 448.28125 644.066406 450.28125 642.734375 C 451.617188 640.730469 454.285156 640.066406 456.285156 640.066406 L 663.769531 640.066406 C 666.441406 640.066406 668.441406 640.730469 670.441406 642.734375 C 672.445312 644.066406 673.109375 646.738281 673.109375 649.40625 C 673.109375 651.40625 672.445312 654.074219 670.441406 655.410156 C 668.441406 657.410156 666.441406 658.746094 663.769531 658.746094 Z M 456.285156 653.40625 L 663.769531 653.40625 C 665.105469 653.40625 665.773438 652.742188 666.441406 652.074219 C 667.105469 651.40625 667.773438 650.070312 667.773438 649.40625 C 667.773438 648.070312 667.105469 646.738281 666.441406 646.070312 C 665.773438 645.402344 665.105469 645.402344 663.769531 645.402344 L 456.285156 645.402344 C 455.621094 645.402344 454.285156 645.402344 453.617188 646.070312 C 452.949219 646.738281 452.285156 648.070312 452.285156 649.40625 C 452.285156 650.070312 452.949219 651.40625 453.617188 652.074219 C 454.285156 652.742188 455.621094 653.40625 456.285156 653.40625 Z M 456.285156 653.40625 " fill-opacity="1" fill-rule="nonzero"/><path fill="#5f3b30" d="M 816.546875 656.078125 L 693.125 656.078125 C 689.121094 656.078125 686.453125 652.742188 686.453125 649.40625 L 686.453125 592.03125 C 686.453125 588.027344 689.121094 585.359375 693.125 585.359375 L 744.496094 585.359375 C 747.164062 585.359375 749.832031 586.691406 750.5 589.363281 L 759.171875 610.710938 L 814.546875 594.03125 C 816.546875 594.03125 818.550781 594.03125 820.550781 595.367188 C 821.886719 596.699219 823.21875 598.703125 823.21875 600.703125 L 823.21875 649.40625 C 823.21875 652.742188 819.882812 656.078125 816.546875 656.078125 Z M 816.546875 656.078125 " fill-opacity="1" fill-rule="evenodd"/><path fill="#000000" d="M 816.546875 658.746094 L 693.125 658.746094 C 690.457031 658.746094 687.789062 657.410156 686.453125 655.410156 C 684.453125 654.074219 683.785156 651.40625 683.785156 649.40625 L 683.785156 592.03125 C 683.785156 589.363281 684.453125 586.691406 686.453125 585.359375 C 687.789062 583.355469 690.457031 582.691406 693.125 582.691406 L 744.496094 582.691406 C 746.496094 582.691406 747.832031 583.355469 749.832031 584.023438 C 751.167969 585.359375 752.503906 586.691406 753.167969 588.027344 L 761.175781 607.375 L 813.878906 592.03125 C 815.214844 591.363281 816.546875 591.363281 817.882812 591.363281 C 819.21875 592.03125 820.550781 592.03125 821.886719 593.363281 C 823.21875 594.03125 823.886719 595.367188 824.554688 596.699219 C 825.222656 598.035156 825.886719 599.367188 825.886719 600.703125 L 825.886719 649.40625 C 825.886719 651.40625 824.554688 654.074219 823.21875 655.410156 C 821.21875 657.410156 819.21875 658.746094 816.546875 658.746094 Z M 693.125 653.40625 L 816.546875 653.40625 C 817.214844 653.40625 818.550781 652.742188 819.21875 652.074219 C 819.882812 651.40625 820.550781 650.070312 820.550781 649.40625 L 820.550781 600.703125 C 820.550781 600.035156 820.550781 599.367188 819.882812 598.703125 C 819.882812 598.703125 819.21875 598.035156 818.550781 597.367188 C 818.550781 597.367188 817.882812 596.699219 817.214844 596.699219 C 816.546875 596.699219 815.882812 596.699219 815.214844 596.699219 L 759.839844 613.378906 L 757.839844 614.046875 L 757.171875 612.042969 L 747.832031 590.027344 C 747.832031 589.363281 747.164062 588.695312 746.496094 588.695312 C 745.832031 588.027344 745.164062 588.027344 744.496094 588.027344 L 693.125 588.027344 C 691.792969 588.027344 691.125 588.027344 690.457031 588.695312 C 689.789062 590.027344 689.121094 590.695312 689.121094 592.03125 L 689.121094 649.40625 C 689.121094 650.070312 689.789062 651.40625 690.457031 652.074219 C 691.125 652.742188 691.792969 653.40625 693.125 653.40625 Z M 693.125 653.40625 " fill-opacity="1" fill-rule="nonzero"/><path fill="#7b7b7b" d="M 853.242188 533.320312 C 851.90625 533.320312 851.242188 533.320312 849.90625 533.320312 L 763.175781 491.289062 C 759.839844 489.957031 758.507812 485.953125 759.839844 482.617188 L 895.273438 199.746094 C 895.941406 198.410156 897.273438 197.078125 899.273438 196.410156 C 900.609375 195.742188 902.609375 195.742188 903.945312 196.410156 L 991.34375 238.441406 C 994.679688 239.773438 996.011719 243.777344 994.679688 247.113281 L 859.246094 529.984375 C 858.578125 531.320312 857.246094 532.652344 855.242188 533.320312 C 854.574219 533.320312 853.910156 533.320312 853.242188 533.320312 Z M 853.242188 533.320312 " fill-opacity="1" fill-rule="evenodd"/><path fill="#000000" d="M 853.242188 535.988281 C 852.574219 535.988281 851.90625 535.988281 851.242188 535.988281 C 850.574219 535.988281 849.90625 535.988281 849.238281 535.320312 L 761.84375 493.957031 C 759.839844 492.625 757.839844 490.621094 757.171875 488.621094 C 756.503906 485.953125 756.503906 483.285156 757.839844 481.28125 L 892.605469 198.410156 C 893.269531 197.742188 893.9375 196.410156 895.273438 195.742188 C 895.941406 195.074219 897.273438 194.40625 897.941406 193.742188 C 899.273438 193.074219 900.609375 193.074219 901.945312 193.074219 C 903.277344 193.074219 903.945312 193.742188 905.28125 194.40625 L 992.675781 235.769531 C 994.679688 237.105469 996.679688 239.105469 997.347656 241.109375 C 998.011719 243.109375 998.011719 245.777344 996.679688 248.445312 L 861.246094 531.320312 C 861.246094 531.988281 859.914062 533.320312 859.246094 533.988281 C 858.578125 534.65625 857.246094 535.320312 855.910156 535.988281 C 855.910156 535.988281 855.242188 535.988281 854.574219 535.988281 C 853.910156 535.988281 853.910156 535.988281 853.242188 535.988281 Z M 851.90625 530.652344 C 852.574219 530.652344 852.574219 530.652344 853.242188 530.652344 C 853.242188 530.652344 853.242188 530.652344 853.910156 530.652344 C 853.910156 530.652344 853.910156 530.652344 854.574219 530.652344 C 855.242188 530.652344 855.242188 529.984375 855.910156 529.984375 C 855.910156 529.316406 856.578125 529.316406 856.578125 528.652344 L 992.007812 245.777344 C 992.675781 245.113281 992.675781 243.777344 992.007812 243.109375 C 992.007812 241.777344 991.34375 241.109375 990.007812 240.441406 L 903.277344 199.078125 C 902.609375 198.410156 901.945312 198.410156 901.277344 198.410156 C 901.277344 198.410156 900.609375 198.410156 899.941406 199.078125 C 899.273438 199.078125 899.273438 199.078125 898.609375 199.746094 C 897.941406 199.746094 897.941406 200.414062 897.941406 201.078125 L 762.507812 483.285156 C 761.84375 484.617188 761.84375 485.953125 762.507812 486.621094 C 762.507812 487.289062 763.175781 488.621094 764.511719 488.621094 L 851.242188 530.652344 C 851.90625 530.652344 851.90625 530.652344 851.90625 530.652344 Z M 851.90625 530.652344 " fill-opacity="1" fill-rule="nonzero"/><path fill="#e8666f" d="M 988.671875 251.117188 C 987.339844 251.117188 986.671875 250.449219 985.335938 250.449219 L 898.609375 208.417969 C 895.273438 207.082031 893.9375 203.082031 895.273438 199.746094 L 912.617188 163.050781 C 920.625 147.039062 937.304688 136.367188 955.316406 136.367188 C 962.65625 136.367188 969.324219 137.699219 975.996094 141.035156 L 990.007812 147.707031 C 1001.347656 153.042969 1009.355469 162.382812 1014.023438 174.394531 C 1018.027344 186.402344 1017.359375 199.078125 1012.023438 210.417969 L 994.679688 247.113281 C 993.34375 248.445312 992.007812 249.78125 990.675781 250.449219 C 990.007812 251.117188 989.339844 251.117188 988.671875 251.117188 Z M 988.671875 251.117188 " fill-opacity="1" fill-rule="evenodd"/><path fill="#000000" d="M 988.671875 253.785156 C 988.007812 253.785156 987.339844 253.785156 986.003906 253.117188 C 985.335938 253.117188 984.671875 253.117188 984.671875 252.449219 L 897.273438 211.085938 C 894.605469 209.753906 893.269531 207.75 892.605469 205.75 C 891.9375 203.746094 891.9375 201.078125 892.605469 198.410156 L 910.617188 161.71875 C 914.621094 153.042969 921.292969 146.371094 928.628906 141.035156 C 936.636719 136.367188 945.976562 133.695312 955.316406 133.695312 C 959.320312 133.695312 962.65625 133.695312 966.65625 135.03125 C 969.992188 135.699219 973.328125 137.03125 976.664062 138.367188 L 990.675781 145.039062 C 996.679688 147.707031 1002.015625 151.710938 1006.6875 156.378906 C 1010.691406 161.71875 1014.023438 167.054688 1016.027344 173.726562 C 1018.695312 179.730469 1019.363281 186.402344 1019.363281 193.074219 C 1018.695312 199.078125 1017.359375 205.75 1014.023438 211.753906 L 996.679688 248.445312 C 996.011719 249.113281 995.34375 250.449219 994.679688 251.117188 C 994.011719 251.78125 992.675781 252.449219 991.34375 253.117188 C 990.675781 253.117188 990.675781 253.117188 990.007812 253.785156 C 989.339844 253.785156 988.671875 253.785156 988.671875 253.785156 Z M 987.339844 248.445312 C 988.007812 248.445312 988.007812 248.445312 988.671875 248.445312 C 988.671875 248.445312 988.671875 248.445312 989.339844 248.445312 C 989.339844 248.445312 989.339844 248.445312 990.007812 247.78125 C 990.007812 247.78125 990.675781 247.78125 991.34375 247.113281 C 991.34375 247.113281 992.007812 246.445312 992.007812 245.777344 L 1009.355469 209.085938 C 1012.023438 203.746094 1013.359375 198.410156 1014.023438 192.40625 C 1014.023438 187.070312 1013.359375 181.066406 1011.355469 175.058594 C 1009.355469 169.722656 1006.019531 164.386719 1002.683594 160.382812 C 998.679688 155.714844 994.011719 152.378906 988.671875 149.707031 L 974.664062 143.039062 C 971.996094 141.703125 968.660156 140.367188 965.324219 139.703125 C 961.988281 139.035156 958.652344 139.035156 955.316406 139.035156 C 946.644531 139.035156 938.636719 141.035156 931.964844 145.707031 C 924.628906 150.375 918.621094 156.378906 915.285156 164.386719 L 897.941406 201.078125 C 897.273438 201.746094 897.273438 203.082031 897.273438 203.746094 C 897.941406 205.082031 898.609375 205.75 899.273438 206.417969 L 986.671875 247.78125 C 986.671875 247.78125 987.339844 248.445312 987.339844 248.445312 Z M 987.339844 248.445312 " fill-opacity="1" fill-rule="nonzero"/><path fill="#3c494a" d="M 755.835938 625.386719 C 753.167969 625.386719 750.5 624.054688 749.167969 621.382812 L 724.480469 561.339844 C 723.816406 559.339844 723.816406 557.339844 725.148438 556.003906 L 759.839844 482.617188 C 761.84375 479.28125 765.84375 477.945312 768.511719 479.28125 L 855.910156 520.644531 C 857.246094 521.980469 858.578125 523.3125 859.246094 524.648438 C 859.914062 526.648438 859.914062 527.984375 859.246094 529.984375 L 823.886719 603.371094 C 823.21875 604.707031 821.886719 606.039062 819.882812 606.707031 L 757.171875 625.386719 C 756.503906 625.386719 755.835938 625.386719 755.835938 625.386719 Z M 755.835938 625.386719 " fill-opacity="1" fill-rule="evenodd"/><path fill="#000000" d="M 755.835938 628.054688 C 753.835938 628.054688 751.835938 628.054688 750.5 626.722656 C 748.5 626.054688 747.832031 624.054688 747.164062 622.71875 L 722.480469 562.007812 C 721.8125 560.675781 721.8125 559.339844 721.8125 558.003906 C 721.8125 556.671875 721.8125 556.003906 722.480469 554.667969 L 757.839844 481.28125 C 758.507812 478.613281 760.507812 477.28125 763.175781 476.613281 C 765.179688 475.945312 767.847656 475.945312 769.847656 476.613281 L 857.246094 518.644531 C 857.910156 519.308594 859.246094 519.976562 859.914062 520.644531 C 860.582031 521.3125 861.246094 522.644531 861.914062 523.980469 C 862.582031 525.316406 862.582031 525.980469 862.582031 527.316406 C 862.582031 528.652344 861.914062 529.984375 861.246094 531.320312 L 826.554688 604.039062 C 825.886719 605.371094 825.222656 606.707031 823.886719 607.375 C 823.21875 608.042969 821.886719 608.707031 820.550781 609.375 L 758.507812 628.054688 C 757.839844 628.054688 757.171875 628.054688 757.171875 628.054688 C 756.503906 628.054688 755.835938 628.054688 755.835938 628.054688 Z M 753.167969 622.050781 C 753.835938 622.71875 754.503906 622.71875 755.835938 622.71875 C 756.503906 622.71875 756.503906 622.71875 756.503906 622.71875 L 819.21875 604.039062 C 819.882812 604.039062 819.882812 603.371094 820.550781 603.371094 C 821.21875 602.703125 821.21875 602.703125 821.886719 602.039062 L 856.578125 528.652344 C 857.246094 527.984375 857.246094 527.984375 857.246094 527.316406 C 857.246094 526.648438 857.246094 525.980469 856.578125 525.316406 C 856.578125 525.316406 856.578125 524.648438 855.910156 523.980469 C 855.910156 523.980469 855.242188 523.3125 854.574219 523.3125 L 767.847656 481.949219 C 766.511719 481.28125 765.84375 481.28125 764.511719 481.28125 C 763.84375 481.949219 762.507812 482.617188 762.507812 483.285156 L 727.148438 556.671875 C 727.148438 557.339844 727.148438 558.003906 727.148438 558.671875 C 727.148438 558.671875 727.148438 559.339844 727.148438 560.007812 L 751.835938 620.71875 C 751.835938 621.382812 752.503906 622.050781 753.167969 622.050781 Z M 753.167969 622.050781 " fill-opacity="1" fill-rule="nonzero"/><path fill="#fbcea4" d="M 545.683594 341.847656 C 527.003906 341.847656 512.328125 327.171875 512.328125 308.492188 C 512.328125 289.808594 527.003906 274.464844 545.683594 274.464844 C 564.367188 274.464844 579.710938 289.808594 579.710938 308.492188 C 579.710938 327.171875 564.367188 341.847656 545.683594 341.847656 Z M 545.683594 341.847656 " fill-opacity="1" fill-rule="evenodd"/><path fill="#000000" d="M 545.683594 344.515625 C 535.679688 344.515625 527.003906 340.515625 520.332031 333.84375 C 513.660156 327.171875 509.660156 318.496094 509.660156 308.492188 C 509.660156 298.484375 513.660156 289.144531 520.332031 282.472656 C 527.003906 275.800781 535.679688 271.796875 545.683594 271.796875 C 555.691406 271.796875 565.03125 275.800781 571.703125 282.472656 C 578.375 289.144531 582.378906 298.484375 582.378906 308.492188 C 582.378906 318.496094 578.375 327.171875 571.703125 333.84375 C 565.03125 340.515625 555.691406 344.515625 545.683594 344.515625 Z M 523.667969 330.507812 C 529.671875 335.84375 537.011719 339.179688 545.683594 339.179688 C 554.359375 339.179688 562.363281 335.84375 567.699219 330.507812 C 573.707031 324.503906 577.042969 317.164062 577.042969 308.492188 C 577.042969 299.816406 573.707031 291.8125 567.699219 286.476562 C 562.363281 280.46875 554.359375 277.132812 545.683594 277.132812 C 537.011719 277.132812 529.671875 280.46875 523.667969 286.476562 C 518.332031 291.8125 514.996094 299.816406 514.996094 308.492188 C 514.996094 317.164062 518.332031 324.503906 523.667969 330.507812 Z M 523.667969 330.507812 " fill-opacity="1" fill-rule="nonzero"/><path fill="#fbb994" d="M 517.664062 351.1875 C 521 350.519531 525.003906 349.855469 529.007812 349.855469 L 563.03125 349.855469 C 567.035156 349.855469 571.035156 349.855469 575.039062 351.1875 L 551.691406 386.546875 C 550.355469 387.882812 548.355469 389.214844 545.683594 389.214844 C 543.683594 389.214844 541.683594 387.882812 540.347656 386.546875 Z M 517.664062 351.1875 " fill-opacity="1" fill-rule="evenodd"/><path fill="#000000" d="M 516.996094 348.519531 C 519 348.519531 521 347.851562 523.003906 347.183594 C 525.003906 347.183594 527.003906 347.183594 529.007812 347.183594 L 563.03125 347.183594 C 565.03125 347.183594 567.035156 347.183594 569.035156 347.183594 C 571.035156 347.851562 573.707031 347.851562 575.707031 348.519531 L 579.042969 349.855469 L 577.042969 352.523438 L 553.691406 387.882812 C 553.023438 389.214844 551.691406 389.882812 550.355469 390.550781 C 549.019531 391.882812 547.6875 391.882812 545.683594 391.882812 C 544.351562 391.882812 543.015625 391.882812 541.683594 390.550781 C 540.347656 389.882812 539.011719 389.214844 538.347656 387.882812 L 514.996094 352.523438 L 513.660156 349.855469 Z M 523.667969 352.523438 C 523.003906 352.523438 522.335938 353.191406 521.667969 353.191406 L 542.347656 384.546875 C 543.015625 385.214844 543.683594 385.878906 543.683594 385.878906 C 544.351562 386.546875 545.019531 386.546875 545.683594 386.546875 C 546.351562 386.546875 547.019531 386.546875 547.6875 385.878906 C 548.355469 385.878906 549.019531 385.214844 549.019531 384.546875 L 570.371094 353.191406 C 569.703125 352.523438 569.035156 352.523438 568.367188 352.523438 C 567.035156 352.523438 565.03125 352.523438 563.03125 352.523438 L 529.007812 352.523438 C 527.003906 352.523438 525.003906 352.523438 523.667969 352.523438 Z M 523.667969 352.523438 " fill-opacity="1" fill-rule="nonzero"/></svg>